M48
METRIC,TZ
T1C0.600
T2C0.899
T3C1.016
T4C3.048
%
G90
G05
T1
X078169Y-058791
X078169Y-075291
X083670Y-080790
X084171Y-052789
X085369Y-071890
X085369Y-073490
X088168Y-053990
X088270Y-066589
X089670Y-052291
X093370Y-073089
X093530Y-063487
X096070Y-069088
X096070Y-072588
X096871Y-081191
X098610Y-063487
X100068Y-056789
X100170Y-054290
X100875Y-069825
X102370Y-071090
X102370Y-072588
X106900Y-057900
X107750Y-064500
X109271Y-069489
X109969Y-064287
X112075Y-074200
X113571Y-072288
T2
X080569Y-064590
X080569Y-068989
T3
X103050Y-052728
X103050Y-055268
X103050Y-078727
X103050Y-081267
X105590Y-052728
X105590Y-055268
X105590Y-078727
X105590Y-081267
X108130Y-052728
X108130Y-055268
X108130Y-078727
X108130Y-081267
X110670Y-052728
X110670Y-055268
X110670Y-078727
X110670Y-081267
X113210Y-052728
X113210Y-055268
X113210Y-078727
X113210Y-081267
X115750Y-052728
X115750Y-055268
X115750Y-078727
X115750Y-081267
X120132Y-060648
X120132Y-063188
X120132Y-065728
X120132Y-068268
X120132Y-070808
X120132Y-073348
X122672Y-060648
X122672Y-063188
X122672Y-065728
X122672Y-068268
X122672Y-070808
X122672Y-073348
T4
X079670Y-054290
X079670Y-079289
X120670Y-054290
X120670Y-079289
T0
M30
