G04 (created by PCBNEW (2013-07-24 BZR 4024)-stable) date Fri 24 Jul 2015 04:08:31 PM NZST*
%MOIN*%
G04 Gerber Fmt 3.4, Leading zero omitted, Abs format*
%FSLAX34Y34*%
G01*
G70*
G90*
G04 APERTURE LIST*
%ADD10C,0.005*%
%ADD11R,0.0315X0.025*%
%ADD12R,0.08X0.06*%
%ADD13R,0.06X0.06*%
%ADD14C,0.06*%
%ADD15R,0.0787X0.0177*%
%ADD16R,0.0177X0.0787*%
%ADD17R,0.025X0.0315*%
%ADD18R,0.0984X0.0787*%
%ADD19R,0.0906X0.0197*%
G04 APERTURE END LIST*
G54D10*
G54D11*
X35264Y-30926D03*
X35264Y-30326D03*
X36169Y-30926D03*
X36169Y-30326D03*
G54D12*
X38780Y-30729D03*
X38780Y-29429D03*
X37481Y-30729D03*
X37481Y-29429D03*
G54D13*
X38272Y-21110D03*
G54D14*
X38272Y-22110D03*
X37272Y-21110D03*
X37272Y-22110D03*
X36272Y-21110D03*
X36272Y-22110D03*
G54D15*
X44770Y-25284D03*
X44770Y-25599D03*
X44770Y-25914D03*
X44770Y-26229D03*
X44770Y-26544D03*
X44770Y-26859D03*
X44770Y-27174D03*
X44770Y-27489D03*
X41004Y-27487D03*
X41004Y-25277D03*
X41004Y-25597D03*
X41004Y-25917D03*
X41004Y-26227D03*
X41004Y-26547D03*
X41004Y-26857D03*
X41004Y-27177D03*
G54D16*
X43986Y-28277D03*
X43672Y-28277D03*
X43356Y-28277D03*
X43042Y-28277D03*
X42726Y-28277D03*
X42412Y-28277D03*
X42096Y-28277D03*
X41782Y-28277D03*
X43984Y-24497D03*
X43674Y-24497D03*
X43354Y-24497D03*
X43044Y-24497D03*
X42734Y-24497D03*
X42414Y-24497D03*
X42094Y-24497D03*
X41774Y-24497D03*
G54D11*
X46051Y-26555D03*
X46051Y-25955D03*
G54D17*
X36854Y-26531D03*
X37454Y-26531D03*
X38832Y-26531D03*
X38232Y-26531D03*
G54D11*
X34949Y-22973D03*
X34949Y-22373D03*
G54D17*
X37729Y-27948D03*
X37129Y-27948D03*
X39068Y-28460D03*
X38468Y-28460D03*
X35554Y-26806D03*
X36154Y-26806D03*
G54D11*
X36169Y-29272D03*
X36169Y-28672D03*
G54D17*
X36194Y-27554D03*
X35594Y-27554D03*
G54D18*
X30539Y-28027D03*
X30539Y-24543D03*
X32704Y-28047D03*
X32704Y-24543D03*
G54D19*
X32704Y-26295D03*
X32704Y-25980D03*
X32704Y-25665D03*
X32704Y-26610D03*
X32704Y-26925D03*
G54D12*
X34752Y-23991D03*
X34752Y-25291D03*
M02*
