G04 (created by PCBNEW (2013-07-24 BZR 4024)-stable) date Sat 25 Jul 2015 09:30:40 AM NZST*
%MOIN*%
G04 Gerber Fmt 3.4, Leading zero omitted, Abs format*
%FSLAX34Y34*%
G01*
G70*
G90*
G04 APERTURE LIST*
%ADD10C,0.005*%
%ADD11C,0.056*%
%ADD12R,0.06X0.06*%
%ADD13C,0.06*%
%ADD14C,0.16*%
%ADD15C,0.0354*%
%ADD16C,0.0472441*%
%ADD17C,0.0137795*%
%ADD18C,0.01*%
G04 APERTURE END LIST*
G54D10*
G54D11*
X36823Y-24995D03*
X38823Y-24995D03*
G54D12*
X48296Y-28877D03*
G54D13*
X47296Y-28877D03*
X48296Y-27877D03*
X47296Y-27877D03*
X48296Y-26877D03*
X47296Y-26877D03*
X48296Y-25877D03*
X47296Y-25877D03*
X48296Y-24877D03*
X47296Y-24877D03*
X48296Y-23877D03*
X47296Y-23877D03*
G54D12*
X40571Y-31995D03*
G54D13*
X40571Y-30995D03*
X41571Y-31995D03*
X41571Y-30995D03*
X42571Y-31995D03*
X42571Y-30995D03*
X43571Y-31995D03*
X43571Y-30995D03*
X44571Y-31995D03*
X44571Y-30995D03*
X45571Y-31995D03*
X45571Y-30995D03*
G54D12*
X45571Y-20759D03*
G54D13*
X45571Y-21759D03*
X44571Y-20759D03*
X44571Y-21759D03*
X43571Y-20759D03*
X43571Y-21759D03*
X42571Y-20759D03*
X42571Y-21759D03*
X41571Y-20759D03*
X41571Y-21759D03*
X40571Y-20759D03*
X40571Y-21759D03*
G54D14*
X47508Y-31216D03*
X31366Y-21374D03*
X47508Y-21374D03*
X31366Y-31216D03*
G54D15*
X31720Y-27161D03*
X31720Y-25429D03*
G54D16*
X44713Y-28460D03*
X40303Y-28578D03*
X44124Y-29212D03*
X40303Y-27988D03*
X39437Y-21374D03*
X39397Y-22358D03*
X42086Y-22795D03*
X34712Y-21256D03*
X43020Y-27358D03*
X39714Y-27490D03*
X33138Y-20783D03*
X35303Y-20587D03*
X38138Y-31965D03*
X30775Y-29642D03*
X32941Y-31807D03*
X30775Y-23146D03*
X33610Y-28303D03*
X33610Y-28933D03*
X37823Y-27200D03*
X34752Y-26216D03*
X43295Y-25310D03*
X36760Y-28775D03*
X37823Y-28578D03*
X42421Y-25393D03*
G54D17*
X44320Y-29680D02*
X41405Y-29680D01*
X44752Y-29248D02*
X44320Y-29680D01*
X44752Y-28499D02*
X44752Y-29248D01*
X44713Y-28460D02*
X44752Y-28499D01*
X41405Y-29680D02*
X40303Y-28578D01*
X44124Y-29212D02*
X41524Y-29208D01*
X41524Y-29208D02*
X40304Y-27988D01*
X40304Y-27988D02*
X40303Y-27988D01*
X41043Y-21287D02*
X39524Y-21287D01*
X39524Y-21287D02*
X39437Y-21374D01*
X41035Y-21295D02*
X41043Y-21287D01*
X41043Y-21287D02*
X41571Y-20759D01*
X39732Y-22693D02*
X41775Y-22693D01*
X39732Y-22693D02*
X39397Y-22358D01*
X41984Y-22693D02*
X42086Y-22795D01*
X41775Y-22693D02*
X41984Y-22693D01*
X41563Y-27358D02*
X40972Y-27358D01*
X34279Y-21689D02*
X34712Y-21256D01*
X34279Y-23460D02*
X34279Y-21689D01*
X36563Y-25744D02*
X34279Y-23460D01*
X39358Y-25744D02*
X36563Y-25744D01*
X40972Y-27358D02*
X39358Y-25744D01*
X43020Y-27358D02*
X41563Y-27358D01*
X41563Y-27358D02*
X41524Y-27358D01*
X40177Y-31995D02*
X39714Y-31532D01*
X40571Y-31995D02*
X40177Y-31995D01*
X39714Y-31532D02*
X39714Y-27490D01*
X45571Y-21759D02*
X45078Y-22251D01*
X45065Y-22253D02*
X44571Y-21759D01*
X45078Y-22253D02*
X45065Y-22253D01*
X45078Y-22251D02*
X45078Y-22253D01*
X44571Y-21759D02*
X44571Y-21816D01*
X44094Y-22282D02*
X43571Y-21759D01*
X44094Y-22293D02*
X44094Y-22282D01*
X44571Y-21816D02*
X44094Y-22293D01*
X43571Y-21759D02*
X43571Y-21793D01*
X43571Y-21793D02*
X43080Y-22283D01*
X43080Y-22283D02*
X43080Y-22268D01*
X43080Y-22268D02*
X42571Y-21759D01*
X42571Y-21759D02*
X42571Y-21789D01*
X42571Y-21789D02*
X42086Y-22273D01*
X42086Y-22273D02*
X42085Y-22273D01*
X42085Y-22273D02*
X41571Y-21759D01*
X41571Y-21759D02*
X41571Y-21795D01*
X41571Y-21795D02*
X41092Y-22273D01*
X41092Y-22273D02*
X41085Y-22273D01*
X41085Y-22273D02*
X40571Y-21759D01*
X47296Y-23877D02*
X46377Y-22958D01*
X46377Y-22565D02*
X45571Y-21759D01*
X46377Y-22958D02*
X46377Y-22565D01*
X47296Y-28877D02*
X47296Y-28851D01*
X46820Y-28352D02*
X47296Y-27877D01*
X46820Y-28375D02*
X46820Y-28352D01*
X47296Y-28851D02*
X46820Y-28375D01*
X47296Y-27877D02*
X47286Y-27877D01*
X46811Y-27361D02*
X47296Y-26877D01*
X46811Y-27401D02*
X46811Y-27361D01*
X47286Y-27877D02*
X46811Y-27401D01*
X47296Y-26877D02*
X47296Y-26872D01*
X47296Y-26872D02*
X46811Y-26387D01*
X46811Y-26387D02*
X46811Y-26361D01*
X46811Y-26361D02*
X47296Y-25877D01*
X47296Y-25877D02*
X47274Y-25877D01*
X47274Y-25877D02*
X46791Y-25393D01*
X46791Y-25393D02*
X46791Y-25381D01*
X46791Y-25381D02*
X47296Y-24877D01*
X47296Y-24877D02*
X47278Y-24877D01*
X47278Y-24877D02*
X46791Y-24389D01*
X46791Y-24389D02*
X46791Y-24381D01*
X46791Y-24381D02*
X47296Y-23877D01*
X40571Y-30995D02*
X41082Y-30483D01*
X41082Y-30506D02*
X41571Y-30995D01*
X41082Y-30483D02*
X41082Y-30506D01*
X41571Y-30995D02*
X41571Y-30988D01*
X42068Y-30492D02*
X42571Y-30995D01*
X42066Y-30492D02*
X42068Y-30492D01*
X41571Y-30988D02*
X42066Y-30492D01*
X42571Y-30995D02*
X42571Y-30991D01*
X42571Y-30991D02*
X43080Y-30482D01*
X43080Y-30482D02*
X43080Y-30504D01*
X43080Y-30504D02*
X43571Y-30995D01*
X43571Y-30995D02*
X43571Y-30995D01*
X43571Y-30995D02*
X44064Y-30501D01*
X44064Y-30501D02*
X44077Y-30501D01*
X44077Y-30501D02*
X44571Y-30995D01*
X44571Y-30995D02*
X44585Y-30995D01*
X44585Y-30995D02*
X45088Y-30492D01*
X45088Y-30492D02*
X45088Y-30512D01*
X45088Y-30512D02*
X45571Y-30995D01*
X45571Y-30995D02*
X45571Y-30993D01*
X45571Y-30993D02*
X46525Y-30039D01*
X46525Y-30039D02*
X46525Y-29647D01*
X46525Y-29647D02*
X47296Y-28877D01*
X32351Y-29642D02*
X30775Y-29642D01*
X35303Y-20587D02*
X33334Y-20587D01*
X33138Y-20783D02*
X33334Y-20587D01*
X30775Y-29642D02*
X30775Y-23146D01*
X32941Y-31807D02*
X32941Y-30232D01*
X32941Y-30232D02*
X32351Y-29642D01*
X45658Y-21759D02*
X45571Y-21759D01*
X45571Y-30995D02*
X45586Y-30980D01*
X37823Y-27200D02*
X35146Y-27200D01*
X34752Y-26806D02*
X34752Y-26216D01*
X35146Y-27200D02*
X34752Y-26806D01*
X43295Y-25310D02*
X42350Y-24365D01*
X42350Y-24365D02*
X37453Y-24365D01*
X37453Y-24365D02*
X36823Y-24995D01*
X37626Y-28775D02*
X36760Y-28775D01*
X37823Y-28578D02*
X37626Y-28775D01*
X42350Y-25272D02*
X42421Y-25343D01*
X42350Y-25272D02*
X39100Y-25272D01*
X38823Y-24995D02*
X39100Y-25272D01*
X42421Y-25343D02*
X42421Y-25393D01*
G54D10*
G36*
X48561Y-30510D02*
X48213Y-30162D01*
X47756Y-29972D01*
X47611Y-29972D01*
X47611Y-29262D01*
X47296Y-28947D01*
X47225Y-29018D01*
X47225Y-28877D01*
X46910Y-28561D01*
X46814Y-28589D01*
X46741Y-28795D01*
X46752Y-29013D01*
X46814Y-29164D01*
X46910Y-29192D01*
X47225Y-28877D01*
X47225Y-29018D01*
X46980Y-29262D01*
X47008Y-29358D01*
X47214Y-29431D01*
X47432Y-29420D01*
X47583Y-29358D01*
X47611Y-29262D01*
X47611Y-29972D01*
X47261Y-29971D01*
X46804Y-30160D01*
X46454Y-30510D01*
X46264Y-30967D01*
X46263Y-31462D01*
X46452Y-31919D01*
X46801Y-32269D01*
X46125Y-32269D01*
X46125Y-31076D01*
X46125Y-21840D01*
X46114Y-21622D01*
X46052Y-21471D01*
X45956Y-21443D01*
X45641Y-21759D01*
X45956Y-22074D01*
X46052Y-22046D01*
X46125Y-21840D01*
X46125Y-31076D01*
X46114Y-30858D01*
X46052Y-30707D01*
X45956Y-30679D01*
X45886Y-30750D01*
X45886Y-30609D01*
X45886Y-22144D01*
X45571Y-21829D01*
X45500Y-21900D01*
X45500Y-21759D01*
X45185Y-21443D01*
X45089Y-21471D01*
X45072Y-21519D01*
X45052Y-21471D01*
X44956Y-21443D01*
X44641Y-21759D01*
X44956Y-22074D01*
X45052Y-22046D01*
X45069Y-21998D01*
X45089Y-22046D01*
X45185Y-22074D01*
X45500Y-21759D01*
X45500Y-21900D01*
X45255Y-22144D01*
X45283Y-22240D01*
X45489Y-22313D01*
X45707Y-22302D01*
X45858Y-22240D01*
X45886Y-22144D01*
X45886Y-30609D01*
X45858Y-30513D01*
X45652Y-30440D01*
X45434Y-30451D01*
X45283Y-30513D01*
X45255Y-30609D01*
X45571Y-30924D01*
X45886Y-30609D01*
X45886Y-30750D01*
X45641Y-30995D01*
X45956Y-31310D01*
X46052Y-31282D01*
X46125Y-31076D01*
X46125Y-32269D01*
X46052Y-32269D01*
X46120Y-32104D01*
X46121Y-31886D01*
X46037Y-31683D01*
X45882Y-31529D01*
X45807Y-31497D01*
X45858Y-31476D01*
X45886Y-31380D01*
X45571Y-31065D01*
X45500Y-31136D01*
X45500Y-30995D01*
X45185Y-30679D01*
X45089Y-30707D01*
X45072Y-30755D01*
X45052Y-30707D01*
X44956Y-30679D01*
X44886Y-30750D01*
X44886Y-30609D01*
X44858Y-30513D01*
X44652Y-30440D01*
X44434Y-30451D01*
X44283Y-30513D01*
X44255Y-30609D01*
X44571Y-30924D01*
X44886Y-30609D01*
X44886Y-30750D01*
X44641Y-30995D01*
X44956Y-31310D01*
X45052Y-31282D01*
X45069Y-31234D01*
X45089Y-31282D01*
X45185Y-31310D01*
X45500Y-30995D01*
X45500Y-31136D01*
X45255Y-31380D01*
X45283Y-31476D01*
X45338Y-31495D01*
X45259Y-31528D01*
X45105Y-31683D01*
X45071Y-31764D01*
X45037Y-31683D01*
X44882Y-31529D01*
X44807Y-31497D01*
X44858Y-31476D01*
X44886Y-31380D01*
X44571Y-31065D01*
X44500Y-31136D01*
X44500Y-30995D01*
X44185Y-30679D01*
X44089Y-30707D01*
X44072Y-30755D01*
X44052Y-30707D01*
X43956Y-30679D01*
X43886Y-30750D01*
X43886Y-30609D01*
X43858Y-30513D01*
X43652Y-30440D01*
X43434Y-30451D01*
X43283Y-30513D01*
X43255Y-30609D01*
X43571Y-30924D01*
X43886Y-30609D01*
X43886Y-30750D01*
X43641Y-30995D01*
X43956Y-31310D01*
X44052Y-31282D01*
X44069Y-31234D01*
X44089Y-31282D01*
X44185Y-31310D01*
X44500Y-30995D01*
X44500Y-31136D01*
X44255Y-31380D01*
X44283Y-31476D01*
X44338Y-31495D01*
X44259Y-31528D01*
X44105Y-31683D01*
X44071Y-31764D01*
X44037Y-31683D01*
X43882Y-31529D01*
X43807Y-31497D01*
X43858Y-31476D01*
X43886Y-31380D01*
X43571Y-31065D01*
X43500Y-31136D01*
X43500Y-30995D01*
X43185Y-30679D01*
X43089Y-30707D01*
X43072Y-30755D01*
X43052Y-30707D01*
X42956Y-30679D01*
X42886Y-30750D01*
X42886Y-30609D01*
X42858Y-30513D01*
X42652Y-30440D01*
X42434Y-30451D01*
X42283Y-30513D01*
X42255Y-30609D01*
X42571Y-30924D01*
X42886Y-30609D01*
X42886Y-30750D01*
X42641Y-30995D01*
X42956Y-31310D01*
X43052Y-31282D01*
X43069Y-31234D01*
X43089Y-31282D01*
X43185Y-31310D01*
X43500Y-30995D01*
X43500Y-31136D01*
X43255Y-31380D01*
X43283Y-31476D01*
X43338Y-31495D01*
X43259Y-31528D01*
X43105Y-31683D01*
X43071Y-31764D01*
X43037Y-31683D01*
X42882Y-31529D01*
X42807Y-31497D01*
X42858Y-31476D01*
X42886Y-31380D01*
X42571Y-31065D01*
X42500Y-31136D01*
X42500Y-30995D01*
X42185Y-30679D01*
X42089Y-30707D01*
X42072Y-30755D01*
X42052Y-30707D01*
X41956Y-30679D01*
X41886Y-30750D01*
X41886Y-30609D01*
X41858Y-30513D01*
X41652Y-30440D01*
X41434Y-30451D01*
X41283Y-30513D01*
X41255Y-30609D01*
X41571Y-30924D01*
X41886Y-30609D01*
X41886Y-30750D01*
X41641Y-30995D01*
X41956Y-31310D01*
X42052Y-31282D01*
X42069Y-31234D01*
X42089Y-31282D01*
X42185Y-31310D01*
X42500Y-30995D01*
X42500Y-31136D01*
X42255Y-31380D01*
X42283Y-31476D01*
X42338Y-31495D01*
X42259Y-31528D01*
X42105Y-31683D01*
X42071Y-31764D01*
X42037Y-31683D01*
X41882Y-31529D01*
X41807Y-31497D01*
X41858Y-31476D01*
X41886Y-31380D01*
X41571Y-31065D01*
X41500Y-31136D01*
X41500Y-30995D01*
X41185Y-30679D01*
X41089Y-30707D01*
X41072Y-30755D01*
X41052Y-30707D01*
X40956Y-30679D01*
X40886Y-30750D01*
X40886Y-30609D01*
X40858Y-30513D01*
X40652Y-30440D01*
X40434Y-30451D01*
X40283Y-30513D01*
X40255Y-30609D01*
X40571Y-30924D01*
X40886Y-30609D01*
X40886Y-30750D01*
X40641Y-30995D01*
X40956Y-31310D01*
X41052Y-31282D01*
X41069Y-31234D01*
X41089Y-31282D01*
X41185Y-31310D01*
X41500Y-30995D01*
X41500Y-31136D01*
X41255Y-31380D01*
X41283Y-31476D01*
X41338Y-31495D01*
X41259Y-31528D01*
X41121Y-31667D01*
X41121Y-31645D01*
X41083Y-31553D01*
X41012Y-31483D01*
X40920Y-31445D01*
X40867Y-31444D01*
X40886Y-31380D01*
X40571Y-31065D01*
X40255Y-31380D01*
X40274Y-31444D01*
X40221Y-31444D01*
X40129Y-31482D01*
X40122Y-31489D01*
X40033Y-31400D01*
X40033Y-31146D01*
X40089Y-31282D01*
X40185Y-31310D01*
X40500Y-30995D01*
X40185Y-30679D01*
X40089Y-30707D01*
X40033Y-30864D01*
X40033Y-28992D01*
X40205Y-29064D01*
X40338Y-29064D01*
X41179Y-29905D01*
X41179Y-29905D01*
X41282Y-29974D01*
X41404Y-29998D01*
X41405Y-29998D01*
X44320Y-29998D01*
X44320Y-29998D01*
X44442Y-29974D01*
X44442Y-29974D01*
X44545Y-29905D01*
X44977Y-29473D01*
X44977Y-29473D01*
X45012Y-29421D01*
X45046Y-29370D01*
X45046Y-29370D01*
X45070Y-29248D01*
X45070Y-29248D01*
X45070Y-28789D01*
X45124Y-28735D01*
X45199Y-28557D01*
X45199Y-28363D01*
X45125Y-28184D01*
X44988Y-28048D01*
X44886Y-28005D01*
X44886Y-22144D01*
X44571Y-21829D01*
X44500Y-21900D01*
X44500Y-21759D01*
X44185Y-21443D01*
X44089Y-21471D01*
X44072Y-21519D01*
X44052Y-21471D01*
X43956Y-21443D01*
X43641Y-21759D01*
X43956Y-22074D01*
X44052Y-22046D01*
X44069Y-21998D01*
X44089Y-22046D01*
X44185Y-22074D01*
X44500Y-21759D01*
X44500Y-21900D01*
X44255Y-22144D01*
X44283Y-22240D01*
X44489Y-22313D01*
X44707Y-22302D01*
X44858Y-22240D01*
X44886Y-22144D01*
X44886Y-28005D01*
X44810Y-27973D01*
X44616Y-27973D01*
X44437Y-28047D01*
X44301Y-28184D01*
X44226Y-28362D01*
X44226Y-28556D01*
X44300Y-28735D01*
X44342Y-28776D01*
X44221Y-28726D01*
X44027Y-28726D01*
X43886Y-28784D01*
X43886Y-22144D01*
X43571Y-21829D01*
X43500Y-21900D01*
X43500Y-21759D01*
X43185Y-21443D01*
X43089Y-21471D01*
X43072Y-21519D01*
X43052Y-21471D01*
X42956Y-21443D01*
X42641Y-21759D01*
X42956Y-22074D01*
X43052Y-22046D01*
X43069Y-21998D01*
X43089Y-22046D01*
X43185Y-22074D01*
X43500Y-21759D01*
X43500Y-21900D01*
X43255Y-22144D01*
X43283Y-22240D01*
X43489Y-22313D01*
X43707Y-22302D01*
X43858Y-22240D01*
X43886Y-22144D01*
X43886Y-28784D01*
X43848Y-28800D01*
X43781Y-28867D01*
X43781Y-25213D01*
X43707Y-25034D01*
X43570Y-24898D01*
X43392Y-24823D01*
X43259Y-24823D01*
X42886Y-24450D01*
X42886Y-22144D01*
X42571Y-21829D01*
X42500Y-21900D01*
X42500Y-21759D01*
X42185Y-21443D01*
X42089Y-21471D01*
X42072Y-21519D01*
X42052Y-21471D01*
X41956Y-21443D01*
X41641Y-21759D01*
X41956Y-22074D01*
X42052Y-22046D01*
X42069Y-21998D01*
X42089Y-22046D01*
X42185Y-22074D01*
X42500Y-21759D01*
X42500Y-21900D01*
X42255Y-22144D01*
X42283Y-22240D01*
X42489Y-22313D01*
X42707Y-22302D01*
X42858Y-22240D01*
X42886Y-22144D01*
X42886Y-24450D01*
X42575Y-24139D01*
X42572Y-24137D01*
X42572Y-22698D01*
X42499Y-22520D01*
X42362Y-22383D01*
X42183Y-22309D01*
X41990Y-22308D01*
X41886Y-22351D01*
X41886Y-22144D01*
X41571Y-21829D01*
X41255Y-22144D01*
X41283Y-22240D01*
X41489Y-22313D01*
X41707Y-22302D01*
X41858Y-22240D01*
X41886Y-22144D01*
X41886Y-22351D01*
X41832Y-22374D01*
X41775Y-22374D01*
X40886Y-22374D01*
X40886Y-22144D01*
X40571Y-21829D01*
X40255Y-22144D01*
X40283Y-22240D01*
X40489Y-22313D01*
X40707Y-22302D01*
X40858Y-22240D01*
X40886Y-22144D01*
X40886Y-22374D01*
X39883Y-22374D01*
X39883Y-22261D01*
X39809Y-22082D01*
X39672Y-21946D01*
X39494Y-21871D01*
X39300Y-21871D01*
X39121Y-21945D01*
X38985Y-22082D01*
X38910Y-22260D01*
X38910Y-22454D01*
X38984Y-22633D01*
X39121Y-22769D01*
X39299Y-22844D01*
X39432Y-22844D01*
X39506Y-22918D01*
X39506Y-22918D01*
X39558Y-22953D01*
X39609Y-22987D01*
X39609Y-22987D01*
X39732Y-23011D01*
X41650Y-23011D01*
X41674Y-23070D01*
X41810Y-23207D01*
X41989Y-23281D01*
X42182Y-23281D01*
X42361Y-23207D01*
X42498Y-23071D01*
X42572Y-22892D01*
X42572Y-22698D01*
X42572Y-24137D01*
X42472Y-24070D01*
X42350Y-24046D01*
X37453Y-24046D01*
X37330Y-24070D01*
X37279Y-24104D01*
X37227Y-24139D01*
X36901Y-24465D01*
X36718Y-24464D01*
X36523Y-24545D01*
X36373Y-24694D01*
X36293Y-24889D01*
X36292Y-25022D01*
X34597Y-23327D01*
X34597Y-21821D01*
X34676Y-21742D01*
X34808Y-21742D01*
X34987Y-21668D01*
X35123Y-21531D01*
X35198Y-21353D01*
X35198Y-21159D01*
X35124Y-20980D01*
X34987Y-20844D01*
X34809Y-20769D01*
X34615Y-20769D01*
X34436Y-20843D01*
X34300Y-20980D01*
X34225Y-21158D01*
X34225Y-21291D01*
X34053Y-21463D01*
X33984Y-21566D01*
X33960Y-21689D01*
X33960Y-23460D01*
X33984Y-23582D01*
X34053Y-23685D01*
X36337Y-25969D01*
X36337Y-25969D01*
X36440Y-26038D01*
X36562Y-26062D01*
X36563Y-26062D01*
X39225Y-26062D01*
X40746Y-27583D01*
X40746Y-27583D01*
X40798Y-27618D01*
X40849Y-27652D01*
X40849Y-27652D01*
X40972Y-27676D01*
X41524Y-27676D01*
X41563Y-27676D01*
X42651Y-27676D01*
X42744Y-27769D01*
X42922Y-27844D01*
X43116Y-27844D01*
X43295Y-27770D01*
X43431Y-27633D01*
X43506Y-27455D01*
X43506Y-27261D01*
X43432Y-27082D01*
X43295Y-26946D01*
X43117Y-26871D01*
X42923Y-26871D01*
X42744Y-26945D01*
X42651Y-27039D01*
X41563Y-27039D01*
X41524Y-27039D01*
X41104Y-27039D01*
X39655Y-25590D01*
X41976Y-25590D01*
X42008Y-25668D01*
X42145Y-25805D01*
X42324Y-25879D01*
X42517Y-25880D01*
X42696Y-25806D01*
X42833Y-25669D01*
X42875Y-25567D01*
X42882Y-25585D01*
X43019Y-25721D01*
X43197Y-25796D01*
X43391Y-25796D01*
X43570Y-25722D01*
X43706Y-25585D01*
X43781Y-25407D01*
X43781Y-25213D01*
X43781Y-28867D01*
X43755Y-28892D01*
X41656Y-28889D01*
X40789Y-28022D01*
X40789Y-27891D01*
X40715Y-27712D01*
X40578Y-27576D01*
X40400Y-27501D01*
X40206Y-27501D01*
X40200Y-27504D01*
X40200Y-27393D01*
X40127Y-27215D01*
X39990Y-27078D01*
X39811Y-27004D01*
X39618Y-27003D01*
X39439Y-27077D01*
X39302Y-27214D01*
X39228Y-27393D01*
X39228Y-27586D01*
X39302Y-27765D01*
X39395Y-27858D01*
X39395Y-31532D01*
X39419Y-31654D01*
X39489Y-31758D01*
X39951Y-32220D01*
X39951Y-32220D01*
X40020Y-32266D01*
X40020Y-32269D01*
X38309Y-32269D01*
X38309Y-28481D01*
X38235Y-28302D01*
X38098Y-28166D01*
X37920Y-28091D01*
X37726Y-28091D01*
X37547Y-28165D01*
X37411Y-28302D01*
X37347Y-28456D01*
X37128Y-28456D01*
X37035Y-28363D01*
X36857Y-28288D01*
X36663Y-28288D01*
X36484Y-28362D01*
X36348Y-28499D01*
X36273Y-28677D01*
X36273Y-28871D01*
X36347Y-29050D01*
X36484Y-29186D01*
X36662Y-29261D01*
X36856Y-29261D01*
X37035Y-29187D01*
X37128Y-29093D01*
X37626Y-29093D01*
X37626Y-29093D01*
X37748Y-29069D01*
X37748Y-29069D01*
X37756Y-29064D01*
X37756Y-29064D01*
X37919Y-29064D01*
X38098Y-28990D01*
X38234Y-28853D01*
X38309Y-28675D01*
X38309Y-28481D01*
X38309Y-32269D01*
X32071Y-32269D01*
X32419Y-31921D01*
X32609Y-31464D01*
X32610Y-30969D01*
X32421Y-30512D01*
X32147Y-30237D01*
X32147Y-27076D01*
X32147Y-25344D01*
X32082Y-25187D01*
X31962Y-25067D01*
X31805Y-25002D01*
X31635Y-25001D01*
X31478Y-25066D01*
X31358Y-25186D01*
X31293Y-25343D01*
X31292Y-25513D01*
X31357Y-25670D01*
X31477Y-25790D01*
X31634Y-25855D01*
X31804Y-25856D01*
X31961Y-25791D01*
X32081Y-25671D01*
X32146Y-25514D01*
X32147Y-25344D01*
X32147Y-27076D01*
X32082Y-26919D01*
X31962Y-26799D01*
X31805Y-26734D01*
X31635Y-26733D01*
X31478Y-26798D01*
X31358Y-26918D01*
X31293Y-27075D01*
X31292Y-27245D01*
X31357Y-27402D01*
X31477Y-27522D01*
X31634Y-27587D01*
X31804Y-27588D01*
X31961Y-27523D01*
X32081Y-27403D01*
X32146Y-27246D01*
X32147Y-27076D01*
X32147Y-30237D01*
X32071Y-30162D01*
X31614Y-29972D01*
X31119Y-29971D01*
X30662Y-30160D01*
X30313Y-30509D01*
X30313Y-22079D01*
X30660Y-22427D01*
X31117Y-22617D01*
X31612Y-22618D01*
X32069Y-22429D01*
X32419Y-22079D01*
X32609Y-21622D01*
X32610Y-21127D01*
X32421Y-20670D01*
X32072Y-20321D01*
X40231Y-20321D01*
X40105Y-20447D01*
X40021Y-20649D01*
X40020Y-20867D01*
X40062Y-20968D01*
X39718Y-20968D01*
X39712Y-20962D01*
X39534Y-20887D01*
X39340Y-20887D01*
X39161Y-20961D01*
X39025Y-21098D01*
X38950Y-21276D01*
X38950Y-21470D01*
X39024Y-21649D01*
X39161Y-21785D01*
X39339Y-21860D01*
X39533Y-21860D01*
X39712Y-21786D01*
X39848Y-21649D01*
X39867Y-21605D01*
X40041Y-21605D01*
X40016Y-21677D01*
X40027Y-21895D01*
X40089Y-22046D01*
X40185Y-22074D01*
X40500Y-21759D01*
X40494Y-21753D01*
X40565Y-21682D01*
X40571Y-21688D01*
X40576Y-21682D01*
X40647Y-21753D01*
X40641Y-21759D01*
X40956Y-22074D01*
X41052Y-22046D01*
X41069Y-21998D01*
X41089Y-22046D01*
X41185Y-22074D01*
X41500Y-21759D01*
X41494Y-21753D01*
X41565Y-21682D01*
X41571Y-21688D01*
X41886Y-21373D01*
X41858Y-21277D01*
X41803Y-21258D01*
X41882Y-21225D01*
X42036Y-21070D01*
X42070Y-20989D01*
X42104Y-21070D01*
X42259Y-21224D01*
X42334Y-21256D01*
X42283Y-21277D01*
X42255Y-21373D01*
X42571Y-21688D01*
X42886Y-21373D01*
X42858Y-21277D01*
X42803Y-21258D01*
X42882Y-21225D01*
X43036Y-21070D01*
X43070Y-20989D01*
X43104Y-21070D01*
X43259Y-21224D01*
X43334Y-21256D01*
X43283Y-21277D01*
X43255Y-21373D01*
X43571Y-21688D01*
X43886Y-21373D01*
X43858Y-21277D01*
X43803Y-21258D01*
X43882Y-21225D01*
X44036Y-21070D01*
X44070Y-20989D01*
X44104Y-21070D01*
X44259Y-21224D01*
X44334Y-21256D01*
X44283Y-21277D01*
X44255Y-21373D01*
X44571Y-21688D01*
X44886Y-21373D01*
X44858Y-21277D01*
X44803Y-21258D01*
X44882Y-21225D01*
X45020Y-21086D01*
X45020Y-21108D01*
X45058Y-21200D01*
X45129Y-21270D01*
X45221Y-21308D01*
X45274Y-21309D01*
X45255Y-21373D01*
X45571Y-21688D01*
X45886Y-21373D01*
X45867Y-21309D01*
X45920Y-21309D01*
X46012Y-21271D01*
X46082Y-21200D01*
X46120Y-21108D01*
X46121Y-21009D01*
X46121Y-20409D01*
X46084Y-20321D01*
X46802Y-20321D01*
X46454Y-20668D01*
X46264Y-21125D01*
X46263Y-21620D01*
X46452Y-22077D01*
X46802Y-22427D01*
X47259Y-22617D01*
X47754Y-22618D01*
X48211Y-22429D01*
X48561Y-22080D01*
X48561Y-23391D01*
X48405Y-23327D01*
X48187Y-23326D01*
X47984Y-23410D01*
X47830Y-23565D01*
X47798Y-23640D01*
X47777Y-23589D01*
X47681Y-23561D01*
X47611Y-23632D01*
X47611Y-23491D01*
X47583Y-23395D01*
X47377Y-23322D01*
X47159Y-23333D01*
X47008Y-23395D01*
X46980Y-23491D01*
X47296Y-23806D01*
X47611Y-23491D01*
X47611Y-23632D01*
X47366Y-23877D01*
X47681Y-24192D01*
X47777Y-24164D01*
X47796Y-24109D01*
X47829Y-24188D01*
X47984Y-24342D01*
X48065Y-24376D01*
X47984Y-24410D01*
X47830Y-24565D01*
X47798Y-24640D01*
X47777Y-24589D01*
X47681Y-24561D01*
X47611Y-24632D01*
X47611Y-24491D01*
X47583Y-24395D01*
X47535Y-24378D01*
X47583Y-24358D01*
X47611Y-24262D01*
X47296Y-23947D01*
X47225Y-24018D01*
X47225Y-23877D01*
X46910Y-23561D01*
X46814Y-23589D01*
X46741Y-23795D01*
X46752Y-24013D01*
X46814Y-24164D01*
X46910Y-24192D01*
X47225Y-23877D01*
X47225Y-24018D01*
X46980Y-24262D01*
X47008Y-24358D01*
X47056Y-24375D01*
X47008Y-24395D01*
X46980Y-24491D01*
X47296Y-24806D01*
X47611Y-24491D01*
X47611Y-24632D01*
X47366Y-24877D01*
X47681Y-25192D01*
X47777Y-25164D01*
X47796Y-25109D01*
X47829Y-25188D01*
X47984Y-25342D01*
X48065Y-25376D01*
X47984Y-25410D01*
X47830Y-25565D01*
X47798Y-25640D01*
X47777Y-25589D01*
X47681Y-25561D01*
X47611Y-25632D01*
X47611Y-25491D01*
X47583Y-25395D01*
X47535Y-25378D01*
X47583Y-25358D01*
X47611Y-25262D01*
X47296Y-24947D01*
X47225Y-25018D01*
X47225Y-24877D01*
X46910Y-24561D01*
X46814Y-24589D01*
X46741Y-24795D01*
X46752Y-25013D01*
X46814Y-25164D01*
X46910Y-25192D01*
X47225Y-24877D01*
X47225Y-25018D01*
X46980Y-25262D01*
X47008Y-25358D01*
X47056Y-25375D01*
X47008Y-25395D01*
X46980Y-25491D01*
X47296Y-25806D01*
X47611Y-25491D01*
X47611Y-25632D01*
X47366Y-25877D01*
X47681Y-26192D01*
X47777Y-26164D01*
X47796Y-26109D01*
X47829Y-26188D01*
X47984Y-26342D01*
X48065Y-26376D01*
X47984Y-26410D01*
X47830Y-26565D01*
X47798Y-26640D01*
X47777Y-26589D01*
X47681Y-26561D01*
X47611Y-26632D01*
X47611Y-26491D01*
X47583Y-26395D01*
X47535Y-26378D01*
X47583Y-26358D01*
X47611Y-26262D01*
X47296Y-25947D01*
X47225Y-26018D01*
X47225Y-25877D01*
X46910Y-25561D01*
X46814Y-25589D01*
X46741Y-25795D01*
X46752Y-26013D01*
X46814Y-26164D01*
X46910Y-26192D01*
X47225Y-25877D01*
X47225Y-26018D01*
X46980Y-26262D01*
X47008Y-26358D01*
X47056Y-26375D01*
X47008Y-26395D01*
X46980Y-26491D01*
X47296Y-26806D01*
X47611Y-26491D01*
X47611Y-26632D01*
X47366Y-26877D01*
X47681Y-27192D01*
X47777Y-27164D01*
X47796Y-27109D01*
X47829Y-27188D01*
X47984Y-27342D01*
X48065Y-27376D01*
X47984Y-27410D01*
X47830Y-27565D01*
X47798Y-27640D01*
X47777Y-27589D01*
X47681Y-27561D01*
X47611Y-27632D01*
X47611Y-27491D01*
X47583Y-27395D01*
X47535Y-27378D01*
X47583Y-27358D01*
X47611Y-27262D01*
X47296Y-26947D01*
X47225Y-27018D01*
X47225Y-26877D01*
X46910Y-26561D01*
X46814Y-26589D01*
X46741Y-26795D01*
X46752Y-27013D01*
X46814Y-27164D01*
X46910Y-27192D01*
X47225Y-26877D01*
X47225Y-27018D01*
X46980Y-27262D01*
X47008Y-27358D01*
X47056Y-27375D01*
X47008Y-27395D01*
X46980Y-27491D01*
X47296Y-27806D01*
X47611Y-27491D01*
X47611Y-27632D01*
X47366Y-27877D01*
X47681Y-28192D01*
X47777Y-28164D01*
X47796Y-28109D01*
X47829Y-28188D01*
X47968Y-28326D01*
X47946Y-28326D01*
X47854Y-28364D01*
X47784Y-28435D01*
X47746Y-28527D01*
X47745Y-28580D01*
X47681Y-28561D01*
X47611Y-28632D01*
X47611Y-28491D01*
X47583Y-28395D01*
X47535Y-28378D01*
X47583Y-28358D01*
X47611Y-28262D01*
X47296Y-27947D01*
X47225Y-28018D01*
X47225Y-27877D01*
X46910Y-27561D01*
X46814Y-27589D01*
X46741Y-27795D01*
X46752Y-28013D01*
X46814Y-28164D01*
X46910Y-28192D01*
X47225Y-27877D01*
X47225Y-28018D01*
X46980Y-28262D01*
X47008Y-28358D01*
X47056Y-28375D01*
X47008Y-28395D01*
X46980Y-28491D01*
X47296Y-28806D01*
X47611Y-28491D01*
X47611Y-28632D01*
X47366Y-28877D01*
X47681Y-29192D01*
X47745Y-29173D01*
X47745Y-29226D01*
X47783Y-29318D01*
X47854Y-29388D01*
X47946Y-29426D01*
X48045Y-29427D01*
X48561Y-29427D01*
X48561Y-30510D01*
X48561Y-30510D01*
G37*
G54D18*
X48561Y-30510D02*
X48213Y-30162D01*
X47756Y-29972D01*
X47611Y-29972D01*
X47611Y-29262D01*
X47296Y-28947D01*
X47225Y-29018D01*
X47225Y-28877D01*
X46910Y-28561D01*
X46814Y-28589D01*
X46741Y-28795D01*
X46752Y-29013D01*
X46814Y-29164D01*
X46910Y-29192D01*
X47225Y-28877D01*
X47225Y-29018D01*
X46980Y-29262D01*
X47008Y-29358D01*
X47214Y-29431D01*
X47432Y-29420D01*
X47583Y-29358D01*
X47611Y-29262D01*
X47611Y-29972D01*
X47261Y-29971D01*
X46804Y-30160D01*
X46454Y-30510D01*
X46264Y-30967D01*
X46263Y-31462D01*
X46452Y-31919D01*
X46801Y-32269D01*
X46125Y-32269D01*
X46125Y-31076D01*
X46125Y-21840D01*
X46114Y-21622D01*
X46052Y-21471D01*
X45956Y-21443D01*
X45641Y-21759D01*
X45956Y-22074D01*
X46052Y-22046D01*
X46125Y-21840D01*
X46125Y-31076D01*
X46114Y-30858D01*
X46052Y-30707D01*
X45956Y-30679D01*
X45886Y-30750D01*
X45886Y-30609D01*
X45886Y-22144D01*
X45571Y-21829D01*
X45500Y-21900D01*
X45500Y-21759D01*
X45185Y-21443D01*
X45089Y-21471D01*
X45072Y-21519D01*
X45052Y-21471D01*
X44956Y-21443D01*
X44641Y-21759D01*
X44956Y-22074D01*
X45052Y-22046D01*
X45069Y-21998D01*
X45089Y-22046D01*
X45185Y-22074D01*
X45500Y-21759D01*
X45500Y-21900D01*
X45255Y-22144D01*
X45283Y-22240D01*
X45489Y-22313D01*
X45707Y-22302D01*
X45858Y-22240D01*
X45886Y-22144D01*
X45886Y-30609D01*
X45858Y-30513D01*
X45652Y-30440D01*
X45434Y-30451D01*
X45283Y-30513D01*
X45255Y-30609D01*
X45571Y-30924D01*
X45886Y-30609D01*
X45886Y-30750D01*
X45641Y-30995D01*
X45956Y-31310D01*
X46052Y-31282D01*
X46125Y-31076D01*
X46125Y-32269D01*
X46052Y-32269D01*
X46120Y-32104D01*
X46121Y-31886D01*
X46037Y-31683D01*
X45882Y-31529D01*
X45807Y-31497D01*
X45858Y-31476D01*
X45886Y-31380D01*
X45571Y-31065D01*
X45500Y-31136D01*
X45500Y-30995D01*
X45185Y-30679D01*
X45089Y-30707D01*
X45072Y-30755D01*
X45052Y-30707D01*
X44956Y-30679D01*
X44886Y-30750D01*
X44886Y-30609D01*
X44858Y-30513D01*
X44652Y-30440D01*
X44434Y-30451D01*
X44283Y-30513D01*
X44255Y-30609D01*
X44571Y-30924D01*
X44886Y-30609D01*
X44886Y-30750D01*
X44641Y-30995D01*
X44956Y-31310D01*
X45052Y-31282D01*
X45069Y-31234D01*
X45089Y-31282D01*
X45185Y-31310D01*
X45500Y-30995D01*
X45500Y-31136D01*
X45255Y-31380D01*
X45283Y-31476D01*
X45338Y-31495D01*
X45259Y-31528D01*
X45105Y-31683D01*
X45071Y-31764D01*
X45037Y-31683D01*
X44882Y-31529D01*
X44807Y-31497D01*
X44858Y-31476D01*
X44886Y-31380D01*
X44571Y-31065D01*
X44500Y-31136D01*
X44500Y-30995D01*
X44185Y-30679D01*
X44089Y-30707D01*
X44072Y-30755D01*
X44052Y-30707D01*
X43956Y-30679D01*
X43886Y-30750D01*
X43886Y-30609D01*
X43858Y-30513D01*
X43652Y-30440D01*
X43434Y-30451D01*
X43283Y-30513D01*
X43255Y-30609D01*
X43571Y-30924D01*
X43886Y-30609D01*
X43886Y-30750D01*
X43641Y-30995D01*
X43956Y-31310D01*
X44052Y-31282D01*
X44069Y-31234D01*
X44089Y-31282D01*
X44185Y-31310D01*
X44500Y-30995D01*
X44500Y-31136D01*
X44255Y-31380D01*
X44283Y-31476D01*
X44338Y-31495D01*
X44259Y-31528D01*
X44105Y-31683D01*
X44071Y-31764D01*
X44037Y-31683D01*
X43882Y-31529D01*
X43807Y-31497D01*
X43858Y-31476D01*
X43886Y-31380D01*
X43571Y-31065D01*
X43500Y-31136D01*
X43500Y-30995D01*
X43185Y-30679D01*
X43089Y-30707D01*
X43072Y-30755D01*
X43052Y-30707D01*
X42956Y-30679D01*
X42886Y-30750D01*
X42886Y-30609D01*
X42858Y-30513D01*
X42652Y-30440D01*
X42434Y-30451D01*
X42283Y-30513D01*
X42255Y-30609D01*
X42571Y-30924D01*
X42886Y-30609D01*
X42886Y-30750D01*
X42641Y-30995D01*
X42956Y-31310D01*
X43052Y-31282D01*
X43069Y-31234D01*
X43089Y-31282D01*
X43185Y-31310D01*
X43500Y-30995D01*
X43500Y-31136D01*
X43255Y-31380D01*
X43283Y-31476D01*
X43338Y-31495D01*
X43259Y-31528D01*
X43105Y-31683D01*
X43071Y-31764D01*
X43037Y-31683D01*
X42882Y-31529D01*
X42807Y-31497D01*
X42858Y-31476D01*
X42886Y-31380D01*
X42571Y-31065D01*
X42500Y-31136D01*
X42500Y-30995D01*
X42185Y-30679D01*
X42089Y-30707D01*
X42072Y-30755D01*
X42052Y-30707D01*
X41956Y-30679D01*
X41886Y-30750D01*
X41886Y-30609D01*
X41858Y-30513D01*
X41652Y-30440D01*
X41434Y-30451D01*
X41283Y-30513D01*
X41255Y-30609D01*
X41571Y-30924D01*
X41886Y-30609D01*
X41886Y-30750D01*
X41641Y-30995D01*
X41956Y-31310D01*
X42052Y-31282D01*
X42069Y-31234D01*
X42089Y-31282D01*
X42185Y-31310D01*
X42500Y-30995D01*
X42500Y-31136D01*
X42255Y-31380D01*
X42283Y-31476D01*
X42338Y-31495D01*
X42259Y-31528D01*
X42105Y-31683D01*
X42071Y-31764D01*
X42037Y-31683D01*
X41882Y-31529D01*
X41807Y-31497D01*
X41858Y-31476D01*
X41886Y-31380D01*
X41571Y-31065D01*
X41500Y-31136D01*
X41500Y-30995D01*
X41185Y-30679D01*
X41089Y-30707D01*
X41072Y-30755D01*
X41052Y-30707D01*
X40956Y-30679D01*
X40886Y-30750D01*
X40886Y-30609D01*
X40858Y-30513D01*
X40652Y-30440D01*
X40434Y-30451D01*
X40283Y-30513D01*
X40255Y-30609D01*
X40571Y-30924D01*
X40886Y-30609D01*
X40886Y-30750D01*
X40641Y-30995D01*
X40956Y-31310D01*
X41052Y-31282D01*
X41069Y-31234D01*
X41089Y-31282D01*
X41185Y-31310D01*
X41500Y-30995D01*
X41500Y-31136D01*
X41255Y-31380D01*
X41283Y-31476D01*
X41338Y-31495D01*
X41259Y-31528D01*
X41121Y-31667D01*
X41121Y-31645D01*
X41083Y-31553D01*
X41012Y-31483D01*
X40920Y-31445D01*
X40867Y-31444D01*
X40886Y-31380D01*
X40571Y-31065D01*
X40255Y-31380D01*
X40274Y-31444D01*
X40221Y-31444D01*
X40129Y-31482D01*
X40122Y-31489D01*
X40033Y-31400D01*
X40033Y-31146D01*
X40089Y-31282D01*
X40185Y-31310D01*
X40500Y-30995D01*
X40185Y-30679D01*
X40089Y-30707D01*
X40033Y-30864D01*
X40033Y-28992D01*
X40205Y-29064D01*
X40338Y-29064D01*
X41179Y-29905D01*
X41179Y-29905D01*
X41282Y-29974D01*
X41404Y-29998D01*
X41405Y-29998D01*
X44320Y-29998D01*
X44320Y-29998D01*
X44442Y-29974D01*
X44442Y-29974D01*
X44545Y-29905D01*
X44977Y-29473D01*
X44977Y-29473D01*
X45012Y-29421D01*
X45046Y-29370D01*
X45046Y-29370D01*
X45070Y-29248D01*
X45070Y-29248D01*
X45070Y-28789D01*
X45124Y-28735D01*
X45199Y-28557D01*
X45199Y-28363D01*
X45125Y-28184D01*
X44988Y-28048D01*
X44886Y-28005D01*
X44886Y-22144D01*
X44571Y-21829D01*
X44500Y-21900D01*
X44500Y-21759D01*
X44185Y-21443D01*
X44089Y-21471D01*
X44072Y-21519D01*
X44052Y-21471D01*
X43956Y-21443D01*
X43641Y-21759D01*
X43956Y-22074D01*
X44052Y-22046D01*
X44069Y-21998D01*
X44089Y-22046D01*
X44185Y-22074D01*
X44500Y-21759D01*
X44500Y-21900D01*
X44255Y-22144D01*
X44283Y-22240D01*
X44489Y-22313D01*
X44707Y-22302D01*
X44858Y-22240D01*
X44886Y-22144D01*
X44886Y-28005D01*
X44810Y-27973D01*
X44616Y-27973D01*
X44437Y-28047D01*
X44301Y-28184D01*
X44226Y-28362D01*
X44226Y-28556D01*
X44300Y-28735D01*
X44342Y-28776D01*
X44221Y-28726D01*
X44027Y-28726D01*
X43886Y-28784D01*
X43886Y-22144D01*
X43571Y-21829D01*
X43500Y-21900D01*
X43500Y-21759D01*
X43185Y-21443D01*
X43089Y-21471D01*
X43072Y-21519D01*
X43052Y-21471D01*
X42956Y-21443D01*
X42641Y-21759D01*
X42956Y-22074D01*
X43052Y-22046D01*
X43069Y-21998D01*
X43089Y-22046D01*
X43185Y-22074D01*
X43500Y-21759D01*
X43500Y-21900D01*
X43255Y-22144D01*
X43283Y-22240D01*
X43489Y-22313D01*
X43707Y-22302D01*
X43858Y-22240D01*
X43886Y-22144D01*
X43886Y-28784D01*
X43848Y-28800D01*
X43781Y-28867D01*
X43781Y-25213D01*
X43707Y-25034D01*
X43570Y-24898D01*
X43392Y-24823D01*
X43259Y-24823D01*
X42886Y-24450D01*
X42886Y-22144D01*
X42571Y-21829D01*
X42500Y-21900D01*
X42500Y-21759D01*
X42185Y-21443D01*
X42089Y-21471D01*
X42072Y-21519D01*
X42052Y-21471D01*
X41956Y-21443D01*
X41641Y-21759D01*
X41956Y-22074D01*
X42052Y-22046D01*
X42069Y-21998D01*
X42089Y-22046D01*
X42185Y-22074D01*
X42500Y-21759D01*
X42500Y-21900D01*
X42255Y-22144D01*
X42283Y-22240D01*
X42489Y-22313D01*
X42707Y-22302D01*
X42858Y-22240D01*
X42886Y-22144D01*
X42886Y-24450D01*
X42575Y-24139D01*
X42572Y-24137D01*
X42572Y-22698D01*
X42499Y-22520D01*
X42362Y-22383D01*
X42183Y-22309D01*
X41990Y-22308D01*
X41886Y-22351D01*
X41886Y-22144D01*
X41571Y-21829D01*
X41255Y-22144D01*
X41283Y-22240D01*
X41489Y-22313D01*
X41707Y-22302D01*
X41858Y-22240D01*
X41886Y-22144D01*
X41886Y-22351D01*
X41832Y-22374D01*
X41775Y-22374D01*
X40886Y-22374D01*
X40886Y-22144D01*
X40571Y-21829D01*
X40255Y-22144D01*
X40283Y-22240D01*
X40489Y-22313D01*
X40707Y-22302D01*
X40858Y-22240D01*
X40886Y-22144D01*
X40886Y-22374D01*
X39883Y-22374D01*
X39883Y-22261D01*
X39809Y-22082D01*
X39672Y-21946D01*
X39494Y-21871D01*
X39300Y-21871D01*
X39121Y-21945D01*
X38985Y-22082D01*
X38910Y-22260D01*
X38910Y-22454D01*
X38984Y-22633D01*
X39121Y-22769D01*
X39299Y-22844D01*
X39432Y-22844D01*
X39506Y-22918D01*
X39506Y-22918D01*
X39558Y-22953D01*
X39609Y-22987D01*
X39609Y-22987D01*
X39732Y-23011D01*
X41650Y-23011D01*
X41674Y-23070D01*
X41810Y-23207D01*
X41989Y-23281D01*
X42182Y-23281D01*
X42361Y-23207D01*
X42498Y-23071D01*
X42572Y-22892D01*
X42572Y-22698D01*
X42572Y-24137D01*
X42472Y-24070D01*
X42350Y-24046D01*
X37453Y-24046D01*
X37330Y-24070D01*
X37279Y-24104D01*
X37227Y-24139D01*
X36901Y-24465D01*
X36718Y-24464D01*
X36523Y-24545D01*
X36373Y-24694D01*
X36293Y-24889D01*
X36292Y-25022D01*
X34597Y-23327D01*
X34597Y-21821D01*
X34676Y-21742D01*
X34808Y-21742D01*
X34987Y-21668D01*
X35123Y-21531D01*
X35198Y-21353D01*
X35198Y-21159D01*
X35124Y-20980D01*
X34987Y-20844D01*
X34809Y-20769D01*
X34615Y-20769D01*
X34436Y-20843D01*
X34300Y-20980D01*
X34225Y-21158D01*
X34225Y-21291D01*
X34053Y-21463D01*
X33984Y-21566D01*
X33960Y-21689D01*
X33960Y-23460D01*
X33984Y-23582D01*
X34053Y-23685D01*
X36337Y-25969D01*
X36337Y-25969D01*
X36440Y-26038D01*
X36562Y-26062D01*
X36563Y-26062D01*
X39225Y-26062D01*
X40746Y-27583D01*
X40746Y-27583D01*
X40798Y-27618D01*
X40849Y-27652D01*
X40849Y-27652D01*
X40972Y-27676D01*
X41524Y-27676D01*
X41563Y-27676D01*
X42651Y-27676D01*
X42744Y-27769D01*
X42922Y-27844D01*
X43116Y-27844D01*
X43295Y-27770D01*
X43431Y-27633D01*
X43506Y-27455D01*
X43506Y-27261D01*
X43432Y-27082D01*
X43295Y-26946D01*
X43117Y-26871D01*
X42923Y-26871D01*
X42744Y-26945D01*
X42651Y-27039D01*
X41563Y-27039D01*
X41524Y-27039D01*
X41104Y-27039D01*
X39655Y-25590D01*
X41976Y-25590D01*
X42008Y-25668D01*
X42145Y-25805D01*
X42324Y-25879D01*
X42517Y-25880D01*
X42696Y-25806D01*
X42833Y-25669D01*
X42875Y-25567D01*
X42882Y-25585D01*
X43019Y-25721D01*
X43197Y-25796D01*
X43391Y-25796D01*
X43570Y-25722D01*
X43706Y-25585D01*
X43781Y-25407D01*
X43781Y-25213D01*
X43781Y-28867D01*
X43755Y-28892D01*
X41656Y-28889D01*
X40789Y-28022D01*
X40789Y-27891D01*
X40715Y-27712D01*
X40578Y-27576D01*
X40400Y-27501D01*
X40206Y-27501D01*
X40200Y-27504D01*
X40200Y-27393D01*
X40127Y-27215D01*
X39990Y-27078D01*
X39811Y-27004D01*
X39618Y-27003D01*
X39439Y-27077D01*
X39302Y-27214D01*
X39228Y-27393D01*
X39228Y-27586D01*
X39302Y-27765D01*
X39395Y-27858D01*
X39395Y-31532D01*
X39419Y-31654D01*
X39489Y-31758D01*
X39951Y-32220D01*
X39951Y-32220D01*
X40020Y-32266D01*
X40020Y-32269D01*
X38309Y-32269D01*
X38309Y-28481D01*
X38235Y-28302D01*
X38098Y-28166D01*
X37920Y-28091D01*
X37726Y-28091D01*
X37547Y-28165D01*
X37411Y-28302D01*
X37347Y-28456D01*
X37128Y-28456D01*
X37035Y-28363D01*
X36857Y-28288D01*
X36663Y-28288D01*
X36484Y-28362D01*
X36348Y-28499D01*
X36273Y-28677D01*
X36273Y-28871D01*
X36347Y-29050D01*
X36484Y-29186D01*
X36662Y-29261D01*
X36856Y-29261D01*
X37035Y-29187D01*
X37128Y-29093D01*
X37626Y-29093D01*
X37626Y-29093D01*
X37748Y-29069D01*
X37748Y-29069D01*
X37756Y-29064D01*
X37756Y-29064D01*
X37919Y-29064D01*
X38098Y-28990D01*
X38234Y-28853D01*
X38309Y-28675D01*
X38309Y-28481D01*
X38309Y-32269D01*
X32071Y-32269D01*
X32419Y-31921D01*
X32609Y-31464D01*
X32610Y-30969D01*
X32421Y-30512D01*
X32147Y-30237D01*
X32147Y-27076D01*
X32147Y-25344D01*
X32082Y-25187D01*
X31962Y-25067D01*
X31805Y-25002D01*
X31635Y-25001D01*
X31478Y-25066D01*
X31358Y-25186D01*
X31293Y-25343D01*
X31292Y-25513D01*
X31357Y-25670D01*
X31477Y-25790D01*
X31634Y-25855D01*
X31804Y-25856D01*
X31961Y-25791D01*
X32081Y-25671D01*
X32146Y-25514D01*
X32147Y-25344D01*
X32147Y-27076D01*
X32082Y-26919D01*
X31962Y-26799D01*
X31805Y-26734D01*
X31635Y-26733D01*
X31478Y-26798D01*
X31358Y-26918D01*
X31293Y-27075D01*
X31292Y-27245D01*
X31357Y-27402D01*
X31477Y-27522D01*
X31634Y-27587D01*
X31804Y-27588D01*
X31961Y-27523D01*
X32081Y-27403D01*
X32146Y-27246D01*
X32147Y-27076D01*
X32147Y-30237D01*
X32071Y-30162D01*
X31614Y-29972D01*
X31119Y-29971D01*
X30662Y-30160D01*
X30313Y-30509D01*
X30313Y-22079D01*
X30660Y-22427D01*
X31117Y-22617D01*
X31612Y-22618D01*
X32069Y-22429D01*
X32419Y-22079D01*
X32609Y-21622D01*
X32610Y-21127D01*
X32421Y-20670D01*
X32072Y-20321D01*
X40231Y-20321D01*
X40105Y-20447D01*
X40021Y-20649D01*
X40020Y-20867D01*
X40062Y-20968D01*
X39718Y-20968D01*
X39712Y-20962D01*
X39534Y-20887D01*
X39340Y-20887D01*
X39161Y-20961D01*
X39025Y-21098D01*
X38950Y-21276D01*
X38950Y-21470D01*
X39024Y-21649D01*
X39161Y-21785D01*
X39339Y-21860D01*
X39533Y-21860D01*
X39712Y-21786D01*
X39848Y-21649D01*
X39867Y-21605D01*
X40041Y-21605D01*
X40016Y-21677D01*
X40027Y-21895D01*
X40089Y-22046D01*
X40185Y-22074D01*
X40500Y-21759D01*
X40494Y-21753D01*
X40565Y-21682D01*
X40571Y-21688D01*
X40576Y-21682D01*
X40647Y-21753D01*
X40641Y-21759D01*
X40956Y-22074D01*
X41052Y-22046D01*
X41069Y-21998D01*
X41089Y-22046D01*
X41185Y-22074D01*
X41500Y-21759D01*
X41494Y-21753D01*
X41565Y-21682D01*
X41571Y-21688D01*
X41886Y-21373D01*
X41858Y-21277D01*
X41803Y-21258D01*
X41882Y-21225D01*
X42036Y-21070D01*
X42070Y-20989D01*
X42104Y-21070D01*
X42259Y-21224D01*
X42334Y-21256D01*
X42283Y-21277D01*
X42255Y-21373D01*
X42571Y-21688D01*
X42886Y-21373D01*
X42858Y-21277D01*
X42803Y-21258D01*
X42882Y-21225D01*
X43036Y-21070D01*
X43070Y-20989D01*
X43104Y-21070D01*
X43259Y-21224D01*
X43334Y-21256D01*
X43283Y-21277D01*
X43255Y-21373D01*
X43571Y-21688D01*
X43886Y-21373D01*
X43858Y-21277D01*
X43803Y-21258D01*
X43882Y-21225D01*
X44036Y-21070D01*
X44070Y-20989D01*
X44104Y-21070D01*
X44259Y-21224D01*
X44334Y-21256D01*
X44283Y-21277D01*
X44255Y-21373D01*
X44571Y-21688D01*
X44886Y-21373D01*
X44858Y-21277D01*
X44803Y-21258D01*
X44882Y-21225D01*
X45020Y-21086D01*
X45020Y-21108D01*
X45058Y-21200D01*
X45129Y-21270D01*
X45221Y-21308D01*
X45274Y-21309D01*
X45255Y-21373D01*
X45571Y-21688D01*
X45886Y-21373D01*
X45867Y-21309D01*
X45920Y-21309D01*
X46012Y-21271D01*
X46082Y-21200D01*
X46120Y-21108D01*
X46121Y-21009D01*
X46121Y-20409D01*
X46084Y-20321D01*
X46802Y-20321D01*
X46454Y-20668D01*
X46264Y-21125D01*
X46263Y-21620D01*
X46452Y-22077D01*
X46802Y-22427D01*
X47259Y-22617D01*
X47754Y-22618D01*
X48211Y-22429D01*
X48561Y-22080D01*
X48561Y-23391D01*
X48405Y-23327D01*
X48187Y-23326D01*
X47984Y-23410D01*
X47830Y-23565D01*
X47798Y-23640D01*
X47777Y-23589D01*
X47681Y-23561D01*
X47611Y-23632D01*
X47611Y-23491D01*
X47583Y-23395D01*
X47377Y-23322D01*
X47159Y-23333D01*
X47008Y-23395D01*
X46980Y-23491D01*
X47296Y-23806D01*
X47611Y-23491D01*
X47611Y-23632D01*
X47366Y-23877D01*
X47681Y-24192D01*
X47777Y-24164D01*
X47796Y-24109D01*
X47829Y-24188D01*
X47984Y-24342D01*
X48065Y-24376D01*
X47984Y-24410D01*
X47830Y-24565D01*
X47798Y-24640D01*
X47777Y-24589D01*
X47681Y-24561D01*
X47611Y-24632D01*
X47611Y-24491D01*
X47583Y-24395D01*
X47535Y-24378D01*
X47583Y-24358D01*
X47611Y-24262D01*
X47296Y-23947D01*
X47225Y-24018D01*
X47225Y-23877D01*
X46910Y-23561D01*
X46814Y-23589D01*
X46741Y-23795D01*
X46752Y-24013D01*
X46814Y-24164D01*
X46910Y-24192D01*
X47225Y-23877D01*
X47225Y-24018D01*
X46980Y-24262D01*
X47008Y-24358D01*
X47056Y-24375D01*
X47008Y-24395D01*
X46980Y-24491D01*
X47296Y-24806D01*
X47611Y-24491D01*
X47611Y-24632D01*
X47366Y-24877D01*
X47681Y-25192D01*
X47777Y-25164D01*
X47796Y-25109D01*
X47829Y-25188D01*
X47984Y-25342D01*
X48065Y-25376D01*
X47984Y-25410D01*
X47830Y-25565D01*
X47798Y-25640D01*
X47777Y-25589D01*
X47681Y-25561D01*
X47611Y-25632D01*
X47611Y-25491D01*
X47583Y-25395D01*
X47535Y-25378D01*
X47583Y-25358D01*
X47611Y-25262D01*
X47296Y-24947D01*
X47225Y-25018D01*
X47225Y-24877D01*
X46910Y-24561D01*
X46814Y-24589D01*
X46741Y-24795D01*
X46752Y-25013D01*
X46814Y-25164D01*
X46910Y-25192D01*
X47225Y-24877D01*
X47225Y-25018D01*
X46980Y-25262D01*
X47008Y-25358D01*
X47056Y-25375D01*
X47008Y-25395D01*
X46980Y-25491D01*
X47296Y-25806D01*
X47611Y-25491D01*
X47611Y-25632D01*
X47366Y-25877D01*
X47681Y-26192D01*
X47777Y-26164D01*
X47796Y-26109D01*
X47829Y-26188D01*
X47984Y-26342D01*
X48065Y-26376D01*
X47984Y-26410D01*
X47830Y-26565D01*
X47798Y-26640D01*
X47777Y-26589D01*
X47681Y-26561D01*
X47611Y-26632D01*
X47611Y-26491D01*
X47583Y-26395D01*
X47535Y-26378D01*
X47583Y-26358D01*
X47611Y-26262D01*
X47296Y-25947D01*
X47225Y-26018D01*
X47225Y-25877D01*
X46910Y-25561D01*
X46814Y-25589D01*
X46741Y-25795D01*
X46752Y-26013D01*
X46814Y-26164D01*
X46910Y-26192D01*
X47225Y-25877D01*
X47225Y-26018D01*
X46980Y-26262D01*
X47008Y-26358D01*
X47056Y-26375D01*
X47008Y-26395D01*
X46980Y-26491D01*
X47296Y-26806D01*
X47611Y-26491D01*
X47611Y-26632D01*
X47366Y-26877D01*
X47681Y-27192D01*
X47777Y-27164D01*
X47796Y-27109D01*
X47829Y-27188D01*
X47984Y-27342D01*
X48065Y-27376D01*
X47984Y-27410D01*
X47830Y-27565D01*
X47798Y-27640D01*
X47777Y-27589D01*
X47681Y-27561D01*
X47611Y-27632D01*
X47611Y-27491D01*
X47583Y-27395D01*
X47535Y-27378D01*
X47583Y-27358D01*
X47611Y-27262D01*
X47296Y-26947D01*
X47225Y-27018D01*
X47225Y-26877D01*
X46910Y-26561D01*
X46814Y-26589D01*
X46741Y-26795D01*
X46752Y-27013D01*
X46814Y-27164D01*
X46910Y-27192D01*
X47225Y-26877D01*
X47225Y-27018D01*
X46980Y-27262D01*
X47008Y-27358D01*
X47056Y-27375D01*
X47008Y-27395D01*
X46980Y-27491D01*
X47296Y-27806D01*
X47611Y-27491D01*
X47611Y-27632D01*
X47366Y-27877D01*
X47681Y-28192D01*
X47777Y-28164D01*
X47796Y-28109D01*
X47829Y-28188D01*
X47968Y-28326D01*
X47946Y-28326D01*
X47854Y-28364D01*
X47784Y-28435D01*
X47746Y-28527D01*
X47745Y-28580D01*
X47681Y-28561D01*
X47611Y-28632D01*
X47611Y-28491D01*
X47583Y-28395D01*
X47535Y-28378D01*
X47583Y-28358D01*
X47611Y-28262D01*
X47296Y-27947D01*
X47225Y-28018D01*
X47225Y-27877D01*
X46910Y-27561D01*
X46814Y-27589D01*
X46741Y-27795D01*
X46752Y-28013D01*
X46814Y-28164D01*
X46910Y-28192D01*
X47225Y-27877D01*
X47225Y-28018D01*
X46980Y-28262D01*
X47008Y-28358D01*
X47056Y-28375D01*
X47008Y-28395D01*
X46980Y-28491D01*
X47296Y-28806D01*
X47611Y-28491D01*
X47611Y-28632D01*
X47366Y-28877D01*
X47681Y-29192D01*
X47745Y-29173D01*
X47745Y-29226D01*
X47783Y-29318D01*
X47854Y-29388D01*
X47946Y-29426D01*
X48045Y-29427D01*
X48561Y-29427D01*
X48561Y-30510D01*
M02*
