G04 (created by PCBNEW (2013-07-24 BZR 4024)-stable) date Fri 24 Jul 2015 04:08:31 PM NZST*
%MOIN*%
G04 Gerber Fmt 3.4, Leading zero omitted, Abs format*
%FSLAX34Y34*%
G01*
G70*
G90*
G04 APERTURE LIST*
%ADD10C,0.005*%
%ADD11C,0.056*%
%ADD12R,0.06X0.06*%
%ADD13C,0.06*%
%ADD14C,0.16*%
%ADD15C,0.0354*%
G04 APERTURE END LIST*
G54D10*
G54D11*
X36823Y-24995D03*
X38823Y-24995D03*
G54D12*
X48296Y-28877D03*
G54D13*
X47296Y-28877D03*
X48296Y-27877D03*
X47296Y-27877D03*
X48296Y-26877D03*
X47296Y-26877D03*
X48296Y-25877D03*
X47296Y-25877D03*
X48296Y-24877D03*
X47296Y-24877D03*
X48296Y-23877D03*
X47296Y-23877D03*
G54D12*
X40571Y-31995D03*
G54D13*
X40571Y-30995D03*
X41571Y-31995D03*
X41571Y-30995D03*
X42571Y-31995D03*
X42571Y-30995D03*
X43571Y-31995D03*
X43571Y-30995D03*
X44571Y-31995D03*
X44571Y-30995D03*
X45571Y-31995D03*
X45571Y-30995D03*
G54D12*
X45571Y-20759D03*
G54D13*
X45571Y-21759D03*
X44571Y-20759D03*
X44571Y-21759D03*
X43571Y-20759D03*
X43571Y-21759D03*
X42571Y-20759D03*
X42571Y-21759D03*
X41571Y-20759D03*
X41571Y-21759D03*
X40571Y-20759D03*
X40571Y-21759D03*
G54D14*
X47508Y-31216D03*
X31366Y-21374D03*
X47508Y-21374D03*
X31366Y-31216D03*
G54D15*
X31720Y-27161D03*
X31720Y-25429D03*
M02*
