M48
<<<<<<< HEAD
METRIC,TZ
T1C0.600
T2C0.899
T3C1.016
T4C3.048
=======
; DRILL file {KiCad (5.1.10)-1} date 09/08/21 17:12:39
; FORMAT={-:-/ absolute / inch / decimal}
; #@! TF.CreationDate,2021-09-08T17:12:39+12:00
; #@! TF.GenerationSoftware,Kicad,Pcbnew,(5.1.10)-1
FMAT,2
INCH
T1C0.0236
T2C0.0354
T3C0.0394
T4C0.1200
>>>>>>> 2c74685 (Updated to KiCAD 7.0)
%
G90
G05
T1
<<<<<<< HEAD
X078169Y-058791
X078169Y-075291
X083670Y-080790
X084171Y-052789
X085369Y-071890
X085369Y-073490
X088168Y-053990
X088270Y-066589
X089670Y-052291
X093370Y-073089
X093530Y-063487
X096070Y-069088
X096070Y-072588
X096871Y-081191
X098610Y-063487
X100068Y-056789
X100170Y-054290
X100875Y-069825
X102370Y-071090
X102370Y-072588
X106900Y-057900
X107750Y-064500
X109271Y-069489
X109969Y-064287
X112075Y-074200
X113571Y-072288
T2
X080569Y-064590
X080569Y-068989
T3
X103050Y-052728
X103050Y-055268
X103050Y-078727
X103050Y-081267
X105590Y-052728
X105590Y-055268
X105590Y-078727
X105590Y-081267
X108130Y-052728
X108130Y-055268
X108130Y-078727
X108130Y-081267
X110670Y-052728
X110670Y-055268
X110670Y-078727
X110670Y-081267
X113210Y-052728
X113210Y-055268
X113210Y-078727
X113210Y-081267
X115750Y-052728
X115750Y-055268
X115750Y-078727
X115750Y-081267
X120132Y-060648
X120132Y-063188
X120132Y-065728
X120132Y-068268
X120132Y-070808
X120132Y-073348
X122672Y-060648
X122672Y-063188
X122672Y-065728
X122672Y-068268
X122672Y-070808
X122672Y-073348
T4
X079670Y-054290
X079670Y-079289
X120670Y-054290
X120670Y-079289
=======
X3.0775Y-2.3146
X3.0775Y-2.9642
X3.2941Y-3.1807
X3.3138Y-2.0783
X3.361Y-2.8303
X3.361Y-2.8933
X3.4712Y-2.1256
X3.4752Y-2.6216
X3.5303Y-2.0587
X3.676Y-2.8775
X3.6823Y-2.4995
X3.7823Y-2.72
X3.7823Y-2.8578
X3.8138Y-3.1965
X3.8823Y-2.4995
X3.9397Y-2.2358
X3.9437Y-2.1374
X3.9715Y-2.749
X4.0303Y-2.7988
X4.0303Y-2.8578
X4.2087Y-2.2795
X4.2421Y-2.5394
X4.302Y-2.7358
X4.3295Y-2.531
X4.4124Y-2.9213
X4.4713Y-2.846
T2
X3.172Y-2.5429
X3.172Y-2.7161
T3
X4.0571Y-2.0787
X4.0571Y-2.1787
X4.0571Y-3.0969
X4.0571Y-3.1969
X4.1571Y-2.0787
X4.1571Y-2.1787
X4.1571Y-3.0969
X4.1571Y-3.1969
X4.2571Y-2.0787
X4.2571Y-2.1787
X4.2571Y-3.0969
X4.2571Y-3.1969
X4.3571Y-2.0787
X4.3571Y-2.1787
X4.3571Y-3.0969
X4.3571Y-3.1969
X4.4571Y-2.0787
X4.4571Y-2.1787
X4.4571Y-3.0969
X4.4571Y-3.1969
X4.5571Y-2.0787
X4.5571Y-2.1787
X4.5571Y-3.0969
X4.5571Y-3.1969
X4.7287Y-2.3878
X4.7287Y-2.4878
X4.7287Y-2.5878
X4.7287Y-2.6878
X4.7287Y-2.7878
X4.7287Y-2.8878
X4.8287Y-2.3878
X4.8287Y-2.4878
X4.8287Y-2.5878
X4.8287Y-2.6878
X4.8287Y-2.7878
X4.8287Y-2.8878
T4
X3.1366Y-2.1374
X3.1366Y-3.1216
X4.7508Y-2.1374
X4.7508Y-3.1216
>>>>>>> 2c74685 (Updated to KiCAD 7.0)
T0
M30
