G04 (created by PCBNEW (2013-07-24 BZR 4024)-stable) date Fri 24 Jul 2015 04:08:31 PM NZST*
%MOIN*%
G04 Gerber Fmt 3.4, Leading zero omitted, Abs format*
%FSLAX34Y34*%
G01*
G70*
G90*
G04 APERTURE LIST*
%ADD10C,0.005*%
%ADD11C,0.012*%
%ADD12C,0.0079*%
G04 APERTURE END LIST*
G54D10*
G54D11*
X42258Y-26282D02*
X42258Y-26930D01*
X42286Y-27006D01*
X42315Y-27044D01*
X42372Y-27082D01*
X42458Y-27082D01*
X42515Y-27044D01*
X42258Y-26777D02*
X42315Y-26815D01*
X42429Y-26815D01*
X42486Y-26777D01*
X42515Y-26739D01*
X42543Y-26663D01*
X42543Y-26434D01*
X42515Y-26358D01*
X42486Y-26320D01*
X42429Y-26282D01*
X42315Y-26282D01*
X42258Y-26320D01*
X42001Y-26777D02*
X41915Y-26815D01*
X41772Y-26815D01*
X41715Y-26777D01*
X41686Y-26739D01*
X41658Y-26663D01*
X41658Y-26587D01*
X41686Y-26511D01*
X41715Y-26472D01*
X41772Y-26434D01*
X41886Y-26396D01*
X41943Y-26358D01*
X41972Y-26320D01*
X42001Y-26244D01*
X42001Y-26168D01*
X41972Y-26092D01*
X41943Y-26053D01*
X41886Y-26015D01*
X41743Y-26015D01*
X41658Y-26053D01*
X41458Y-26282D02*
X41343Y-26815D01*
X41229Y-26434D01*
X41115Y-26815D01*
X41001Y-26282D01*
X40772Y-26815D02*
X40772Y-26282D01*
X40772Y-26015D02*
X40801Y-26053D01*
X40772Y-26092D01*
X40743Y-26053D01*
X40772Y-26015D01*
X40772Y-26092D01*
X40572Y-26282D02*
X40343Y-26282D01*
X40486Y-26015D02*
X40486Y-26701D01*
X40458Y-26777D01*
X40401Y-26815D01*
X40343Y-26815D01*
X39886Y-26777D02*
X39943Y-26815D01*
X40058Y-26815D01*
X40115Y-26777D01*
X40143Y-26739D01*
X40172Y-26663D01*
X40172Y-26434D01*
X40143Y-26358D01*
X40115Y-26320D01*
X40058Y-26282D01*
X39943Y-26282D01*
X39886Y-26320D01*
X39629Y-26815D02*
X39629Y-26015D01*
X39372Y-26815D02*
X39372Y-26396D01*
X39401Y-26320D01*
X39458Y-26282D01*
X39543Y-26282D01*
X39601Y-26320D01*
X39629Y-26358D01*
X38772Y-26815D02*
X39115Y-26815D01*
X38943Y-26815D02*
X38943Y-26015D01*
X39001Y-26130D01*
X39058Y-26206D01*
X39115Y-26244D01*
X38429Y-26358D02*
X38486Y-26320D01*
X38515Y-26282D01*
X38543Y-26206D01*
X38543Y-26168D01*
X38515Y-26092D01*
X38486Y-26053D01*
X38429Y-26015D01*
X38315Y-26015D01*
X38258Y-26053D01*
X38229Y-26092D01*
X38201Y-26168D01*
X38201Y-26206D01*
X38229Y-26282D01*
X38258Y-26320D01*
X38315Y-26358D01*
X38429Y-26358D01*
X38486Y-26396D01*
X38515Y-26434D01*
X38543Y-26511D01*
X38543Y-26663D01*
X38515Y-26739D01*
X38486Y-26777D01*
X38429Y-26815D01*
X38315Y-26815D01*
X38258Y-26777D01*
X38229Y-26739D01*
X38201Y-26663D01*
X38201Y-26511D01*
X38229Y-26434D01*
X38258Y-26396D01*
X38315Y-26358D01*
X37543Y-26282D02*
X37401Y-26815D01*
X37258Y-26282D01*
X36715Y-26815D02*
X37058Y-26815D01*
X36886Y-26815D02*
X36886Y-26015D01*
X36943Y-26130D01*
X37000Y-26206D01*
X37058Y-26244D01*
X36458Y-26739D02*
X36429Y-26777D01*
X36458Y-26815D01*
X36486Y-26777D01*
X36458Y-26739D01*
X36458Y-26815D01*
X35858Y-26815D02*
X36200Y-26815D01*
X36029Y-26815D02*
X36029Y-26015D01*
X36086Y-26130D01*
X36143Y-26206D01*
X36200Y-26244D01*
G54D12*
X45918Y-30333D02*
X45918Y-29790D01*
X45702Y-30333D02*
X45702Y-30049D01*
X45726Y-29997D01*
X45774Y-29971D01*
X45846Y-29971D01*
X45894Y-29997D01*
X45918Y-30023D01*
X45534Y-29971D02*
X45342Y-29971D01*
X45462Y-29790D02*
X45462Y-30256D01*
X45438Y-30307D01*
X45390Y-30333D01*
X45342Y-30333D01*
X45246Y-29971D02*
X45054Y-29971D01*
X45174Y-29790D02*
X45174Y-30256D01*
X45150Y-30307D01*
X45102Y-30333D01*
X45054Y-30333D01*
X44886Y-29971D02*
X44886Y-30514D01*
X44886Y-29997D02*
X44838Y-29971D01*
X44742Y-29971D01*
X44694Y-29997D01*
X44670Y-30023D01*
X44646Y-30075D01*
X44646Y-30230D01*
X44670Y-30282D01*
X44694Y-30307D01*
X44742Y-30333D01*
X44838Y-30333D01*
X44886Y-30307D01*
X44430Y-30282D02*
X44406Y-30307D01*
X44430Y-30333D01*
X44454Y-30307D01*
X44430Y-30282D01*
X44430Y-30333D01*
X44430Y-29997D02*
X44406Y-30023D01*
X44430Y-30049D01*
X44454Y-30023D01*
X44430Y-29997D01*
X44430Y-30049D01*
X43830Y-29764D02*
X44262Y-30463D01*
X43302Y-29764D02*
X43734Y-30463D01*
X42918Y-29971D02*
X42918Y-30411D01*
X42942Y-30463D01*
X42966Y-30488D01*
X43014Y-30514D01*
X43086Y-30514D01*
X43134Y-30488D01*
X42918Y-30307D02*
X42966Y-30333D01*
X43062Y-30333D01*
X43110Y-30307D01*
X43134Y-30282D01*
X43158Y-30230D01*
X43158Y-30075D01*
X43134Y-30023D01*
X43110Y-29997D01*
X43062Y-29971D01*
X42966Y-29971D01*
X42918Y-29997D01*
X42702Y-30307D02*
X42654Y-30333D01*
X42558Y-30333D01*
X42510Y-30307D01*
X42486Y-30256D01*
X42486Y-30230D01*
X42510Y-30178D01*
X42558Y-30152D01*
X42630Y-30152D01*
X42678Y-30126D01*
X42702Y-30075D01*
X42702Y-30049D01*
X42678Y-29997D01*
X42630Y-29971D01*
X42558Y-29971D01*
X42510Y-29997D01*
X42318Y-29971D02*
X42222Y-30333D01*
X42126Y-30075D01*
X42030Y-30333D01*
X41934Y-29971D01*
X41742Y-30333D02*
X41742Y-29971D01*
X41742Y-29790D02*
X41766Y-29816D01*
X41742Y-29842D01*
X41718Y-29816D01*
X41742Y-29790D01*
X41742Y-29842D01*
X41574Y-29971D02*
X41382Y-29971D01*
X41502Y-29790D02*
X41502Y-30256D01*
X41478Y-30307D01*
X41430Y-30333D01*
X41382Y-30333D01*
X40998Y-30307D02*
X41046Y-30333D01*
X41142Y-30333D01*
X41190Y-30307D01*
X41214Y-30282D01*
X41238Y-30230D01*
X41238Y-30075D01*
X41214Y-30023D01*
X41190Y-29997D01*
X41142Y-29971D01*
X41046Y-29971D01*
X40998Y-29997D01*
X40782Y-30333D02*
X40782Y-29790D01*
X40566Y-30333D02*
X40566Y-30049D01*
X40590Y-29997D01*
X40638Y-29971D01*
X40710Y-29971D01*
X40758Y-29997D01*
X40782Y-30023D01*
X40062Y-30333D02*
X40350Y-30333D01*
X40206Y-30333D02*
X40206Y-29790D01*
X40254Y-29868D01*
X40302Y-29920D01*
X40350Y-29945D01*
X39774Y-30023D02*
X39822Y-29997D01*
X39846Y-29971D01*
X39870Y-29920D01*
X39870Y-29894D01*
X39846Y-29842D01*
X39822Y-29816D01*
X39774Y-29790D01*
X39678Y-29790D01*
X39630Y-29816D01*
X39606Y-29842D01*
X39582Y-29894D01*
X39582Y-29920D01*
X39606Y-29971D01*
X39630Y-29997D01*
X39678Y-30023D01*
X39774Y-30023D01*
X39822Y-30049D01*
X39846Y-30075D01*
X39870Y-30126D01*
X39870Y-30230D01*
X39846Y-30282D01*
X39822Y-30307D01*
X39774Y-30333D01*
X39678Y-30333D01*
X39630Y-30307D01*
X39606Y-30282D01*
X39582Y-30230D01*
X39582Y-30126D01*
X39606Y-30075D01*
X39630Y-30049D01*
X39678Y-30023D01*
X39366Y-30282D02*
X39342Y-30307D01*
X39366Y-30333D01*
X39390Y-30307D01*
X39366Y-30282D01*
X39366Y-30333D01*
X38910Y-29971D02*
X38910Y-30411D01*
X38934Y-30463D01*
X38958Y-30488D01*
X39006Y-30514D01*
X39078Y-30514D01*
X39126Y-30488D01*
X38910Y-30307D02*
X38958Y-30333D01*
X39054Y-30333D01*
X39102Y-30307D01*
X39126Y-30282D01*
X39150Y-30230D01*
X39150Y-30075D01*
X39126Y-30023D01*
X39102Y-29997D01*
X39054Y-29971D01*
X38958Y-29971D01*
X38910Y-29997D01*
X38598Y-30333D02*
X38646Y-30307D01*
X38670Y-30282D01*
X38694Y-30230D01*
X38694Y-30075D01*
X38670Y-30023D01*
X38646Y-29997D01*
X38598Y-29971D01*
X38526Y-29971D01*
X38478Y-29997D01*
X38454Y-30023D01*
X38430Y-30075D01*
X38430Y-30230D01*
X38454Y-30282D01*
X38478Y-30307D01*
X38526Y-30333D01*
X38598Y-30333D01*
X38142Y-30333D02*
X38190Y-30307D01*
X38214Y-30282D01*
X38238Y-30230D01*
X38238Y-30075D01*
X38214Y-30023D01*
X38190Y-29997D01*
X38142Y-29971D01*
X38070Y-29971D01*
X38022Y-29997D01*
X37998Y-30023D01*
X37974Y-30075D01*
X37974Y-30230D01*
X37998Y-30282D01*
X38022Y-30307D01*
X38070Y-30333D01*
X38142Y-30333D01*
X37542Y-29971D02*
X37542Y-30411D01*
X37566Y-30463D01*
X37590Y-30488D01*
X37638Y-30514D01*
X37710Y-30514D01*
X37758Y-30488D01*
X37542Y-30307D02*
X37590Y-30333D01*
X37686Y-30333D01*
X37734Y-30307D01*
X37758Y-30282D01*
X37782Y-30230D01*
X37782Y-30075D01*
X37758Y-30023D01*
X37734Y-29997D01*
X37686Y-29971D01*
X37590Y-29971D01*
X37542Y-29997D01*
X37230Y-30333D02*
X37278Y-30307D01*
X37302Y-30256D01*
X37302Y-29790D01*
X36846Y-30307D02*
X36894Y-30333D01*
X36990Y-30333D01*
X37038Y-30307D01*
X37062Y-30256D01*
X37062Y-30049D01*
X37038Y-29997D01*
X36990Y-29971D01*
X36894Y-29971D01*
X36846Y-29997D01*
X36822Y-30049D01*
X36822Y-30101D01*
X37062Y-30152D01*
X36390Y-30307D02*
X36438Y-30333D01*
X36534Y-30333D01*
X36582Y-30307D01*
X36606Y-30282D01*
X36630Y-30230D01*
X36630Y-30075D01*
X36606Y-30023D01*
X36582Y-29997D01*
X36534Y-29971D01*
X36438Y-29971D01*
X36390Y-29997D01*
X36102Y-30333D02*
X36150Y-30307D01*
X36174Y-30282D01*
X36198Y-30230D01*
X36198Y-30075D01*
X36174Y-30023D01*
X36150Y-29997D01*
X36102Y-29971D01*
X36030Y-29971D01*
X35982Y-29997D01*
X35958Y-30023D01*
X35934Y-30075D01*
X35934Y-30230D01*
X35958Y-30282D01*
X35982Y-30307D01*
X36030Y-30333D01*
X36102Y-30333D01*
X35502Y-30333D02*
X35502Y-29790D01*
X35502Y-30307D02*
X35550Y-30333D01*
X35646Y-30333D01*
X35694Y-30307D01*
X35718Y-30282D01*
X35742Y-30230D01*
X35742Y-30075D01*
X35718Y-30023D01*
X35694Y-29997D01*
X35646Y-29971D01*
X35550Y-29971D01*
X35502Y-29997D01*
X35070Y-30307D02*
X35118Y-30333D01*
X35214Y-30333D01*
X35262Y-30307D01*
X35286Y-30256D01*
X35286Y-30049D01*
X35262Y-29997D01*
X35214Y-29971D01*
X35118Y-29971D01*
X35070Y-29997D01*
X35046Y-30049D01*
X35046Y-30101D01*
X35286Y-30152D01*
X34830Y-30282D02*
X34806Y-30307D01*
X34830Y-30333D01*
X34854Y-30307D01*
X34830Y-30282D01*
X34830Y-30333D01*
X34374Y-30307D02*
X34422Y-30333D01*
X34518Y-30333D01*
X34566Y-30307D01*
X34590Y-30282D01*
X34614Y-30230D01*
X34614Y-30075D01*
X34590Y-30023D01*
X34566Y-29997D01*
X34518Y-29971D01*
X34422Y-29971D01*
X34374Y-29997D01*
X34086Y-30333D02*
X34134Y-30307D01*
X34158Y-30282D01*
X34182Y-30230D01*
X34182Y-30075D01*
X34158Y-30023D01*
X34134Y-29997D01*
X34086Y-29971D01*
X34014Y-29971D01*
X33966Y-29997D01*
X33942Y-30023D01*
X33918Y-30075D01*
X33918Y-30230D01*
X33942Y-30282D01*
X33966Y-30307D01*
X34014Y-30333D01*
X34086Y-30333D01*
X33702Y-30333D02*
X33702Y-29971D01*
X33702Y-30023D02*
X33678Y-29997D01*
X33630Y-29971D01*
X33558Y-29971D01*
X33510Y-29997D01*
X33486Y-30049D01*
X33486Y-30333D01*
X33486Y-30049D02*
X33462Y-29997D01*
X33414Y-29971D01*
X33342Y-29971D01*
X33294Y-29997D01*
X33270Y-30049D01*
X33270Y-30333D01*
M02*
