%TF.GenerationSoftware,KiCad,Pcbnew,(6.0.4-0)*%
%TF.CreationDate,2022-04-28T06:59:34+12:00*%
%TF.ProjectId,gswitch18,67737769-7463-4683-9138-2e6b69636164,1.2*%
%TF.SameCoordinates,PX487ab00PY3072580*%
%TF.FileFunction,Paste,Top*%
%TF.FilePolarity,Positive*%
%FSLAX46Y46*%
G04 Gerber Fmt 4.6, Leading zero omitted, Abs format (unit mm)*
G04 Created by KiCad (PCBNEW (6.0.4-0)) date 2022-04-28 06:59:34*
%MOMM*%
%LPD*%
G01*
G04 APERTURE LIST*
G04 Aperture macros list*
%AMRoundRect*
0 Rectangle with rounded corners*
0 $1 Rounding radius*
0 $2 $3 $4 $5 $6 $7 $8 $9 X,Y pos of 4 corners*
0 Add a 4 corners polygon primitive as box body*
4,1,4,$2,$3,$4,$5,$6,$7,$8,$9,$2,$3,0*
0 Add four circle primitives for the rounded corners*
1,1,$1+$1,$2,$3*
1,1,$1+$1,$4,$5*
1,1,$1+$1,$6,$7*
1,1,$1+$1,$8,$9*
0 Add four rect primitives between the rounded corners*
20,1,$1+$1,$2,$3,$4,$5,0*
20,1,$1+$1,$4,$5,$6,$7,0*
20,1,$1+$1,$6,$7,$8,$9,0*
20,1,$1+$1,$8,$9,$2,$3,0*%
G04 Aperture macros list end*
%ADD10R,1.600000X0.550000*%
%ADD11R,0.550000X1.600000*%
%ADD12RoundRect,0.250000X0.650000X-0.325000X0.650000X0.325000X-0.650000X0.325000X-0.650000X-0.325000X0*%
%ADD13RoundRect,0.225000X-0.225000X-0.250000X0.225000X-0.250000X0.225000X0.250000X-0.225000X0.250000X0*%
%ADD14RoundRect,0.225000X0.250000X-0.225000X0.250000X0.225000X-0.250000X0.225000X-0.250000X-0.225000X0*%
%ADD15RoundRect,0.225000X-0.250000X0.225000X-0.250000X-0.225000X0.250000X-0.225000X0.250000X0.225000X0*%
%ADD16R,0.600000X0.700000*%
%ADD17RoundRect,0.200000X0.200000X0.275000X-0.200000X0.275000X-0.200000X-0.275000X0.200000X-0.275000X0*%
%ADD18RoundRect,0.200000X-0.200000X-0.275000X0.200000X-0.275000X0.200000X0.275000X-0.200000X0.275000X0*%
%ADD19R,1.700000X1.700000*%
%ADD20O,1.700000X1.700000*%
%ADD21R,1.400000X1.200000*%
%ADD22R,0.900000X1.200000*%
%ADD23RoundRect,0.150000X0.150000X0.700000X-0.150000X0.700000X-0.150000X-0.700000X0.150000X-0.700000X0*%
%ADD24RoundRect,0.250000X0.250000X1.150000X-0.250000X1.150000X-0.250000X-1.150000X0.250000X-1.150000X0*%
%ADD25RoundRect,0.150000X-0.150000X-0.700000X0.150000X-0.700000X0.150000X0.700000X-0.150000X0.700000X0*%
%ADD26RoundRect,0.250000X-0.250000X-1.150000X0.250000X-1.150000X0.250000X1.150000X-0.250000X1.150000X0*%
%ADD27R,2.500000X0.500000*%
%ADD28R,2.500000X2.000000*%
%ADD29RoundRect,0.150000X-0.700000X0.150000X-0.700000X-0.150000X0.700000X-0.150000X0.700000X0.150000X0*%
%ADD30RoundRect,0.250000X-1.150000X0.250000X-1.150000X-0.250000X1.150000X-0.250000X1.150000X0.250000X0*%
G04 APERTURE END LIST*
D10*
%TO.C,U1*%
X29850000Y-18800000D03*
X29850000Y-18000000D03*
X29850000Y-17200000D03*
X29850000Y-16400000D03*
X29850000Y-15600000D03*
X29850000Y-14800000D03*
X29850000Y-14000000D03*
X29850000Y-13200000D03*
D11*
X28400000Y-11750000D03*
X27600000Y-11750000D03*
X26800000Y-11750000D03*
X26000000Y-11750000D03*
X25200000Y-11750000D03*
X24400000Y-11750000D03*
X23600000Y-11750000D03*
X22800000Y-11750000D03*
D10*
X21350000Y-13200000D03*
X21350000Y-14000000D03*
X21350000Y-14800000D03*
X21350000Y-15600000D03*
X21350000Y-16400000D03*
X21350000Y-17200000D03*
X21350000Y-18000000D03*
X21350000Y-18800000D03*
D11*
X22800000Y-20250000D03*
X23600000Y-20250000D03*
X24400000Y-20250000D03*
X25200000Y-20250000D03*
X26000000Y-20250000D03*
X26800000Y-20250000D03*
X27600000Y-20250000D03*
X28400000Y-20250000D03*
%TD*%
D12*
%TO.C,C5*%
X10500000Y-8075000D03*
X10500000Y-5125000D03*
%TD*%
D13*
%TO.C,C2*%
X32225000Y-17800000D03*
X33775000Y-17800000D03*
%TD*%
D14*
%TO.C,C4*%
X31900000Y-12900000D03*
X31900000Y-11350000D03*
%TD*%
D15*
%TO.C,C3*%
X38200000Y-11350000D03*
X38200000Y-12900000D03*
%TD*%
D16*
%TO.C,D2*%
X14600000Y-21025000D03*
X16000000Y-21025000D03*
%TD*%
%TO.C,D1*%
X14600000Y-10525000D03*
X16000000Y-10525000D03*
%TD*%
D17*
%TO.C,R7*%
X34025000Y-8300000D03*
X32375000Y-8300000D03*
%TD*%
%TO.C,R5*%
X15325000Y-14800000D03*
X13675000Y-14800000D03*
%TD*%
%TO.C,R6*%
X15325000Y-16700000D03*
X13675000Y-16700000D03*
%TD*%
D18*
%TO.C,R3*%
X10175000Y-11625000D03*
X11825000Y-11625000D03*
%TD*%
D17*
%TO.C,R1*%
X11825000Y-16700000D03*
X10175000Y-16700000D03*
%TD*%
%TO.C,R2*%
X11825000Y-14800000D03*
X10175000Y-14800000D03*
%TD*%
D19*
%TO.C,P5*%
X39125000Y-3025000D03*
D20*
X39125000Y-5565000D03*
X36585000Y-3025000D03*
X36585000Y-5565000D03*
X34045000Y-3025000D03*
X34045000Y-5565000D03*
%TD*%
D21*
%TO.C,X1*%
X33975000Y-12975000D03*
X36175000Y-12975000D03*
X36175000Y-11275000D03*
X33975000Y-11275000D03*
%TD*%
D22*
%TO.C,D4*%
X13650000Y-12825000D03*
X16950000Y-12825000D03*
%TD*%
%TO.C,D3*%
X13650000Y-18825000D03*
X16950000Y-18825000D03*
%TD*%
D23*
%TO.C,P3*%
X28750000Y-26050000D03*
X27500000Y-26050000D03*
X26250000Y-26050000D03*
X25000000Y-26050000D03*
X23750000Y-26050000D03*
X22500000Y-26050000D03*
X21250000Y-26050000D03*
D24*
X30600000Y-29400000D03*
X19400000Y-29400000D03*
%TD*%
D25*
%TO.C,P1*%
X21250000Y-5950000D03*
X22500000Y-5950000D03*
X23750000Y-5950000D03*
X25000000Y-5950000D03*
X26250000Y-5950000D03*
X27500000Y-5950000D03*
X28750000Y-5950000D03*
D26*
X19400000Y-2600000D03*
X30600000Y-2600000D03*
%TD*%
D27*
%TO.C,P4*%
X7300000Y-14400000D03*
X7300000Y-15200000D03*
X7300000Y-16000000D03*
X7300000Y-16800000D03*
X7300000Y-17600000D03*
D28*
X7300000Y-20400000D03*
X1800000Y-20400000D03*
X1800000Y-11600000D03*
X7300000Y-11600000D03*
%TD*%
D29*
%TO.C,P2*%
X42450000Y-12250000D03*
X42450000Y-13500000D03*
X42450000Y-14750000D03*
X42450000Y-16000000D03*
X42450000Y-17250000D03*
X42450000Y-18500000D03*
X42450000Y-19750000D03*
D30*
X45800000Y-10400000D03*
X45800000Y-21600000D03*
%TD*%
D13*
%TO.C,C1*%
X32225000Y-15000000D03*
X33775000Y-15000000D03*
%TD*%
M02*
