%TF.GenerationSoftware,KiCad,Pcbnew,(6.0.4-0)*%
%TF.CreationDate,2022-04-28T06:59:34+12:00*%
%TF.ProjectId,gswitch18,67737769-7463-4683-9138-2e6b69636164,1.2*%
%TF.SameCoordinates,PX487ab00PY3072580*%
%TF.FileFunction,Copper,L2,Bot*%
%TF.FilePolarity,Positive*%
%FSLAX46Y46*%
G04 Gerber Fmt 4.6, Leading zero omitted, Abs format (unit mm)*
G04 Created by KiCad (PCBNEW (6.0.4-0)) date 2022-04-28 06:59:34*
%MOMM*%
%LPD*%
G01*
G04 APERTURE LIST*
%TA.AperFunction,ComponentPad*%
%ADD10C,0.800000*%
%TD*%
%TA.AperFunction,ComponentPad*%
%ADD11C,6.400000*%
%TD*%
%TA.AperFunction,ViaPad*%
%ADD12C,0.800000*%
%TD*%
%TA.AperFunction,ViaPad*%
%ADD13C,1.500000*%
%TD*%
%TA.AperFunction,Conductor*%
%ADD14C,1.000000*%
%TD*%
%TA.AperFunction,Conductor*%
%ADD15C,0.350000*%
%TD*%
G04 APERTURE END LIST*
D10*
%TO.P,MH1,1,G*%
%TO.N,GND*%
X3500000Y-1100000D03*
X5197056Y-5197056D03*
X1802944Y-5197056D03*
X1100000Y-3500000D03*
X5197056Y-1802944D03*
X3500000Y-5900000D03*
X1802944Y-1802944D03*
X5900000Y-3500000D03*
D11*
X3500000Y-3500000D03*
%TD*%
D10*
%TO.P,MH2,1,G*%
%TO.N,GND*%
X46197056Y-5197056D03*
X46900000Y-3500000D03*
X42802944Y-1802944D03*
X42802944Y-5197056D03*
X44500000Y-5900000D03*
D11*
X44500000Y-3500000D03*
D10*
X42100000Y-3500000D03*
X46197056Y-1802944D03*
X44500000Y-1100000D03*
%TD*%
%TO.P,MH3,1,G*%
%TO.N,GND*%
X1802944Y-30197056D03*
X5197056Y-30197056D03*
X1802944Y-26802944D03*
X1100000Y-28500000D03*
D11*
X3500000Y-28500000D03*
D10*
X3500000Y-26100000D03*
X3500000Y-30900000D03*
X5900000Y-28500000D03*
X5197056Y-26802944D03*
%TD*%
%TO.P,MH4,1*%
%TO.N,GND*%
X46197056Y-26802944D03*
X46197056Y-30197056D03*
X44500000Y-30900000D03*
X42802944Y-26802944D03*
X42802944Y-30197056D03*
D11*
X44500000Y-28500000D03*
D10*
X46900000Y-28500000D03*
X42100000Y-28500000D03*
X44500000Y-26100000D03*
%TD*%
D12*
%TO.N,+5V*%
X39100000Y-7800000D03*
D13*
X12800000Y-9750000D03*
X24800000Y-15600000D03*
D12*
%TO.N,/D+*%
X18600000Y-16700000D03*
X27050000Y-22750000D03*
%TO.N,/D-*%
X18600000Y-14800000D03*
X26100000Y-21825511D03*
%TO.N,/MISO*%
X39000000Y-1700000D03*
X23700000Y-3300000D03*
%TO.N,/MOSI*%
X35400000Y-4300000D03*
X24950000Y-2700000D03*
%TO.N,/RESET*%
X30500000Y-9100000D03*
X24600000Y-18500000D03*
%TO.N,/SCK*%
X22500000Y-3850000D03*
X34100000Y-900000D03*
%TO.N,/SW07*%
X27200000Y-13850000D03*
X40200000Y-13500000D03*
%TO.N,/SW08*%
X40200000Y-14800000D03*
X28150000Y-13250000D03*
%TO.N,/SW09*%
X30500000Y-12024500D03*
X40200000Y-16000000D03*
%TO.N,/SW10*%
X26747655Y-17952345D03*
X40200000Y-17250000D03*
%TO.N,/SW11*%
X27600000Y-18600000D03*
X40200000Y-18500000D03*
%TO.N,/SW12*%
X40200000Y-19750000D03*
X25700000Y-18000000D03*
%TO.N,GND*%
X12400000Y-30800000D03*
X900000Y-9650000D03*
X20050000Y-20750000D03*
X18600000Y-18000000D03*
X15300000Y-18825000D03*
X37650000Y-4450000D03*
X4050000Y-16000000D03*
X35600000Y-800000D03*
X39150000Y-21350000D03*
X33200000Y-9450000D03*
X29800000Y-21400000D03*
X900000Y-22650000D03*
X15300000Y-12825000D03*
X38650000Y-16200000D03*
X27500000Y-10100000D03*
X8500000Y-13350000D03*
X20600000Y-11600000D03*
X10850000Y-1150000D03*
X23900000Y-13950000D03*
X26750000Y-1900000D03*
X12400000Y-17925000D03*
X32100000Y-1900000D03*
X32750000Y-30800000D03*
X30450000Y-6400000D03*
X17300000Y-30800000D03*
X47050000Y-15950000D03*
X800000Y-16050000D03*
X40200000Y-12200000D03*
X12300000Y-8050000D03*
X23350000Y-18400000D03*
X20600000Y-7800000D03*
X9500000Y-17925000D03*
X32950000Y-16200000D03*
X17250000Y-1150000D03*
X28175688Y-15549500D03*
X12750000Y-13900000D03*
%TD*%
D14*
%TO.N,+5V*%
X22300000Y-15600000D02*
X24800000Y-15600000D01*
X12850000Y-9800000D02*
X16500000Y-9800000D01*
X27500000Y-7800000D02*
X39100000Y-7800000D01*
X16500000Y-9800000D02*
X22300000Y-15600000D01*
X25400000Y-9900000D02*
X27500000Y-7800000D01*
X25400000Y-15000000D02*
X25400000Y-9900000D01*
X12800000Y-9750000D02*
X12850000Y-9800000D01*
X24800000Y-15600000D02*
X25400000Y-15000000D01*
D15*
%TO.N,/D+*%
X24875000Y-22800000D02*
X18600000Y-16525000D01*
X27000000Y-22800000D02*
X24875000Y-22800000D01*
X27050000Y-22750000D02*
X27000000Y-22800000D01*
%TO.N,/D-*%
X25425511Y-21825511D02*
X18600000Y-15000000D01*
X26100000Y-21825511D02*
X25425511Y-21825511D01*
%TO.N,/MISO*%
X23700000Y-3300000D02*
X23700000Y-2700000D01*
X37750000Y-2950000D02*
X39000000Y-1700000D01*
X26400000Y-2950000D02*
X37750000Y-2950000D01*
X24550000Y-1850000D02*
X25300000Y-1850000D01*
X25300000Y-1850000D02*
X26400000Y-2950000D01*
X23700000Y-2700000D02*
X24550000Y-1850000D01*
%TO.N,/MOSI*%
X25100000Y-2600000D02*
X26150000Y-3650000D01*
X34750000Y-3650000D02*
X35400000Y-4300000D01*
X26150000Y-3650000D02*
X34750000Y-3650000D01*
%TO.N,/RESET*%
X26400000Y-12600000D02*
X29900000Y-9100000D01*
X24600000Y-18525489D02*
X24600000Y-17990300D01*
X24600000Y-17990300D02*
X26400000Y-16190300D01*
X26400000Y-16190300D02*
X26400000Y-12600000D01*
X29900000Y-9100000D02*
X30500000Y-9100000D01*
%TO.N,/SCK*%
X22500000Y-2736431D02*
X24336431Y-900000D01*
X24336431Y-900000D02*
X34100000Y-900000D01*
X22500000Y-3850000D02*
X22500000Y-2736431D01*
%TO.N,/SW07*%
X27200000Y-13850000D02*
X27200000Y-12900000D01*
X29600000Y-10500000D02*
X37200000Y-10500000D01*
X37200000Y-10500000D02*
X40200000Y-13500000D01*
X27200000Y-12900000D02*
X29600000Y-10500000D01*
%TO.N,/SW08*%
X29850000Y-11250000D02*
X28150000Y-12950000D01*
X28150000Y-12950000D02*
X28150000Y-13250000D01*
X40200000Y-14800000D02*
X36650000Y-11250000D01*
X36650000Y-11250000D02*
X29850000Y-11250000D01*
%TO.N,/SW09*%
X36250000Y-12050000D02*
X40200000Y-16000000D01*
X30525500Y-12050000D02*
X36250000Y-12050000D01*
X30500000Y-12024500D02*
X30525500Y-12050000D01*
%TO.N,/SW10*%
X40150000Y-17300000D02*
X27400000Y-17300000D01*
X27400000Y-17300000D02*
X26747655Y-17952345D01*
X40200000Y-17250000D02*
X40150000Y-17300000D01*
%TO.N,/SW11*%
X40200000Y-18500000D02*
X27700000Y-18500000D01*
X27700000Y-18500000D02*
X27600000Y-18600000D01*
%TO.N,/SW12*%
X26900000Y-19750000D02*
X25700000Y-18550000D01*
X40200000Y-19750000D02*
X26900000Y-19750000D01*
X25700000Y-18550000D02*
X25700000Y-18000000D01*
%TD*%
%TA.AperFunction,Conductor*%
%TO.N,GND*%
G36*
X24036847Y-320185D02*
G01*
X24082602Y-372989D01*
X24092546Y-442147D01*
X24063521Y-505703D01*
X24050755Y-518434D01*
X24044260Y-524031D01*
X24036466Y-530219D01*
X24026396Y-537576D01*
X24016297Y-547675D01*
X24009559Y-553932D01*
X23974427Y-584204D01*
X23969624Y-591615D01*
X23963815Y-598273D01*
X23963759Y-598224D01*
X23955331Y-608641D01*
X23083048Y-1480925D01*
X22211257Y-2352716D01*
X22202484Y-2359727D01*
X22202849Y-2360156D01*
X22196122Y-2365882D01*
X22188650Y-2370596D01*
X22182802Y-2377218D01*
X22155456Y-2408181D01*
X22150195Y-2413778D01*
X22139627Y-2424346D01*
X22136981Y-2427877D01*
X22133911Y-2431973D01*
X22127630Y-2439688D01*
X22098487Y-2472686D01*
X22094732Y-2480684D01*
X22091708Y-2485288D01*
X22086563Y-2493850D01*
X22083925Y-2498668D01*
X22078628Y-2505736D01*
X22075527Y-2514009D01*
X22063172Y-2546965D01*
X22059309Y-2556134D01*
X22040601Y-2595979D01*
X22039242Y-2604708D01*
X22037632Y-2609974D01*
X22035095Y-2619642D01*
X22033916Y-2625005D01*
X22030816Y-2633274D01*
X22030162Y-2642079D01*
X22030161Y-2642083D01*
X22027554Y-2677178D01*
X22026418Y-2687069D01*
X22024500Y-2699387D01*
X22024500Y-2713675D01*
X22024159Y-2722863D01*
X22020723Y-2769105D01*
X22022567Y-2777746D01*
X22023168Y-2786557D01*
X22023093Y-2786562D01*
X22024500Y-2799886D01*
X22024500Y-3278796D01*
X22004815Y-3345835D01*
X21986231Y-3367355D01*
X21986239Y-3367362D01*
X21985900Y-3367738D01*
X21982017Y-3372235D01*
X21981244Y-3372909D01*
X21981236Y-3372918D01*
X21975604Y-3377831D01*
X21971308Y-3383944D01*
X21971305Y-3383947D01*
X21929556Y-3443351D01*
X21878113Y-3516547D01*
X21816524Y-3674513D01*
X21815548Y-3681923D01*
X21815548Y-3681925D01*
X21810462Y-3720560D01*
X21794394Y-3842611D01*
X21795214Y-3850039D01*
X21795214Y-3850041D01*
X21796841Y-3864778D01*
X21812999Y-4011135D01*
X21815565Y-4018147D01*
X21815566Y-4018151D01*
X21852779Y-4119839D01*
X21871266Y-4170356D01*
X21875433Y-4176558D01*
X21875435Y-4176561D01*
X21888510Y-4196018D01*
X21965830Y-4311083D01*
X21971360Y-4316115D01*
X22085702Y-4420159D01*
X22085706Y-4420162D01*
X22091233Y-4425191D01*
X22240235Y-4506092D01*
X22335585Y-4531107D01*
X22397005Y-4547220D01*
X22397007Y-4547220D01*
X22404233Y-4549116D01*
X22487178Y-4550419D01*
X22566290Y-4551662D01*
X22566293Y-4551662D01*
X22573760Y-4551779D01*
X22696209Y-4523735D01*
X22731738Y-4515598D01*
X22731739Y-4515598D01*
X22739029Y-4513928D01*
X22815957Y-4475237D01*
X22883820Y-4441106D01*
X22883822Y-4441105D01*
X22890498Y-4437747D01*
X22896180Y-4432894D01*
X22896183Y-4432892D01*
X23013741Y-4332487D01*
X23019423Y-4327634D01*
X23118361Y-4189947D01*
X23181601Y-4032634D01*
X23185127Y-4007859D01*
X23214063Y-3944263D01*
X23272787Y-3906405D01*
X23342657Y-3906307D01*
X23367051Y-3916356D01*
X23440235Y-3956092D01*
X23531645Y-3980073D01*
X23597005Y-3997220D01*
X23597007Y-3997220D01*
X23604233Y-3999116D01*
X23687178Y-4000419D01*
X23766290Y-4001662D01*
X23766293Y-4001662D01*
X23773760Y-4001779D01*
X23899082Y-3973077D01*
X23931738Y-3965598D01*
X23931739Y-3965598D01*
X23939029Y-3963928D01*
X24014111Y-3926166D01*
X24083820Y-3891106D01*
X24083822Y-3891105D01*
X24090498Y-3887747D01*
X24096180Y-3882894D01*
X24096183Y-3882892D01*
X24213741Y-3782487D01*
X24219423Y-3777634D01*
X24318361Y-3639947D01*
X24381601Y-3482634D01*
X24393346Y-3400111D01*
X24395319Y-3386247D01*
X24424253Y-3322650D01*
X24482978Y-3284792D01*
X24552847Y-3284692D01*
X24577249Y-3294746D01*
X24690235Y-3356092D01*
X24770542Y-3377160D01*
X24847005Y-3397220D01*
X24847007Y-3397220D01*
X24854233Y-3399116D01*
X24937178Y-3400419D01*
X25016290Y-3401662D01*
X25016293Y-3401662D01*
X25023760Y-3401779D01*
X25031041Y-3400111D01*
X25031045Y-3400111D01*
X25091577Y-3386247D01*
X25124154Y-3378786D01*
X25193895Y-3383007D01*
X25239517Y-3411975D01*
X25766285Y-3938743D01*
X25773296Y-3947516D01*
X25773725Y-3947151D01*
X25779451Y-3953878D01*
X25784165Y-3961350D01*
X25805365Y-3980073D01*
X25821750Y-3994544D01*
X25827347Y-3999805D01*
X25837915Y-4010373D01*
X25841446Y-4013019D01*
X25845542Y-4016089D01*
X25853257Y-4022370D01*
X25886255Y-4051513D01*
X25894253Y-4055268D01*
X25898857Y-4058292D01*
X25907419Y-4063437D01*
X25912237Y-4066075D01*
X25919305Y-4071372D01*
X25955685Y-4085010D01*
X25960534Y-4086828D01*
X25969703Y-4090691D01*
X26009548Y-4109399D01*
X26018277Y-4110758D01*
X26023543Y-4112368D01*
X26033211Y-4114905D01*
X26038574Y-4116084D01*
X26046843Y-4119184D01*
X26055648Y-4119838D01*
X26055652Y-4119839D01*
X26090747Y-4122446D01*
X26100638Y-4123582D01*
X26103593Y-4124042D01*
X26112956Y-4125500D01*
X26127244Y-4125500D01*
X26136432Y-4125841D01*
X26182674Y-4129277D01*
X26191315Y-4127433D01*
X26200126Y-4126832D01*
X26200131Y-4126907D01*
X26213455Y-4125500D01*
X34501680Y-4125500D01*
X34568719Y-4145185D01*
X34589361Y-4161819D01*
X34660406Y-4232864D01*
X34693891Y-4294187D01*
X34695975Y-4306932D01*
X34712999Y-4461135D01*
X34715565Y-4468147D01*
X34715566Y-4468151D01*
X34745559Y-4550110D01*
X34771266Y-4620356D01*
X34775433Y-4626558D01*
X34775435Y-4626561D01*
X34788510Y-4646018D01*
X34865830Y-4761083D01*
X34871360Y-4766115D01*
X34985702Y-4870159D01*
X34985706Y-4870162D01*
X34991233Y-4875191D01*
X35140235Y-4956092D01*
X35235585Y-4981107D01*
X35297005Y-4997220D01*
X35297007Y-4997220D01*
X35304233Y-4999116D01*
X35387178Y-5000419D01*
X35466290Y-5001662D01*
X35466293Y-5001662D01*
X35473760Y-5001779D01*
X35596209Y-4973735D01*
X35631738Y-4965598D01*
X35631739Y-4965598D01*
X35639029Y-4963928D01*
X35721397Y-4922501D01*
X35783820Y-4891106D01*
X35783822Y-4891105D01*
X35790498Y-4887747D01*
X35796180Y-4882894D01*
X35796183Y-4882892D01*
X35913741Y-4782487D01*
X35919423Y-4777634D01*
X36018361Y-4639947D01*
X36081601Y-4482634D01*
X36087511Y-4441106D01*
X36104918Y-4318800D01*
X36104918Y-4318794D01*
X36105490Y-4314778D01*
X36105645Y-4300000D01*
X36091488Y-4183014D01*
X36086175Y-4139105D01*
X36086174Y-4139101D01*
X36085276Y-4131680D01*
X36057545Y-4058292D01*
X36027989Y-3980073D01*
X36027987Y-3980070D01*
X36025345Y-3973077D01*
X36014976Y-3957990D01*
X35933549Y-3839513D01*
X35933546Y-3839510D01*
X35929312Y-3833349D01*
X35866779Y-3777634D01*
X35808303Y-3725533D01*
X35808301Y-3725532D01*
X35802721Y-3720560D01*
X35686618Y-3659087D01*
X35636582Y-3610321D01*
X35620853Y-3542245D01*
X35634832Y-3503244D01*
X40995367Y-3503244D01*
X41014227Y-3863114D01*
X41014905Y-3869558D01*
X41071275Y-4225472D01*
X41072627Y-4231831D01*
X41165897Y-4579920D01*
X41167894Y-4586065D01*
X41297039Y-4922501D01*
X41299677Y-4928424D01*
X41463278Y-5249508D01*
X41466523Y-5255129D01*
X41662783Y-5557344D01*
X41666600Y-5562598D01*
X41891043Y-5839761D01*
X41902496Y-5846015D01*
X41904302Y-5845886D01*
X41910809Y-5841704D01*
X43169468Y-4583044D01*
X43202459Y-4550053D01*
X44239906Y-3512607D01*
X44247398Y-3498887D01*
X44247269Y-3497081D01*
X44243087Y-3490574D01*
X43202459Y-2449947D01*
X42920170Y-2167658D01*
X41913990Y-1161477D01*
X41900270Y-1153985D01*
X41898464Y-1154114D01*
X41893332Y-1157412D01*
X41666600Y-1437402D01*
X41662783Y-1442656D01*
X41466523Y-1744871D01*
X41463278Y-1750492D01*
X41299677Y-2071576D01*
X41297039Y-2077499D01*
X41167894Y-2413935D01*
X41165897Y-2420080D01*
X41072627Y-2768169D01*
X41071275Y-2774528D01*
X41014905Y-3130442D01*
X41014227Y-3136886D01*
X40995367Y-3496756D01*
X40995367Y-3503244D01*
X35634832Y-3503244D01*
X35644427Y-3476472D01*
X35699818Y-3433885D01*
X35744641Y-3425500D01*
X37682847Y-3425500D01*
X37694005Y-3426746D01*
X37694050Y-3426184D01*
X37702857Y-3426893D01*
X37711473Y-3428842D01*
X37720290Y-3428295D01*
X37720291Y-3428295D01*
X37761505Y-3425738D01*
X37769183Y-3425500D01*
X37784145Y-3425500D01*
X37793595Y-3424147D01*
X37803486Y-3423134D01*
X37823153Y-3421913D01*
X37847417Y-3420408D01*
X37855731Y-3417407D01*
X37861109Y-3416293D01*
X37870828Y-3413870D01*
X37876081Y-3412334D01*
X37884829Y-3411081D01*
X37924906Y-3392859D01*
X37934121Y-3389108D01*
X37967218Y-3377160D01*
X37967220Y-3377159D01*
X37975530Y-3374159D01*
X37982665Y-3368946D01*
X37987514Y-3366368D01*
X37996159Y-3361316D01*
X38000777Y-3358363D01*
X38008820Y-3354706D01*
X38042185Y-3325956D01*
X38049961Y-3319783D01*
X38060035Y-3312423D01*
X38070127Y-3302331D01*
X38076865Y-3296074D01*
X38105311Y-3271563D01*
X38112004Y-3265796D01*
X38116810Y-3258381D01*
X38122614Y-3251728D01*
X38122670Y-3251777D01*
X38131101Y-3241357D01*
X38935144Y-2437314D01*
X38996467Y-2403829D01*
X39024771Y-2401010D01*
X39066289Y-2401662D01*
X39066292Y-2401662D01*
X39073760Y-2401779D01*
X39181001Y-2377218D01*
X39231738Y-2365598D01*
X39231739Y-2365598D01*
X39239029Y-2363928D01*
X39314111Y-2326165D01*
X39383820Y-2291106D01*
X39383822Y-2291105D01*
X39390498Y-2287747D01*
X39396180Y-2282894D01*
X39396183Y-2282892D01*
X39513741Y-2182487D01*
X39519423Y-2177634D01*
X39618361Y-2039947D01*
X39681601Y-1882634D01*
X39682893Y-1873556D01*
X39704918Y-1718800D01*
X39704918Y-1718794D01*
X39705490Y-1714778D01*
X39705645Y-1700000D01*
X39693437Y-1599116D01*
X39686175Y-1539105D01*
X39686174Y-1539101D01*
X39685276Y-1531680D01*
X39651637Y-1442656D01*
X39627989Y-1380073D01*
X39627987Y-1380070D01*
X39625345Y-1373077D01*
X39616423Y-1360095D01*
X39533549Y-1239513D01*
X39533546Y-1239510D01*
X39529312Y-1233349D01*
X39402721Y-1120560D01*
X39388347Y-1112949D01*
X39327801Y-1080892D01*
X39252881Y-1041224D01*
X39088441Y-999919D01*
X39002248Y-999468D01*
X38926368Y-999070D01*
X38926367Y-999070D01*
X38918895Y-999031D01*
X38897235Y-1004231D01*
X38761295Y-1036868D01*
X38761293Y-1036869D01*
X38754032Y-1038612D01*
X38747399Y-1042035D01*
X38747395Y-1042037D01*
X38683072Y-1075237D01*
X38603369Y-1116375D01*
X38597737Y-1121288D01*
X38490174Y-1215121D01*
X38475604Y-1227831D01*
X38378113Y-1366547D01*
X38316524Y-1524513D01*
X38315548Y-1531923D01*
X38315548Y-1531925D01*
X38306687Y-1599233D01*
X38294394Y-1692611D01*
X38292269Y-1692331D01*
X38275025Y-1748886D01*
X38259091Y-1768451D01*
X37589361Y-2438181D01*
X37528038Y-2471666D01*
X37501680Y-2474500D01*
X26648320Y-2474500D01*
X26581281Y-2454815D01*
X26560639Y-2438181D01*
X25709639Y-1587181D01*
X25676154Y-1525858D01*
X25681138Y-1456166D01*
X25723010Y-1400233D01*
X25788474Y-1375816D01*
X25797320Y-1375500D01*
X33533702Y-1375500D01*
X33600741Y-1395185D01*
X33617155Y-1407785D01*
X33691233Y-1475191D01*
X33840235Y-1556092D01*
X33935585Y-1581107D01*
X33997005Y-1597220D01*
X33997007Y-1597220D01*
X34004233Y-1599116D01*
X34087178Y-1600419D01*
X34166290Y-1601662D01*
X34166293Y-1601662D01*
X34173760Y-1601779D01*
X34296209Y-1573735D01*
X34331738Y-1565598D01*
X34331739Y-1565598D01*
X34339029Y-1563928D01*
X34417397Y-1524513D01*
X34483820Y-1491106D01*
X34483822Y-1491105D01*
X34490498Y-1487747D01*
X34496180Y-1482894D01*
X34496183Y-1482892D01*
X34613741Y-1382487D01*
X34619423Y-1377634D01*
X34718361Y-1239947D01*
X34781601Y-1082634D01*
X34784499Y-1062274D01*
X34804918Y-918800D01*
X34804918Y-918794D01*
X34805490Y-914778D01*
X34805645Y-900000D01*
X34785276Y-731680D01*
X34759242Y-662783D01*
X34727989Y-580073D01*
X34727987Y-580070D01*
X34725345Y-573077D01*
X34671501Y-494734D01*
X34649752Y-428336D01*
X34667354Y-360720D01*
X34718717Y-313353D01*
X34773693Y-300500D01*
X42581908Y-300500D01*
X42648947Y-320185D01*
X42694702Y-372989D01*
X42704646Y-442147D01*
X42675621Y-505703D01*
X42649443Y-528495D01*
X42442656Y-662783D01*
X42437402Y-666600D01*
X42160239Y-891043D01*
X42153985Y-902496D01*
X42154114Y-904302D01*
X42158296Y-910809D01*
X43130122Y-1882634D01*
X43449947Y-2202459D01*
X44500000Y-3252513D01*
X45797541Y-4550053D01*
X45830532Y-4583044D01*
X47086010Y-5838523D01*
X47099730Y-5846015D01*
X47101536Y-5845886D01*
X47106668Y-5842588D01*
X47333400Y-5562598D01*
X47337217Y-5557344D01*
X47471165Y-5351080D01*
X47524186Y-5305577D01*
X47593391Y-5295962D01*
X47656808Y-5325289D01*
X47694302Y-5384246D01*
X47699160Y-5418613D01*
X47699471Y-26581861D01*
X47679787Y-26648901D01*
X47626984Y-26694657D01*
X47557826Y-26704601D01*
X47494270Y-26675577D01*
X47471476Y-26649398D01*
X47337217Y-26442656D01*
X47333400Y-26437402D01*
X47108957Y-26160239D01*
X47097504Y-26153985D01*
X47095698Y-26154114D01*
X47089191Y-26158296D01*
X46060255Y-27187233D01*
X45797541Y-27449947D01*
X44747487Y-28500000D01*
X44500000Y-28747487D01*
X43449947Y-29797541D01*
X43321956Y-29925532D01*
X42161477Y-31086010D01*
X42153985Y-31099730D01*
X42154114Y-31101536D01*
X42157412Y-31106668D01*
X42437402Y-31333400D01*
X42442656Y-31337217D01*
X42649442Y-31471505D01*
X42694945Y-31524526D01*
X42704559Y-31593731D01*
X42675232Y-31657148D01*
X42616275Y-31694642D01*
X42581907Y-31699500D01*
X5418093Y-31699500D01*
X5351054Y-31679815D01*
X5305299Y-31627011D01*
X5295355Y-31557853D01*
X5324380Y-31494297D01*
X5350558Y-31471505D01*
X5557344Y-31337217D01*
X5562598Y-31333400D01*
X5839761Y-31108957D01*
X5846015Y-31097504D01*
X5845886Y-31095698D01*
X5841704Y-31089191D01*
X4678044Y-29925532D01*
X4550053Y-29797541D01*
X3253626Y-28501113D01*
X3752602Y-28501113D01*
X3752731Y-28502919D01*
X3756913Y-28509426D01*
X4797541Y-29550053D01*
X4830532Y-29583044D01*
X6086010Y-30838523D01*
X6099730Y-30846015D01*
X6101536Y-30845886D01*
X6106668Y-30842588D01*
X6333400Y-30562598D01*
X6337217Y-30557344D01*
X6533477Y-30255129D01*
X6536722Y-30249508D01*
X6700323Y-29928424D01*
X6702961Y-29922501D01*
X6832106Y-29586065D01*
X6834103Y-29579920D01*
X6927373Y-29231831D01*
X6928725Y-29225472D01*
X6985095Y-28869558D01*
X6985773Y-28863114D01*
X7004633Y-28503244D01*
X40995367Y-28503244D01*
X41014227Y-28863114D01*
X41014905Y-28869558D01*
X41071275Y-29225472D01*
X41072627Y-29231831D01*
X41165897Y-29579920D01*
X41167894Y-29586065D01*
X41297039Y-29922501D01*
X41299677Y-29928424D01*
X41463278Y-30249508D01*
X41466523Y-30255129D01*
X41662783Y-30557344D01*
X41666600Y-30562598D01*
X41891043Y-30839761D01*
X41902496Y-30846015D01*
X41904302Y-30845886D01*
X41910809Y-30841704D01*
X43169468Y-29583044D01*
X43202459Y-29550053D01*
X44239906Y-28512607D01*
X44247398Y-28498887D01*
X44247269Y-28497081D01*
X44243087Y-28490574D01*
X43202459Y-27449947D01*
X42939745Y-27187233D01*
X41913990Y-26161477D01*
X41900270Y-26153985D01*
X41898464Y-26154114D01*
X41893332Y-26157412D01*
X41666600Y-26437402D01*
X41662783Y-26442656D01*
X41466523Y-26744871D01*
X41463278Y-26750492D01*
X41299677Y-27071576D01*
X41297039Y-27077499D01*
X41167894Y-27413935D01*
X41165897Y-27420080D01*
X41072627Y-27768169D01*
X41071275Y-27774528D01*
X41014905Y-28130442D01*
X41014227Y-28136886D01*
X40995367Y-28496756D01*
X40995367Y-28503244D01*
X7004633Y-28503244D01*
X7004633Y-28496756D01*
X6985773Y-28136886D01*
X6985095Y-28130442D01*
X6928725Y-27774528D01*
X6927373Y-27768169D01*
X6834103Y-27420080D01*
X6832106Y-27413935D01*
X6702961Y-27077499D01*
X6700323Y-27071576D01*
X6536722Y-26750492D01*
X6533477Y-26744871D01*
X6337217Y-26442656D01*
X6333400Y-26437402D01*
X6108957Y-26160239D01*
X6097504Y-26153985D01*
X6095698Y-26154114D01*
X6089191Y-26158296D01*
X5060255Y-27187233D01*
X4797541Y-27449947D01*
X3760094Y-28487393D01*
X3752602Y-28501113D01*
X3253626Y-28501113D01*
X3252513Y-28500000D01*
X2202459Y-27449947D01*
X1939745Y-27187233D01*
X913990Y-26161477D01*
X900270Y-26153985D01*
X898464Y-26154114D01*
X893332Y-26157412D01*
X666600Y-26437402D01*
X662783Y-26442656D01*
X528495Y-26649443D01*
X475474Y-26694946D01*
X406269Y-26704561D01*
X342852Y-26675234D01*
X305358Y-26616276D01*
X300500Y-26581908D01*
X300500Y-25902496D01*
X1153985Y-25902496D01*
X1154114Y-25904302D01*
X1158296Y-25910809D01*
X2187233Y-26939745D01*
X2449947Y-27202459D01*
X3487393Y-28239906D01*
X3501113Y-28247398D01*
X3502919Y-28247269D01*
X3509426Y-28243087D01*
X4550053Y-27202459D01*
X4812767Y-26939745D01*
X5838523Y-25913990D01*
X5844799Y-25902496D01*
X42153985Y-25902496D01*
X42154114Y-25904302D01*
X42158296Y-25910809D01*
X43187233Y-26939745D01*
X43449947Y-27202459D01*
X44487393Y-28239906D01*
X44501113Y-28247398D01*
X44502919Y-28247269D01*
X44509426Y-28243087D01*
X45550053Y-27202459D01*
X45812767Y-26939745D01*
X46838523Y-25913990D01*
X46846015Y-25900270D01*
X46845886Y-25898464D01*
X46842588Y-25893332D01*
X46562598Y-25666600D01*
X46557344Y-25662783D01*
X46255129Y-25466523D01*
X46249509Y-25463278D01*
X45928424Y-25299677D01*
X45922501Y-25297039D01*
X45586065Y-25167894D01*
X45579920Y-25165897D01*
X45231831Y-25072627D01*
X45225472Y-25071275D01*
X44869558Y-25014905D01*
X44863114Y-25014227D01*
X44503244Y-24995367D01*
X44496756Y-24995367D01*
X44136886Y-25014227D01*
X44130442Y-25014905D01*
X43774528Y-25071275D01*
X43768169Y-25072627D01*
X43420080Y-25165897D01*
X43413935Y-25167894D01*
X43077499Y-25297039D01*
X43071576Y-25299677D01*
X42750492Y-25463278D01*
X42744871Y-25466523D01*
X42442656Y-25662783D01*
X42437402Y-25666600D01*
X42160239Y-25891043D01*
X42153985Y-25902496D01*
X5844799Y-25902496D01*
X5846015Y-25900270D01*
X5845886Y-25898464D01*
X5842588Y-25893332D01*
X5562598Y-25666600D01*
X5557344Y-25662783D01*
X5255129Y-25466523D01*
X5249509Y-25463278D01*
X4928424Y-25299677D01*
X4922501Y-25297039D01*
X4586065Y-25167894D01*
X4579920Y-25165897D01*
X4231831Y-25072627D01*
X4225472Y-25071275D01*
X3869558Y-25014905D01*
X3863114Y-25014227D01*
X3503244Y-24995367D01*
X3496756Y-24995367D01*
X3136886Y-25014227D01*
X3130442Y-25014905D01*
X2774528Y-25071275D01*
X2768169Y-25072627D01*
X2420080Y-25165897D01*
X2413935Y-25167894D01*
X2077499Y-25297039D01*
X2071576Y-25299677D01*
X1750492Y-25463278D01*
X1744871Y-25466523D01*
X1442656Y-25662783D01*
X1437402Y-25666600D01*
X1160239Y-25891043D01*
X1153985Y-25902496D01*
X300500Y-25902496D01*
X300500Y-18240862D01*
X3945497Y-18240862D01*
X3975134Y-18413340D01*
X4043654Y-18574373D01*
X4047921Y-18580171D01*
X4047922Y-18580173D01*
X4128426Y-18689564D01*
X4147383Y-18715324D01*
X4152874Y-18719989D01*
X4152875Y-18719990D01*
X4275261Y-18823965D01*
X4275264Y-18823967D01*
X4280755Y-18828632D01*
X4287172Y-18831909D01*
X4287174Y-18831910D01*
X4300360Y-18838643D01*
X4436616Y-18908219D01*
X4443612Y-18909931D01*
X4443615Y-18909932D01*
X4514763Y-18927341D01*
X4606606Y-18949815D01*
X4612114Y-18950157D01*
X4612116Y-18950157D01*
X4615744Y-18950382D01*
X4615748Y-18950382D01*
X4617648Y-18950500D01*
X4743822Y-18950500D01*
X4873828Y-18935343D01*
X4880595Y-18932887D01*
X4880598Y-18932886D01*
X5031557Y-18878090D01*
X5031558Y-18878089D01*
X5038331Y-18875631D01*
X5184685Y-18779677D01*
X5189637Y-18774449D01*
X5189640Y-18774447D01*
X5300087Y-18657857D01*
X5300089Y-18657855D01*
X5305040Y-18652628D01*
X5308656Y-18646403D01*
X5308658Y-18646400D01*
X5389322Y-18507525D01*
X5392939Y-18501298D01*
X5443667Y-18333807D01*
X5449879Y-18233668D01*
X5454057Y-18166332D01*
X5454057Y-18166329D01*
X5454503Y-18159138D01*
X5424866Y-17986660D01*
X5356346Y-17825627D01*
X5341532Y-17805497D01*
X5256888Y-17690479D01*
X5256886Y-17690477D01*
X5252617Y-17684676D01*
X5183025Y-17625553D01*
X5124739Y-17576035D01*
X5124736Y-17576033D01*
X5119245Y-17571368D01*
X5112828Y-17568091D01*
X5112826Y-17568090D01*
X4998198Y-17509558D01*
X4963384Y-17491781D01*
X4956388Y-17490069D01*
X4956385Y-17490068D01*
X4885237Y-17472659D01*
X4793394Y-17450185D01*
X4787886Y-17449843D01*
X4787884Y-17449843D01*
X4784256Y-17449618D01*
X4784252Y-17449618D01*
X4782352Y-17449500D01*
X4656178Y-17449500D01*
X4526172Y-17464657D01*
X4519405Y-17467113D01*
X4519402Y-17467114D01*
X4402472Y-17509558D01*
X4361669Y-17524369D01*
X4215315Y-17620323D01*
X4210363Y-17625551D01*
X4210360Y-17625553D01*
X4102742Y-17739157D01*
X4094960Y-17747372D01*
X4091344Y-17753597D01*
X4091342Y-17753600D01*
X4027309Y-17863843D01*
X4007061Y-17898702D01*
X3956333Y-18066193D01*
X3955887Y-18073385D01*
X3949676Y-18173506D01*
X3945497Y-18240862D01*
X300500Y-18240862D01*
X300500Y-16692611D01*
X17894394Y-16692611D01*
X17895214Y-16700039D01*
X17895214Y-16700041D01*
X17909024Y-16825126D01*
X17912999Y-16861135D01*
X17915565Y-16868147D01*
X17915566Y-16868151D01*
X17946956Y-16953926D01*
X17971266Y-17020356D01*
X17975433Y-17026558D01*
X17975435Y-17026561D01*
X18007772Y-17074683D01*
X18065830Y-17161083D01*
X18071360Y-17166115D01*
X18185702Y-17270159D01*
X18185706Y-17270162D01*
X18191233Y-17275191D01*
X18340235Y-17356092D01*
X18421643Y-17377449D01*
X18497005Y-17397220D01*
X18497007Y-17397220D01*
X18504233Y-17399116D01*
X18587178Y-17400419D01*
X18666290Y-17401662D01*
X18666293Y-17401662D01*
X18673760Y-17401779D01*
X18713130Y-17392762D01*
X18782870Y-17396982D01*
X18828493Y-17425951D01*
X24491285Y-23088743D01*
X24498296Y-23097516D01*
X24498725Y-23097151D01*
X24504451Y-23103878D01*
X24509165Y-23111350D01*
X24515787Y-23117198D01*
X24546750Y-23144544D01*
X24552347Y-23149805D01*
X24562915Y-23160373D01*
X24566446Y-23163019D01*
X24570542Y-23166089D01*
X24578257Y-23172370D01*
X24611255Y-23201513D01*
X24619253Y-23205268D01*
X24623857Y-23208292D01*
X24632419Y-23213437D01*
X24637237Y-23216075D01*
X24644305Y-23221372D01*
X24680685Y-23235010D01*
X24685534Y-23236828D01*
X24694703Y-23240691D01*
X24734548Y-23259399D01*
X24743277Y-23260758D01*
X24748543Y-23262368D01*
X24758211Y-23264905D01*
X24763574Y-23266084D01*
X24771843Y-23269184D01*
X24780648Y-23269838D01*
X24780652Y-23269839D01*
X24815747Y-23272446D01*
X24825638Y-23273582D01*
X24828593Y-23274042D01*
X24837956Y-23275500D01*
X24852244Y-23275500D01*
X24861432Y-23275841D01*
X24907674Y-23279277D01*
X24916315Y-23277433D01*
X24925126Y-23276832D01*
X24925131Y-23276907D01*
X24938455Y-23275500D01*
X26538652Y-23275500D01*
X26605691Y-23295185D01*
X26622098Y-23307780D01*
X26641233Y-23325191D01*
X26647802Y-23328758D01*
X26647804Y-23328759D01*
X26664358Y-23337747D01*
X26790235Y-23406092D01*
X26885585Y-23431107D01*
X26947005Y-23447220D01*
X26947007Y-23447220D01*
X26954233Y-23449116D01*
X27037178Y-23450419D01*
X27116290Y-23451662D01*
X27116293Y-23451662D01*
X27123760Y-23451779D01*
X27246209Y-23423735D01*
X27281738Y-23415598D01*
X27281739Y-23415598D01*
X27289029Y-23413928D01*
X27364111Y-23376166D01*
X27433820Y-23341106D01*
X27433822Y-23341105D01*
X27440498Y-23337747D01*
X27446180Y-23332894D01*
X27446183Y-23332892D01*
X27563741Y-23232487D01*
X27569423Y-23227634D01*
X27668361Y-23089947D01*
X27731601Y-22932634D01*
X27755490Y-22764778D01*
X27755645Y-22750000D01*
X27735276Y-22581680D01*
X27675345Y-22423077D01*
X27671108Y-22416912D01*
X27583549Y-22289513D01*
X27583546Y-22289510D01*
X27579312Y-22283349D01*
X27479687Y-22194586D01*
X27458303Y-22175533D01*
X27458301Y-22175532D01*
X27452721Y-22170560D01*
X27302881Y-22091224D01*
X27138441Y-22049919D01*
X27052248Y-22049468D01*
X26976368Y-22049070D01*
X26976367Y-22049070D01*
X26968895Y-22049031D01*
X26946370Y-22054439D01*
X26876588Y-22050949D01*
X26819770Y-22010285D01*
X26793956Y-21945359D01*
X26794659Y-21916394D01*
X26804918Y-21844311D01*
X26804918Y-21844305D01*
X26805490Y-21840289D01*
X26805645Y-21825511D01*
X26785276Y-21657191D01*
X26725345Y-21498588D01*
X26721108Y-21492423D01*
X26633549Y-21365024D01*
X26633546Y-21365021D01*
X26629312Y-21358860D01*
X26502721Y-21246071D01*
X26488347Y-21238460D01*
X26359489Y-21170234D01*
X26352881Y-21166735D01*
X26188441Y-21125430D01*
X26102248Y-21124979D01*
X26026368Y-21124581D01*
X26026367Y-21124581D01*
X26018895Y-21124542D01*
X25997235Y-21129742D01*
X25861295Y-21162379D01*
X25861293Y-21162380D01*
X25854032Y-21164123D01*
X25847399Y-21167546D01*
X25847395Y-21167548D01*
X25780465Y-21202094D01*
X25703369Y-21241886D01*
X25697737Y-21246799D01*
X25689700Y-21253810D01*
X25626241Y-21283046D01*
X25557050Y-21273332D01*
X25520506Y-21248048D01*
X19322110Y-15049652D01*
X19288625Y-14988329D01*
X19287028Y-14944499D01*
X19304918Y-14818797D01*
X19305490Y-14814778D01*
X19305645Y-14800000D01*
X19302273Y-14772138D01*
X19286175Y-14639105D01*
X19286174Y-14639101D01*
X19285276Y-14631680D01*
X19254471Y-14550157D01*
X19227989Y-14480073D01*
X19227987Y-14480070D01*
X19225345Y-14473077D01*
X19201063Y-14437747D01*
X19133549Y-14339513D01*
X19133546Y-14339510D01*
X19129312Y-14333349D01*
X19002721Y-14220560D01*
X18988347Y-14212949D01*
X18915489Y-14174373D01*
X18852881Y-14141224D01*
X18688441Y-14099919D01*
X18602248Y-14099468D01*
X18526368Y-14099070D01*
X18526367Y-14099070D01*
X18518895Y-14099031D01*
X18497235Y-14104231D01*
X18361295Y-14136868D01*
X18361293Y-14136869D01*
X18354032Y-14138612D01*
X18347399Y-14142035D01*
X18347395Y-14142037D01*
X18297588Y-14167745D01*
X18203369Y-14216375D01*
X18197737Y-14221288D01*
X18168951Y-14246400D01*
X18075604Y-14327831D01*
X17978113Y-14466547D01*
X17916524Y-14624513D01*
X17894394Y-14792611D01*
X17895214Y-14800039D01*
X17895214Y-14800041D01*
X17896841Y-14814778D01*
X17912999Y-14961135D01*
X17915565Y-14968147D01*
X17915566Y-14968151D01*
X17927786Y-15001542D01*
X17971266Y-15120356D01*
X17975433Y-15126558D01*
X17975435Y-15126561D01*
X17988510Y-15146018D01*
X18065830Y-15261083D01*
X18071360Y-15266115D01*
X18185702Y-15370159D01*
X18185706Y-15370162D01*
X18191233Y-15375191D01*
X18340235Y-15456092D01*
X18347469Y-15457990D01*
X18347472Y-15457991D01*
X18366593Y-15463007D01*
X18422809Y-15495267D01*
X18715461Y-15787919D01*
X18748946Y-15849242D01*
X18743962Y-15918934D01*
X18702090Y-15974867D01*
X18636626Y-15999284D01*
X18627133Y-15999598D01*
X18581169Y-15999357D01*
X18526368Y-15999070D01*
X18526367Y-15999070D01*
X18518895Y-15999031D01*
X18511631Y-16000775D01*
X18361295Y-16036868D01*
X18361293Y-16036869D01*
X18354032Y-16038612D01*
X18347399Y-16042035D01*
X18347395Y-16042037D01*
X18280465Y-16076583D01*
X18203369Y-16116375D01*
X18197737Y-16121288D01*
X18081659Y-16222549D01*
X18075604Y-16227831D01*
X17978113Y-16366547D01*
X17916524Y-16524513D01*
X17915548Y-16531923D01*
X17915548Y-16531925D01*
X17910645Y-16569172D01*
X17894394Y-16692611D01*
X300500Y-16692611D01*
X300500Y-13840862D01*
X3945497Y-13840862D01*
X3975134Y-14013340D01*
X3977957Y-14019973D01*
X3977957Y-14019975D01*
X3986295Y-14039570D01*
X4043654Y-14174373D01*
X4047921Y-14180171D01*
X4047922Y-14180173D01*
X4105092Y-14257857D01*
X4147383Y-14315324D01*
X4152874Y-14319989D01*
X4152875Y-14319990D01*
X4275261Y-14423965D01*
X4275264Y-14423967D01*
X4280755Y-14428632D01*
X4287172Y-14431909D01*
X4287174Y-14431910D01*
X4343039Y-14460436D01*
X4436616Y-14508219D01*
X4443612Y-14509931D01*
X4443615Y-14509932D01*
X4513769Y-14527098D01*
X4606606Y-14549815D01*
X4612114Y-14550157D01*
X4612116Y-14550157D01*
X4615744Y-14550382D01*
X4615748Y-14550382D01*
X4617648Y-14550500D01*
X4743822Y-14550500D01*
X4873828Y-14535343D01*
X4880595Y-14532887D01*
X4880598Y-14532886D01*
X5031557Y-14478090D01*
X5031558Y-14478089D01*
X5038331Y-14475631D01*
X5184685Y-14379677D01*
X5189637Y-14374449D01*
X5189640Y-14374447D01*
X5300087Y-14257857D01*
X5300089Y-14257855D01*
X5305040Y-14252628D01*
X5308656Y-14246403D01*
X5308658Y-14246400D01*
X5389322Y-14107525D01*
X5392939Y-14101298D01*
X5443667Y-13933807D01*
X5449920Y-13833014D01*
X5454057Y-13766332D01*
X5454057Y-13766329D01*
X5454503Y-13759138D01*
X5424866Y-13586660D01*
X5356346Y-13425627D01*
X5303340Y-13353600D01*
X5256888Y-13290479D01*
X5256886Y-13290477D01*
X5252617Y-13284676D01*
X5172216Y-13216370D01*
X5124739Y-13176035D01*
X5124736Y-13176033D01*
X5119245Y-13171368D01*
X5112828Y-13168091D01*
X5112826Y-13168090D01*
X5022388Y-13121910D01*
X4963384Y-13091781D01*
X4956388Y-13090069D01*
X4956385Y-13090068D01*
X4885237Y-13072659D01*
X4793394Y-13050185D01*
X4787886Y-13049843D01*
X4787884Y-13049843D01*
X4784256Y-13049618D01*
X4784252Y-13049618D01*
X4782352Y-13049500D01*
X4656178Y-13049500D01*
X4526172Y-13064657D01*
X4519405Y-13067113D01*
X4519402Y-13067114D01*
X4368443Y-13121910D01*
X4361669Y-13124369D01*
X4215315Y-13220323D01*
X4210363Y-13225551D01*
X4210360Y-13225553D01*
X4109825Y-13331680D01*
X4094960Y-13347372D01*
X4091344Y-13353597D01*
X4091342Y-13353600D01*
X4049506Y-13425627D01*
X4007061Y-13498702D01*
X3956333Y-13666193D01*
X3945497Y-13840862D01*
X300500Y-13840862D01*
X300500Y-9735262D01*
X11744520Y-9735262D01*
X11761759Y-9940553D01*
X11818544Y-10138586D01*
X11821316Y-10143981D01*
X11821317Y-10143982D01*
X11855892Y-10211257D01*
X11912712Y-10321818D01*
X12040677Y-10483270D01*
X12045296Y-10487201D01*
X12192950Y-10612865D01*
X12192955Y-10612869D01*
X12197564Y-10616791D01*
X12377398Y-10717297D01*
X12573329Y-10780959D01*
X12579347Y-10781677D01*
X12579349Y-10781677D01*
X12721410Y-10798616D01*
X12777894Y-10805351D01*
X12783938Y-10804886D01*
X12783939Y-10804886D01*
X12845266Y-10800167D01*
X12983300Y-10789546D01*
X13068596Y-10765731D01*
X13175885Y-10735776D01*
X13175889Y-10735774D01*
X13181725Y-10734145D01*
X13365610Y-10641258D01*
X13370389Y-10637524D01*
X13370394Y-10637521D01*
X13384132Y-10626787D01*
X13449079Y-10601025D01*
X13460474Y-10600500D01*
X16117060Y-10600500D01*
X16184099Y-10620185D01*
X16204741Y-10636819D01*
X21727496Y-16159574D01*
X21728410Y-16160497D01*
X21790859Y-16224268D01*
X21796684Y-16228022D01*
X21796689Y-16228026D01*
X21826971Y-16247541D01*
X21837160Y-16254862D01*
X21870734Y-16281664D01*
X21900676Y-16296139D01*
X21913863Y-16303539D01*
X21941817Y-16321554D01*
X21967088Y-16330752D01*
X21982191Y-16336249D01*
X21993745Y-16341130D01*
X22032423Y-16359827D01*
X22039178Y-16361387D01*
X22039185Y-16361389D01*
X22064818Y-16367307D01*
X22079332Y-16371606D01*
X22104059Y-16380606D01*
X22104065Y-16380607D01*
X22110578Y-16382978D01*
X22150702Y-16388047D01*
X22153190Y-16388361D01*
X22165544Y-16390561D01*
X22200653Y-16398667D01*
X22200655Y-16398667D01*
X22207411Y-16400227D01*
X22223975Y-16400285D01*
X22247586Y-16400367D01*
X22248463Y-16400396D01*
X22249283Y-16400500D01*
X22285586Y-16400500D01*
X22286018Y-16400501D01*
X22383513Y-16400841D01*
X22383516Y-16400841D01*
X22387001Y-16400853D01*
X22388187Y-16400588D01*
X22389809Y-16400500D01*
X24074049Y-16400500D01*
X24141088Y-16420185D01*
X24154413Y-16430067D01*
X24197564Y-16466791D01*
X24377398Y-16567297D01*
X24522785Y-16614536D01*
X24555448Y-16625149D01*
X24573329Y-16630959D01*
X24579347Y-16631677D01*
X24579349Y-16631677D01*
X24721410Y-16648616D01*
X24777894Y-16655351D01*
X24783938Y-16654886D01*
X24783939Y-16654886D01*
X24968659Y-16640673D01*
X25037011Y-16655157D01*
X25086682Y-16704295D01*
X25101902Y-16772487D01*
X25077838Y-16838082D01*
X25065853Y-16851989D01*
X24311257Y-17606585D01*
X24302484Y-17613596D01*
X24302849Y-17614025D01*
X24296122Y-17619751D01*
X24288650Y-17624465D01*
X24282802Y-17631087D01*
X24255456Y-17662050D01*
X24250195Y-17667647D01*
X24239627Y-17678215D01*
X24236981Y-17681746D01*
X24233911Y-17685842D01*
X24227630Y-17693557D01*
X24198487Y-17726555D01*
X24194732Y-17734553D01*
X24191708Y-17739157D01*
X24186563Y-17747719D01*
X24183925Y-17752537D01*
X24178628Y-17759605D01*
X24170745Y-17780633D01*
X24163172Y-17800834D01*
X24159309Y-17810003D01*
X24140601Y-17849848D01*
X24139242Y-17858577D01*
X24137632Y-17863843D01*
X24135095Y-17873511D01*
X24133916Y-17878874D01*
X24130816Y-17887143D01*
X24130162Y-17895948D01*
X24130161Y-17895952D01*
X24127554Y-17931047D01*
X24126420Y-17940926D01*
X24125704Y-17945527D01*
X24095945Y-18008742D01*
X24084689Y-18019905D01*
X24081242Y-18022912D01*
X24081239Y-18022915D01*
X24075604Y-18027831D01*
X24071308Y-18033944D01*
X24071305Y-18033947D01*
X24043588Y-18073385D01*
X23978113Y-18166547D01*
X23916524Y-18324513D01*
X23894394Y-18492611D01*
X23895214Y-18500039D01*
X23895214Y-18500041D01*
X23904061Y-18580173D01*
X23912999Y-18661135D01*
X23915565Y-18668147D01*
X23915566Y-18668151D01*
X23957826Y-18783630D01*
X23971266Y-18820356D01*
X23975433Y-18826558D01*
X23975435Y-18826561D01*
X24028106Y-18904943D01*
X24065830Y-18961083D01*
X24071360Y-18966115D01*
X24185702Y-19070159D01*
X24185706Y-19070162D01*
X24191233Y-19075191D01*
X24340235Y-19156092D01*
X24379432Y-19166375D01*
X24497005Y-19197220D01*
X24497007Y-19197220D01*
X24504233Y-19199116D01*
X24587178Y-19200419D01*
X24666290Y-19201662D01*
X24666293Y-19201662D01*
X24673760Y-19201779D01*
X24828345Y-19166375D01*
X24831738Y-19165598D01*
X24831739Y-19165598D01*
X24839029Y-19163928D01*
X24916554Y-19124937D01*
X24983820Y-19091106D01*
X24983822Y-19091105D01*
X24990498Y-19087747D01*
X24996180Y-19082894D01*
X24996183Y-19082892D01*
X25113741Y-18982487D01*
X25119423Y-18977634D01*
X25173674Y-18902136D01*
X25228776Y-18859184D01*
X25298357Y-18852840D01*
X25360322Y-18885122D01*
X25368306Y-18893555D01*
X25378433Y-18905308D01*
X25378438Y-18905313D01*
X25384204Y-18912004D01*
X25391618Y-18916810D01*
X25398272Y-18922614D01*
X25398223Y-18922670D01*
X25408643Y-18931101D01*
X26516285Y-20038743D01*
X26523296Y-20047516D01*
X26523725Y-20047151D01*
X26529451Y-20053878D01*
X26534165Y-20061350D01*
X26540787Y-20067198D01*
X26571750Y-20094544D01*
X26577347Y-20099805D01*
X26587915Y-20110373D01*
X26591446Y-20113019D01*
X26595542Y-20116089D01*
X26603257Y-20122370D01*
X26636255Y-20151513D01*
X26644253Y-20155268D01*
X26648857Y-20158292D01*
X26657419Y-20163437D01*
X26662237Y-20166075D01*
X26669305Y-20171372D01*
X26705685Y-20185010D01*
X26710534Y-20186828D01*
X26719703Y-20190691D01*
X26759548Y-20209399D01*
X26768277Y-20210758D01*
X26773543Y-20212368D01*
X26783211Y-20214905D01*
X26788574Y-20216084D01*
X26796843Y-20219184D01*
X26805648Y-20219838D01*
X26805652Y-20219839D01*
X26840747Y-20222446D01*
X26850638Y-20223582D01*
X26853593Y-20224042D01*
X26862956Y-20225500D01*
X26877244Y-20225500D01*
X26886432Y-20225841D01*
X26932674Y-20229277D01*
X26941315Y-20227433D01*
X26950126Y-20226832D01*
X26950131Y-20226907D01*
X26963455Y-20225500D01*
X39633702Y-20225500D01*
X39700741Y-20245185D01*
X39717155Y-20257785D01*
X39791233Y-20325191D01*
X39940235Y-20406092D01*
X40035585Y-20431107D01*
X40097005Y-20447220D01*
X40097007Y-20447220D01*
X40104233Y-20449116D01*
X40187178Y-20450419D01*
X40266290Y-20451662D01*
X40266293Y-20451662D01*
X40273760Y-20451779D01*
X40396209Y-20423735D01*
X40431738Y-20415598D01*
X40431739Y-20415598D01*
X40439029Y-20413928D01*
X40514111Y-20376166D01*
X40583820Y-20341106D01*
X40583822Y-20341105D01*
X40590498Y-20337747D01*
X40596180Y-20332894D01*
X40596183Y-20332892D01*
X40713741Y-20232487D01*
X40719423Y-20227634D01*
X40818361Y-20089947D01*
X40881601Y-19932634D01*
X40905490Y-19764778D01*
X40905645Y-19750000D01*
X40885276Y-19581680D01*
X40825345Y-19423077D01*
X40821108Y-19416912D01*
X40733549Y-19289513D01*
X40733546Y-19289510D01*
X40729312Y-19283349D01*
X40685082Y-19243941D01*
X40655412Y-19217506D01*
X40618453Y-19158212D01*
X40619418Y-19088349D01*
X40657370Y-19030633D01*
X40713737Y-18982491D01*
X40713741Y-18982487D01*
X40719423Y-18977634D01*
X40818361Y-18839947D01*
X40881601Y-18682634D01*
X40884661Y-18661135D01*
X40904918Y-18518800D01*
X40904918Y-18518794D01*
X40905490Y-18514778D01*
X40905645Y-18500000D01*
X40885276Y-18331680D01*
X40850959Y-18240862D01*
X40827989Y-18180073D01*
X40827987Y-18180070D01*
X40825345Y-18173077D01*
X40815765Y-18159138D01*
X40733549Y-18039513D01*
X40733546Y-18039510D01*
X40729312Y-18033349D01*
X40655412Y-17967506D01*
X40618453Y-17908212D01*
X40619418Y-17838349D01*
X40657370Y-17780633D01*
X40713737Y-17732491D01*
X40713740Y-17732488D01*
X40719423Y-17727634D01*
X40818361Y-17589947D01*
X40881601Y-17432634D01*
X40882654Y-17425237D01*
X40904918Y-17268800D01*
X40904918Y-17268794D01*
X40905490Y-17264778D01*
X40905645Y-17250000D01*
X40901453Y-17215359D01*
X40886175Y-17089105D01*
X40886174Y-17089101D01*
X40885276Y-17081680D01*
X40857678Y-17008643D01*
X40827989Y-16930073D01*
X40827987Y-16930070D01*
X40825345Y-16923077D01*
X40821108Y-16916912D01*
X40733549Y-16789513D01*
X40733546Y-16789510D01*
X40729312Y-16783349D01*
X40689973Y-16748299D01*
X40655412Y-16717506D01*
X40618453Y-16658212D01*
X40619418Y-16588349D01*
X40657370Y-16530633D01*
X40713737Y-16482491D01*
X40713740Y-16482488D01*
X40719423Y-16477634D01*
X40818361Y-16339947D01*
X40881601Y-16182634D01*
X40883662Y-16168151D01*
X40904918Y-16018800D01*
X40904918Y-16018794D01*
X40905490Y-16014778D01*
X40905645Y-16000000D01*
X40895835Y-15918934D01*
X40886175Y-15839105D01*
X40886174Y-15839101D01*
X40885276Y-15831680D01*
X40825345Y-15673077D01*
X40780329Y-15607578D01*
X40733549Y-15539513D01*
X40733546Y-15539510D01*
X40729312Y-15533349D01*
X40684064Y-15493034D01*
X40647105Y-15433742D01*
X40648069Y-15363879D01*
X40686021Y-15306162D01*
X40713741Y-15282487D01*
X40719423Y-15277634D01*
X40818361Y-15139947D01*
X40881601Y-14982634D01*
X40885718Y-14953707D01*
X40904918Y-14818800D01*
X40904918Y-14818794D01*
X40905490Y-14814778D01*
X40905645Y-14800000D01*
X40902273Y-14772138D01*
X40886175Y-14639105D01*
X40886174Y-14639101D01*
X40885276Y-14631680D01*
X40854471Y-14550157D01*
X40827989Y-14480073D01*
X40827987Y-14480070D01*
X40825345Y-14473077D01*
X40801063Y-14437747D01*
X40733549Y-14339513D01*
X40733546Y-14339510D01*
X40729312Y-14333349D01*
X40626760Y-14241978D01*
X40589801Y-14182684D01*
X40590766Y-14112821D01*
X40628717Y-14055105D01*
X40713741Y-13982487D01*
X40719423Y-13977634D01*
X40818361Y-13839947D01*
X40881601Y-13682634D01*
X40882654Y-13675237D01*
X40904918Y-13518800D01*
X40904918Y-13518794D01*
X40905490Y-13514778D01*
X40905645Y-13500000D01*
X40904734Y-13492475D01*
X40886175Y-13339105D01*
X40886174Y-13339101D01*
X40885276Y-13331680D01*
X40876254Y-13307805D01*
X40827989Y-13180073D01*
X40827987Y-13180070D01*
X40825345Y-13173077D01*
X40771723Y-13095057D01*
X40733549Y-13039513D01*
X40733546Y-13039510D01*
X40729312Y-13033349D01*
X40602721Y-12920560D01*
X40452881Y-12841224D01*
X40288441Y-12799919D01*
X40222749Y-12799575D01*
X40155813Y-12779540D01*
X40135717Y-12763258D01*
X37583715Y-10211257D01*
X37576704Y-10202484D01*
X37576275Y-10202849D01*
X37570549Y-10196122D01*
X37565835Y-10188650D01*
X37528250Y-10155456D01*
X37522653Y-10150195D01*
X37512085Y-10139627D01*
X37504456Y-10133909D01*
X37496737Y-10127625D01*
X37470368Y-10104336D01*
X37470367Y-10104335D01*
X37463745Y-10098487D01*
X37455747Y-10094732D01*
X37451143Y-10091708D01*
X37442581Y-10086563D01*
X37437763Y-10083925D01*
X37430695Y-10078628D01*
X37389466Y-10063172D01*
X37380296Y-10059308D01*
X37348448Y-10044355D01*
X37348447Y-10044355D01*
X37340452Y-10040601D01*
X37331723Y-10039242D01*
X37326457Y-10037632D01*
X37316789Y-10035095D01*
X37311426Y-10033916D01*
X37303157Y-10030816D01*
X37294352Y-10030162D01*
X37294348Y-10030161D01*
X37259253Y-10027554D01*
X37249362Y-10026418D01*
X37246407Y-10025958D01*
X37237044Y-10024500D01*
X37222756Y-10024500D01*
X37213568Y-10024159D01*
X37211875Y-10024033D01*
X37167326Y-10020723D01*
X37158685Y-10022567D01*
X37149874Y-10023168D01*
X37149869Y-10023093D01*
X37136545Y-10024500D01*
X30698152Y-10024500D01*
X30631113Y-10004815D01*
X30585358Y-9952011D01*
X30575414Y-9882853D01*
X30604439Y-9819297D01*
X30663217Y-9781523D01*
X30670444Y-9779636D01*
X30739029Y-9763928D01*
X30851027Y-9707599D01*
X30883820Y-9691106D01*
X30883822Y-9691105D01*
X30890498Y-9687747D01*
X30896180Y-9682894D01*
X30896183Y-9682892D01*
X31013741Y-9582487D01*
X31019423Y-9577634D01*
X31118361Y-9439947D01*
X31181601Y-9282634D01*
X31187678Y-9239937D01*
X31204918Y-9118800D01*
X31204918Y-9118794D01*
X31205490Y-9114778D01*
X31205645Y-9100000D01*
X31200668Y-9058870D01*
X31186175Y-8939105D01*
X31186174Y-8939101D01*
X31185276Y-8931680D01*
X31125345Y-8773077D01*
X31127076Y-8772423D01*
X31115355Y-8713415D01*
X31140954Y-8648404D01*
X31197637Y-8607552D01*
X31238859Y-8600500D01*
X39145155Y-8600500D01*
X39148602Y-8600113D01*
X39148608Y-8600113D01*
X39271581Y-8586319D01*
X39278472Y-8585546D01*
X39448073Y-8526485D01*
X39600375Y-8431316D01*
X39727807Y-8304770D01*
X39824037Y-8153136D01*
X39827025Y-8144746D01*
X39881957Y-7990479D01*
X39881958Y-7990475D01*
X39884281Y-7983951D01*
X39905545Y-7805624D01*
X39886773Y-7627017D01*
X39828897Y-7457007D01*
X39734794Y-7304045D01*
X39609141Y-7175732D01*
X39458183Y-7078446D01*
X39323664Y-7029485D01*
X39295937Y-7019393D01*
X39295935Y-7019392D01*
X39289422Y-7017022D01*
X39231192Y-7009666D01*
X39154583Y-6999988D01*
X39154577Y-6999988D01*
X39150717Y-6999500D01*
X27509062Y-6999500D01*
X27507763Y-6999493D01*
X27507019Y-6999485D01*
X27418593Y-6998559D01*
X27411816Y-7000024D01*
X27411808Y-7000025D01*
X27376598Y-7007638D01*
X27364218Y-7009665D01*
X27345612Y-7011752D01*
X27328418Y-7013681D01*
X27328417Y-7013681D01*
X27321528Y-7014454D01*
X27290127Y-7025389D01*
X27275556Y-7029485D01*
X27249833Y-7035046D01*
X27249831Y-7035047D01*
X27243058Y-7036511D01*
X27204127Y-7054665D01*
X27192503Y-7059384D01*
X27158479Y-7071233D01*
X27158476Y-7071234D01*
X27151927Y-7073515D01*
X27132070Y-7085923D01*
X27123730Y-7091134D01*
X27110429Y-7098356D01*
X27095530Y-7105304D01*
X27080292Y-7112410D01*
X27074816Y-7116657D01*
X27074817Y-7116657D01*
X27046349Y-7138739D01*
X27036058Y-7145918D01*
X26999625Y-7168684D01*
X26971107Y-7197003D01*
X26970486Y-7197584D01*
X26969823Y-7198099D01*
X26943963Y-7223959D01*
X26872193Y-7295230D01*
X26871543Y-7296254D01*
X26870451Y-7297471D01*
X24840426Y-9327496D01*
X24839503Y-9328410D01*
X24775732Y-9390859D01*
X24771978Y-9396684D01*
X24771974Y-9396689D01*
X24752459Y-9426971D01*
X24745138Y-9437160D01*
X24718336Y-9470734D01*
X24703866Y-9500667D01*
X24696459Y-9513867D01*
X24678446Y-9541817D01*
X24663752Y-9582188D01*
X24658871Y-9593742D01*
X24640173Y-9632422D01*
X24638614Y-9639174D01*
X24638612Y-9639180D01*
X24632694Y-9664817D01*
X24628397Y-9679325D01*
X24617022Y-9710578D01*
X24613904Y-9735262D01*
X24611637Y-9753202D01*
X24609437Y-9765550D01*
X24601689Y-9799116D01*
X24599774Y-9807411D01*
X24599697Y-9829290D01*
X24599633Y-9847574D01*
X24599604Y-9848457D01*
X24599500Y-9849283D01*
X24599500Y-9885892D01*
X24599147Y-9987000D01*
X24599412Y-9988186D01*
X24599500Y-9989807D01*
X24599500Y-14471146D01*
X24579815Y-14538185D01*
X24527011Y-14583940D01*
X24510510Y-14590101D01*
X24417246Y-14617550D01*
X24404572Y-14621280D01*
X24222002Y-14716726D01*
X24153081Y-14772139D01*
X24088503Y-14798804D01*
X24075385Y-14799500D01*
X22682940Y-14799500D01*
X22615901Y-14779815D01*
X22595259Y-14763181D01*
X17072504Y-9240426D01*
X17071590Y-9239503D01*
X17013992Y-9180686D01*
X17009141Y-9175732D01*
X17003316Y-9171978D01*
X17003311Y-9171974D01*
X16973029Y-9152459D01*
X16962840Y-9145138D01*
X16955610Y-9139367D01*
X16929266Y-9118336D01*
X16899330Y-9103864D01*
X16886132Y-9096458D01*
X16864008Y-9082200D01*
X16858183Y-9078446D01*
X16817809Y-9063751D01*
X16806255Y-9058870D01*
X16773821Y-9043191D01*
X16773822Y-9043191D01*
X16767578Y-9040173D01*
X16760826Y-9038614D01*
X16760820Y-9038612D01*
X16735183Y-9032694D01*
X16720675Y-9028397D01*
X16689422Y-9017022D01*
X16661962Y-9013553D01*
X16646798Y-9011637D01*
X16634450Y-9009437D01*
X16599347Y-9001334D01*
X16599346Y-9001334D01*
X16592589Y-8999774D01*
X16570710Y-8999697D01*
X16552426Y-8999633D01*
X16551543Y-8999604D01*
X16550717Y-8999500D01*
X16514255Y-8999500D01*
X16513822Y-8999499D01*
X16416489Y-8999159D01*
X16416486Y-8999159D01*
X16413000Y-8999147D01*
X16411814Y-8999412D01*
X16410193Y-8999500D01*
X13585556Y-8999500D01*
X13518517Y-8979815D01*
X13506515Y-8971044D01*
X13394946Y-8878746D01*
X13394945Y-8878745D01*
X13390275Y-8874882D01*
X13209055Y-8776897D01*
X13199991Y-8774091D01*
X13018046Y-8717770D01*
X13018047Y-8717770D01*
X13012254Y-8715977D01*
X12807369Y-8694443D01*
X12801336Y-8694992D01*
X12801332Y-8694992D01*
X12675721Y-8706424D01*
X12602203Y-8713114D01*
X12596390Y-8714825D01*
X12596389Y-8714825D01*
X12503557Y-8742147D01*
X12404572Y-8771280D01*
X12326336Y-8812181D01*
X12227374Y-8863917D01*
X12227370Y-8863920D01*
X12222002Y-8866726D01*
X12217279Y-8870523D01*
X12217278Y-8870524D01*
X12149918Y-8924683D01*
X12061447Y-8995815D01*
X11929024Y-9153630D01*
X11829776Y-9334162D01*
X11827942Y-9339944D01*
X11827941Y-9339946D01*
X11774792Y-9507495D01*
X11767484Y-9530532D01*
X11766808Y-9536560D01*
X11746518Y-9717452D01*
X11744520Y-9735262D01*
X300500Y-9735262D01*
X300500Y-6099730D01*
X1153985Y-6099730D01*
X1154114Y-6101536D01*
X1157412Y-6106668D01*
X1437402Y-6333400D01*
X1442656Y-6337217D01*
X1744871Y-6533477D01*
X1750491Y-6536722D01*
X2071576Y-6700323D01*
X2077499Y-6702961D01*
X2413935Y-6832106D01*
X2420080Y-6834103D01*
X2768169Y-6927373D01*
X2774528Y-6928725D01*
X3130442Y-6985095D01*
X3136886Y-6985773D01*
X3496756Y-7004633D01*
X3503244Y-7004633D01*
X3863114Y-6985773D01*
X3869558Y-6985095D01*
X4225472Y-6928725D01*
X4231831Y-6927373D01*
X4579920Y-6834103D01*
X4586065Y-6832106D01*
X4922501Y-6702961D01*
X4928424Y-6700323D01*
X5249509Y-6536722D01*
X5255129Y-6533477D01*
X5557344Y-6337217D01*
X5562598Y-6333400D01*
X5839761Y-6108957D01*
X5844799Y-6099730D01*
X42153985Y-6099730D01*
X42154114Y-6101536D01*
X42157412Y-6106668D01*
X42437402Y-6333400D01*
X42442656Y-6337217D01*
X42744871Y-6533477D01*
X42750491Y-6536722D01*
X43071576Y-6700323D01*
X43077499Y-6702961D01*
X43413935Y-6832106D01*
X43420080Y-6834103D01*
X43768169Y-6927373D01*
X43774528Y-6928725D01*
X44130442Y-6985095D01*
X44136886Y-6985773D01*
X44496756Y-7004633D01*
X44503244Y-7004633D01*
X44863114Y-6985773D01*
X44869558Y-6985095D01*
X45225472Y-6928725D01*
X45231831Y-6927373D01*
X45579920Y-6834103D01*
X45586065Y-6832106D01*
X45922501Y-6702961D01*
X45928424Y-6700323D01*
X46249509Y-6536722D01*
X46255129Y-6533477D01*
X46557344Y-6337217D01*
X46562598Y-6333400D01*
X46839761Y-6108957D01*
X46846015Y-6097504D01*
X46845886Y-6095698D01*
X46841704Y-6089191D01*
X45627703Y-4875191D01*
X45550053Y-4797541D01*
X44512607Y-3760094D01*
X44498887Y-3752602D01*
X44497081Y-3752731D01*
X44490574Y-3756913D01*
X43449947Y-4797541D01*
X43372297Y-4875191D01*
X42161477Y-6086010D01*
X42153985Y-6099730D01*
X5844799Y-6099730D01*
X5846015Y-6097504D01*
X5845886Y-6095698D01*
X5841704Y-6089191D01*
X4627703Y-4875191D01*
X4550053Y-4797541D01*
X3512607Y-3760094D01*
X3498887Y-3752602D01*
X3497081Y-3752731D01*
X3490574Y-3756913D01*
X2449947Y-4797541D01*
X2372297Y-4875191D01*
X1161477Y-6086010D01*
X1153985Y-6099730D01*
X300500Y-6099730D01*
X300500Y-5418092D01*
X320185Y-5351053D01*
X372989Y-5305298D01*
X442147Y-5295354D01*
X505703Y-5324379D01*
X528495Y-5350557D01*
X662783Y-5557344D01*
X666600Y-5562598D01*
X891043Y-5839761D01*
X902496Y-5846015D01*
X904302Y-5845886D01*
X910809Y-5841704D01*
X2169468Y-4583044D01*
X2202459Y-4550053D01*
X3251400Y-3501113D01*
X3752602Y-3501113D01*
X3752731Y-3502919D01*
X3756913Y-3509426D01*
X4797541Y-4550053D01*
X4830532Y-4583044D01*
X6086010Y-5838523D01*
X6099730Y-5846015D01*
X6101536Y-5845886D01*
X6106668Y-5842588D01*
X6333400Y-5562598D01*
X6337217Y-5557344D01*
X6533477Y-5255129D01*
X6536722Y-5249508D01*
X6700323Y-4928424D01*
X6702961Y-4922501D01*
X6832106Y-4586065D01*
X6834103Y-4579920D01*
X6927373Y-4231831D01*
X6928725Y-4225472D01*
X6985095Y-3869558D01*
X6985773Y-3863114D01*
X7004633Y-3503244D01*
X7004633Y-3496756D01*
X6985773Y-3136886D01*
X6985095Y-3130442D01*
X6928725Y-2774528D01*
X6927373Y-2768169D01*
X6834103Y-2420080D01*
X6832106Y-2413935D01*
X6702961Y-2077499D01*
X6700323Y-2071576D01*
X6536722Y-1750492D01*
X6533477Y-1744871D01*
X6337217Y-1442656D01*
X6333400Y-1437402D01*
X6108957Y-1160239D01*
X6097504Y-1153985D01*
X6095698Y-1154114D01*
X6089191Y-1158296D01*
X5079830Y-2167658D01*
X4797541Y-2449947D01*
X3760094Y-3487393D01*
X3752602Y-3501113D01*
X3251400Y-3501113D01*
X3500000Y-3252513D01*
X4550053Y-2202459D01*
X4869878Y-1882634D01*
X5838523Y-913990D01*
X5846015Y-900270D01*
X5845886Y-898464D01*
X5842588Y-893332D01*
X5562598Y-666600D01*
X5557344Y-662783D01*
X5350558Y-528495D01*
X5305055Y-475474D01*
X5295441Y-406269D01*
X5324768Y-342852D01*
X5383725Y-305358D01*
X5418093Y-300500D01*
X23969808Y-300500D01*
X24036847Y-320185D01*
G37*
%TD.AperFunction*%
%TA.AperFunction,Conductor*%
G36*
X29746052Y-12128920D02*
G01*
X29801985Y-12170792D01*
X29819165Y-12202488D01*
X29868694Y-12337829D01*
X29871266Y-12344856D01*
X29875433Y-12351058D01*
X29875435Y-12351061D01*
X29936421Y-12441817D01*
X29965830Y-12485583D01*
X29971360Y-12490615D01*
X30085702Y-12594659D01*
X30085706Y-12594662D01*
X30091233Y-12599691D01*
X30240235Y-12680592D01*
X30335585Y-12705607D01*
X30397005Y-12721720D01*
X30397007Y-12721720D01*
X30404233Y-12723616D01*
X30487178Y-12724919D01*
X30566290Y-12726162D01*
X30566293Y-12726162D01*
X30573760Y-12726279D01*
X30696209Y-12698235D01*
X30731738Y-12690098D01*
X30731739Y-12690098D01*
X30739029Y-12688428D01*
X30814111Y-12650666D01*
X30883820Y-12615606D01*
X30883822Y-12615605D01*
X30890498Y-12612247D01*
X30957280Y-12555210D01*
X31021040Y-12526639D01*
X31037811Y-12525500D01*
X36001680Y-12525500D01*
X36068719Y-12545185D01*
X36089361Y-12561819D01*
X39460406Y-15932864D01*
X39493891Y-15994187D01*
X39495975Y-16006932D01*
X39512999Y-16161135D01*
X39515565Y-16168147D01*
X39515566Y-16168151D01*
X39557107Y-16281664D01*
X39571266Y-16320356D01*
X39575433Y-16326558D01*
X39575435Y-16326561D01*
X39603961Y-16369012D01*
X39665830Y-16461083D01*
X39671362Y-16466117D01*
X39671364Y-16466119D01*
X39745396Y-16533483D01*
X39781733Y-16593160D01*
X39780037Y-16663009D01*
X39743459Y-16718638D01*
X39675604Y-16777831D01*
X39671567Y-16783575D01*
X39612244Y-16820121D01*
X39579583Y-16824500D01*
X27467153Y-16824500D01*
X27455995Y-16823254D01*
X27455950Y-16823816D01*
X27447143Y-16823107D01*
X27438527Y-16821158D01*
X27429710Y-16821705D01*
X27429709Y-16821705D01*
X27388495Y-16824262D01*
X27380817Y-16824500D01*
X27365855Y-16824500D01*
X27356405Y-16825853D01*
X27346514Y-16826866D01*
X27326847Y-16828087D01*
X27302583Y-16829592D01*
X27294269Y-16832593D01*
X27288891Y-16833707D01*
X27279172Y-16836130D01*
X27273919Y-16837666D01*
X27265171Y-16838919D01*
X27257127Y-16842576D01*
X27257128Y-16842576D01*
X27225098Y-16857139D01*
X27215879Y-16860892D01*
X27182782Y-16872840D01*
X27182780Y-16872841D01*
X27174470Y-16875841D01*
X27167335Y-16881054D01*
X27162486Y-16883632D01*
X27153841Y-16888684D01*
X27149223Y-16891637D01*
X27141180Y-16895294D01*
X27107815Y-16924044D01*
X27100039Y-16930217D01*
X27089965Y-16937577D01*
X27079873Y-16947669D01*
X27073135Y-16953926D01*
X27037996Y-16984204D01*
X27033190Y-16991619D01*
X27027386Y-16998272D01*
X27027330Y-16998223D01*
X27018899Y-17008643D01*
X26812183Y-17215359D01*
X26750860Y-17248844D01*
X26723853Y-17251676D01*
X26674023Y-17251415D01*
X26674022Y-17251415D01*
X26666550Y-17251376D01*
X26659286Y-17253120D01*
X26508950Y-17289213D01*
X26508948Y-17289214D01*
X26501687Y-17290957D01*
X26495054Y-17294380D01*
X26495050Y-17294382D01*
X26428120Y-17328928D01*
X26351024Y-17368720D01*
X26345392Y-17373633D01*
X26318354Y-17397220D01*
X26279527Y-17431091D01*
X26278543Y-17431949D01*
X26215085Y-17461185D01*
X26145893Y-17451472D01*
X26114542Y-17431091D01*
X26108308Y-17425537D01*
X26108303Y-17425534D01*
X26102721Y-17420560D01*
X26080752Y-17408928D01*
X26030717Y-17360160D01*
X26014991Y-17292084D01*
X26038566Y-17226311D01*
X26051097Y-17211661D01*
X26688743Y-16574015D01*
X26697516Y-16567004D01*
X26697151Y-16566575D01*
X26703878Y-16560849D01*
X26711350Y-16556135D01*
X26744544Y-16518550D01*
X26749805Y-16512953D01*
X26760373Y-16502385D01*
X26766091Y-16494756D01*
X26772375Y-16487037D01*
X26795664Y-16460668D01*
X26795665Y-16460667D01*
X26801513Y-16454045D01*
X26805268Y-16446047D01*
X26808292Y-16441443D01*
X26813442Y-16432871D01*
X26816074Y-16428064D01*
X26821372Y-16420995D01*
X26833310Y-16389149D01*
X26836828Y-16379765D01*
X26840694Y-16370592D01*
X26847165Y-16356809D01*
X26859399Y-16330752D01*
X26860758Y-16322023D01*
X26862360Y-16316785D01*
X26864910Y-16307064D01*
X26866084Y-16301725D01*
X26869183Y-16293457D01*
X26870060Y-16281664D01*
X26872444Y-16249568D01*
X26873580Y-16239673D01*
X26874763Y-16232080D01*
X26874763Y-16232074D01*
X26875500Y-16227344D01*
X26875500Y-16213052D01*
X26875841Y-16203863D01*
X26879277Y-16157626D01*
X26877433Y-16148986D01*
X26876832Y-16140173D01*
X26876906Y-16140168D01*
X26875500Y-16126845D01*
X26875500Y-14649836D01*
X26895185Y-14582797D01*
X26947989Y-14537042D01*
X27017147Y-14527098D01*
X27030966Y-14529895D01*
X27097005Y-14547220D01*
X27097007Y-14547220D01*
X27104233Y-14549116D01*
X27184827Y-14550382D01*
X27266290Y-14551662D01*
X27266293Y-14551662D01*
X27273760Y-14551779D01*
X27396209Y-14523735D01*
X27431738Y-14515598D01*
X27431739Y-14515598D01*
X27439029Y-14513928D01*
X27545386Y-14460436D01*
X27583820Y-14441106D01*
X27583822Y-14441105D01*
X27590498Y-14437747D01*
X27596180Y-14432894D01*
X27596183Y-14432892D01*
X27713741Y-14332487D01*
X27719423Y-14327634D01*
X27818361Y-14189947D01*
X27881601Y-14032634D01*
X27882032Y-14029604D01*
X27917416Y-13971550D01*
X27980262Y-13941019D01*
X28032291Y-13943360D01*
X28047005Y-13947220D01*
X28047007Y-13947220D01*
X28054233Y-13949116D01*
X28137178Y-13950419D01*
X28216290Y-13951662D01*
X28216293Y-13951662D01*
X28223760Y-13951779D01*
X28346209Y-13923735D01*
X28381738Y-13915598D01*
X28381739Y-13915598D01*
X28389029Y-13913928D01*
X28524053Y-13846018D01*
X28533820Y-13841106D01*
X28533822Y-13841105D01*
X28540498Y-13837747D01*
X28546180Y-13832894D01*
X28546183Y-13832892D01*
X28663741Y-13732487D01*
X28669423Y-13727634D01*
X28768361Y-13589947D01*
X28831601Y-13432634D01*
X28842849Y-13353600D01*
X28854918Y-13268800D01*
X28854918Y-13268794D01*
X28855490Y-13264778D01*
X28855645Y-13250000D01*
X28846336Y-13173077D01*
X28836174Y-13089100D01*
X28836174Y-13089099D01*
X28835276Y-13081680D01*
X28823949Y-13051704D01*
X28818667Y-12982034D01*
X28852264Y-12920194D01*
X29615037Y-12157421D01*
X29676360Y-12123936D01*
X29746052Y-12128920D01*
G37*
%TD.AperFunction*%
%TA.AperFunction,Conductor*%
G36*
X29494718Y-8620185D02*
G01*
X29540473Y-8672989D01*
X29550417Y-8742147D01*
X29521392Y-8805703D01*
X29515360Y-8812181D01*
X26412181Y-11915361D01*
X26350858Y-11948846D01*
X26281166Y-11943862D01*
X26225233Y-11901990D01*
X26200816Y-11836526D01*
X26200500Y-11827680D01*
X26200500Y-10282940D01*
X26220185Y-10215901D01*
X26236819Y-10195259D01*
X27795259Y-8636819D01*
X27856582Y-8603334D01*
X27882940Y-8600500D01*
X29427679Y-8600500D01*
X29494718Y-8620185D01*
G37*
%TD.AperFunction*%
%TA.AperFunction,Conductor*%
G36*
X45840875Y-29609233D02*
G01*
X45885222Y-29637734D01*
X46197056Y-29949569D01*
X46756378Y-30508890D01*
X46789863Y-30570213D01*
X46784879Y-30639905D01*
X46756378Y-30684252D01*
X46684252Y-30756378D01*
X46622929Y-30789863D01*
X46553237Y-30784879D01*
X46508890Y-30756378D01*
X45949569Y-30197056D01*
X45637734Y-29885222D01*
X45604249Y-29823899D01*
X45609233Y-29754207D01*
X45637734Y-29709860D01*
X45709860Y-29637734D01*
X45771183Y-29604249D01*
X45840875Y-29609233D01*
G37*
%TD.AperFunction*%
%TA.AperFunction,Conductor*%
G36*
X2245793Y-29609233D02*
G01*
X2290140Y-29637734D01*
X2362266Y-29709860D01*
X2395751Y-29771183D01*
X2390767Y-29840875D01*
X2362266Y-29885222D01*
X1802944Y-30444543D01*
X1491110Y-30756378D01*
X1429787Y-30789863D01*
X1360095Y-30784879D01*
X1315748Y-30756378D01*
X1243622Y-30684252D01*
X1210137Y-30622929D01*
X1215121Y-30553237D01*
X1243622Y-30508890D01*
X1802944Y-29949569D01*
X2114778Y-29637734D01*
X2176101Y-29604249D01*
X2245793Y-29609233D01*
G37*
%TD.AperFunction*%
%TA.AperFunction,Conductor*%
G36*
X1446763Y-1215121D02*
G01*
X1491110Y-1243622D01*
X1802944Y-1555457D01*
X2362266Y-2114778D01*
X2395751Y-2176101D01*
X2390767Y-2245793D01*
X2362266Y-2290140D01*
X2290140Y-2362266D01*
X2228817Y-2395751D01*
X2159125Y-2390767D01*
X2114778Y-2362266D01*
X1555457Y-1802944D01*
X1243622Y-1491110D01*
X1210137Y-1429787D01*
X1215121Y-1360095D01*
X1243622Y-1315748D01*
X1315748Y-1243622D01*
X1377071Y-1210137D01*
X1446763Y-1215121D01*
G37*
%TD.AperFunction*%
%TA.AperFunction,Conductor*%
G36*
X46639905Y-1215121D02*
G01*
X46684252Y-1243622D01*
X46756378Y-1315748D01*
X46789863Y-1377071D01*
X46784879Y-1446763D01*
X46756378Y-1491110D01*
X46197056Y-2050431D01*
X45885222Y-2362266D01*
X45823899Y-2395751D01*
X45754207Y-2390767D01*
X45709860Y-2362266D01*
X45637734Y-2290140D01*
X45604249Y-2228817D01*
X45609233Y-2159125D01*
X45637734Y-2114778D01*
X46197056Y-1555457D01*
X46508890Y-1243622D01*
X46570213Y-1210137D01*
X46639905Y-1215121D01*
G37*
%TD.AperFunction*%
%TD*%
M02*
