%TF.GenerationSoftware,KiCad,Pcbnew,(6.0.1-0)*%
%TF.CreationDate,2022-04-28T20:36:40+12:00*%
%TF.ProjectId,gswitch18,67737769-7463-4683-9138-2e6b69636164,1.2*%
%TF.SameCoordinates,PX487ab00PY3072580*%
%TF.FileFunction,Legend,Bot*%
%TF.FilePolarity,Positive*%
%FSLAX46Y46*%
G04 Gerber Fmt 4.6, Leading zero omitted, Abs format (unit mm)*
G04 Created by KiCad (PCBNEW (6.0.1-0)) date 2022-04-28 20:36:40*
%MOMM*%
%LPD*%
G01*
G04 APERTURE LIST*
%ADD10C,0.200000*%
%ADD11C,0.800000*%
%ADD12C,6.400000*%
%ADD13C,0.900000*%
G04 APERTURE END LIST*
D10*
X6257142Y-23500000D02*
X5947619Y-24433333D01*
X5638095Y-23500000D01*
X4461904Y-24433333D02*
X5204761Y-24433333D01*
X4833333Y-24433333D02*
X4833333Y-23033333D01*
X4957142Y-23233333D01*
X5080952Y-23366666D01*
X5204761Y-23433333D01*
X3904761Y-24300000D02*
X3842857Y-24366666D01*
X3904761Y-24433333D01*
X3966666Y-24366666D01*
X3904761Y-24300000D01*
X3904761Y-24433333D01*
X3347619Y-23166666D02*
X3285714Y-23100000D01*
X3161904Y-23033333D01*
X2852380Y-23033333D01*
X2728571Y-23100000D01*
X2666666Y-23166666D01*
X2604761Y-23300000D01*
X2604761Y-23433333D01*
X2666666Y-23633333D01*
X3409523Y-24433333D01*
X2604761Y-24433333D01*
X44854761Y-24383333D02*
X44854761Y-22983333D01*
X44297619Y-24383333D02*
X44297619Y-23650000D01*
X44359523Y-23516666D01*
X44483333Y-23450000D01*
X44669047Y-23450000D01*
X44792857Y-23516666D01*
X44854761Y-23583333D01*
X43864285Y-23450000D02*
X43369047Y-23450000D01*
X43678571Y-22983333D02*
X43678571Y-24183333D01*
X43616666Y-24316666D01*
X43492857Y-24383333D01*
X43369047Y-24383333D01*
X43121428Y-23450000D02*
X42626190Y-23450000D01*
X42935714Y-22983333D02*
X42935714Y-24183333D01*
X42873809Y-24316666D01*
X42750000Y-24383333D01*
X42626190Y-24383333D01*
X42192857Y-23450000D02*
X42192857Y-24850000D01*
X42192857Y-23516666D02*
X42069047Y-23450000D01*
X41821428Y-23450000D01*
X41697619Y-23516666D01*
X41635714Y-23583333D01*
X41573809Y-23716666D01*
X41573809Y-24116666D01*
X41635714Y-24250000D01*
X41697619Y-24316666D01*
X41821428Y-24383333D01*
X42069047Y-24383333D01*
X42192857Y-24316666D01*
X41078571Y-24316666D02*
X40954761Y-24383333D01*
X40707142Y-24383333D01*
X40583333Y-24316666D01*
X40521428Y-24183333D01*
X40521428Y-24116666D01*
X40583333Y-23983333D01*
X40707142Y-23916666D01*
X40892857Y-23916666D01*
X41016666Y-23850000D01*
X41078571Y-23716666D01*
X41078571Y-23650000D01*
X41016666Y-23516666D01*
X40892857Y-23450000D01*
X40707142Y-23450000D01*
X40583333Y-23516666D01*
X39964285Y-24250000D02*
X39902380Y-24316666D01*
X39964285Y-24383333D01*
X40026190Y-24316666D01*
X39964285Y-24250000D01*
X39964285Y-24383333D01*
X39964285Y-23516666D02*
X39902380Y-23583333D01*
X39964285Y-23650000D01*
X40026190Y-23583333D01*
X39964285Y-23516666D01*
X39964285Y-23650000D01*
X38416666Y-22916666D02*
X39530952Y-24716666D01*
X37054761Y-22916666D02*
X38169047Y-24716666D01*
X36064285Y-23450000D02*
X36064285Y-24583333D01*
X36126190Y-24716666D01*
X36188095Y-24783333D01*
X36311904Y-24850000D01*
X36497619Y-24850000D01*
X36621428Y-24783333D01*
X36064285Y-24316666D02*
X36188095Y-24383333D01*
X36435714Y-24383333D01*
X36559523Y-24316666D01*
X36621428Y-24250000D01*
X36683333Y-24116666D01*
X36683333Y-23716666D01*
X36621428Y-23583333D01*
X36559523Y-23516666D01*
X36435714Y-23450000D01*
X36188095Y-23450000D01*
X36064285Y-23516666D01*
X35445238Y-24383333D02*
X35445238Y-23450000D01*
X35445238Y-22983333D02*
X35507142Y-23050000D01*
X35445238Y-23116666D01*
X35383333Y-23050000D01*
X35445238Y-22983333D01*
X35445238Y-23116666D01*
X35011904Y-23450000D02*
X34516666Y-23450000D01*
X34826190Y-22983333D02*
X34826190Y-24183333D01*
X34764285Y-24316666D01*
X34640476Y-24383333D01*
X34516666Y-24383333D01*
X34083333Y-24383333D02*
X34083333Y-22983333D01*
X33526190Y-24383333D02*
X33526190Y-23650000D01*
X33588095Y-23516666D01*
X33711904Y-23450000D01*
X33897619Y-23450000D01*
X34021428Y-23516666D01*
X34083333Y-23583333D01*
X32350000Y-23450000D02*
X32350000Y-24383333D01*
X32907142Y-23450000D02*
X32907142Y-24183333D01*
X32845238Y-24316666D01*
X32721428Y-24383333D01*
X32535714Y-24383333D01*
X32411904Y-24316666D01*
X32350000Y-24250000D01*
X31730952Y-24383333D02*
X31730952Y-22983333D01*
X31730952Y-23516666D02*
X31607142Y-23450000D01*
X31359523Y-23450000D01*
X31235714Y-23516666D01*
X31173809Y-23583333D01*
X31111904Y-23716666D01*
X31111904Y-24116666D01*
X31173809Y-24250000D01*
X31235714Y-24316666D01*
X31359523Y-24383333D01*
X31607142Y-24383333D01*
X31730952Y-24316666D01*
X30554761Y-24250000D02*
X30492857Y-24316666D01*
X30554761Y-24383333D01*
X30616666Y-24316666D01*
X30554761Y-24250000D01*
X30554761Y-24383333D01*
X29378571Y-24316666D02*
X29502380Y-24383333D01*
X29750000Y-24383333D01*
X29873809Y-24316666D01*
X29935714Y-24250000D01*
X29997619Y-24116666D01*
X29997619Y-23716666D01*
X29935714Y-23583333D01*
X29873809Y-23516666D01*
X29750000Y-23450000D01*
X29502380Y-23450000D01*
X29378571Y-23516666D01*
X28635714Y-24383333D02*
X28759523Y-24316666D01*
X28821428Y-24250000D01*
X28883333Y-24116666D01*
X28883333Y-23716666D01*
X28821428Y-23583333D01*
X28759523Y-23516666D01*
X28635714Y-23450000D01*
X28450000Y-23450000D01*
X28326190Y-23516666D01*
X28264285Y-23583333D01*
X28202380Y-23716666D01*
X28202380Y-24116666D01*
X28264285Y-24250000D01*
X28326190Y-24316666D01*
X28450000Y-24383333D01*
X28635714Y-24383333D01*
X27645238Y-24383333D02*
X27645238Y-23450000D01*
X27645238Y-23583333D02*
X27583333Y-23516666D01*
X27459523Y-23450000D01*
X27273809Y-23450000D01*
X27150000Y-23516666D01*
X27088095Y-23650000D01*
X27088095Y-24383333D01*
X27088095Y-23650000D02*
X27026190Y-23516666D01*
X26902380Y-23450000D01*
X26716666Y-23450000D01*
X26592857Y-23516666D01*
X26530952Y-23650000D01*
X26530952Y-24383333D01*
X24983333Y-22916666D02*
X26097619Y-24716666D01*
X23992857Y-23450000D02*
X23992857Y-24583333D01*
X24054761Y-24716666D01*
X24116666Y-24783333D01*
X24240476Y-24850000D01*
X24426190Y-24850000D01*
X24550000Y-24783333D01*
X23992857Y-24316666D02*
X24116666Y-24383333D01*
X24364285Y-24383333D01*
X24488095Y-24316666D01*
X24550000Y-24250000D01*
X24611904Y-24116666D01*
X24611904Y-23716666D01*
X24550000Y-23583333D01*
X24488095Y-23516666D01*
X24364285Y-23450000D01*
X24116666Y-23450000D01*
X23992857Y-23516666D01*
X23373809Y-24383333D02*
X23373809Y-23450000D01*
X23373809Y-23716666D02*
X23311904Y-23583333D01*
X23250000Y-23516666D01*
X23126190Y-23450000D01*
X23002380Y-23450000D01*
X22011904Y-23450000D02*
X22011904Y-24383333D01*
X22569047Y-23450000D02*
X22569047Y-24183333D01*
X22507142Y-24316666D01*
X22383333Y-24383333D01*
X22197619Y-24383333D01*
X22073809Y-24316666D01*
X22011904Y-24250000D01*
X21516666Y-23450000D02*
X21207142Y-24383333D01*
X20897619Y-23450000D01*
X20402380Y-24383333D02*
X20402380Y-23450000D01*
X20402380Y-22983333D02*
X20464285Y-23050000D01*
X20402380Y-23116666D01*
X20340476Y-23050000D01*
X20402380Y-22983333D01*
X20402380Y-23116666D01*
X19783333Y-23450000D02*
X19783333Y-24383333D01*
X19783333Y-23583333D02*
X19721428Y-23516666D01*
X19597619Y-23450000D01*
X19411904Y-23450000D01*
X19288095Y-23516666D01*
X19226190Y-23650000D01*
X19226190Y-24383333D01*
X17678571Y-22916666D02*
X18792857Y-24716666D01*
X16688095Y-23450000D02*
X16688095Y-24583333D01*
X16750000Y-24716666D01*
X16811904Y-24783333D01*
X16935714Y-24850000D01*
X17121428Y-24850000D01*
X17245238Y-24783333D01*
X16688095Y-24316666D02*
X16811904Y-24383333D01*
X17059523Y-24383333D01*
X17183333Y-24316666D01*
X17245238Y-24250000D01*
X17307142Y-24116666D01*
X17307142Y-23716666D01*
X17245238Y-23583333D01*
X17183333Y-23516666D01*
X17059523Y-23450000D01*
X16811904Y-23450000D01*
X16688095Y-23516666D01*
X16130952Y-24316666D02*
X16007142Y-24383333D01*
X15759523Y-24383333D01*
X15635714Y-24316666D01*
X15573809Y-24183333D01*
X15573809Y-24116666D01*
X15635714Y-23983333D01*
X15759523Y-23916666D01*
X15945238Y-23916666D01*
X16069047Y-23850000D01*
X16130952Y-23716666D01*
X16130952Y-23650000D01*
X16069047Y-23516666D01*
X15945238Y-23450000D01*
X15759523Y-23450000D01*
X15635714Y-23516666D01*
X15140476Y-23450000D02*
X14892857Y-24383333D01*
X14645238Y-23716666D01*
X14397619Y-24383333D01*
X14150000Y-23450000D01*
X13654761Y-24383333D02*
X13654761Y-23450000D01*
X13654761Y-22983333D02*
X13716666Y-23050000D01*
X13654761Y-23116666D01*
X13592857Y-23050000D01*
X13654761Y-22983333D01*
X13654761Y-23116666D01*
X13221428Y-23450000D02*
X12726190Y-23450000D01*
X13035714Y-22983333D02*
X13035714Y-24183333D01*
X12973809Y-24316666D01*
X12850000Y-24383333D01*
X12726190Y-24383333D01*
X11735714Y-24316666D02*
X11859523Y-24383333D01*
X12107142Y-24383333D01*
X12230952Y-24316666D01*
X12292857Y-24250000D01*
X12354761Y-24116666D01*
X12354761Y-23716666D01*
X12292857Y-23583333D01*
X12230952Y-23516666D01*
X12107142Y-23450000D01*
X11859523Y-23450000D01*
X11735714Y-23516666D01*
X11178571Y-24383333D02*
X11178571Y-22983333D01*
X10621428Y-24383333D02*
X10621428Y-23650000D01*
X10683333Y-23516666D01*
X10807142Y-23450000D01*
X10992857Y-23450000D01*
X11116666Y-23516666D01*
X11178571Y-23583333D01*
X9321428Y-24383333D02*
X10064285Y-24383333D01*
X9692857Y-24383333D02*
X9692857Y-22983333D01*
X9816666Y-23183333D01*
X9940476Y-23316666D01*
X10064285Y-23383333D01*
X8578571Y-23583333D02*
X8702380Y-23516666D01*
X8764285Y-23450000D01*
X8826190Y-23316666D01*
X8826190Y-23250000D01*
X8764285Y-23116666D01*
X8702380Y-23050000D01*
X8578571Y-22983333D01*
X8330952Y-22983333D01*
X8207142Y-23050000D01*
X8145238Y-23116666D01*
X8083333Y-23250000D01*
X8083333Y-23316666D01*
X8145238Y-23450000D01*
X8207142Y-23516666D01*
X8330952Y-23583333D01*
X8578571Y-23583333D01*
X8702380Y-23650000D01*
X8764285Y-23716666D01*
X8826190Y-23850000D01*
X8826190Y-24116666D01*
X8764285Y-24250000D01*
X8702380Y-24316666D01*
X8578571Y-24383333D01*
X8330952Y-24383333D01*
X8207142Y-24316666D01*
X8145238Y-24250000D01*
X8083333Y-24116666D01*
X8083333Y-23850000D01*
X8145238Y-23716666D01*
X8207142Y-23650000D01*
X8330952Y-23583333D01*
%LPC*%
D11*
%TO.C,MH1*%
X3500000Y-1100000D03*
X5197056Y-5197056D03*
X1802944Y-5197056D03*
X1100000Y-3500000D03*
X5197056Y-1802944D03*
X3500000Y-5900000D03*
X1802944Y-1802944D03*
X5900000Y-3500000D03*
D12*
X3500000Y-3500000D03*
%TD*%
D11*
%TO.C,MH2*%
X46197056Y-5197056D03*
X46900000Y-3500000D03*
X42802944Y-1802944D03*
X42802944Y-5197056D03*
X44500000Y-5900000D03*
D12*
X44500000Y-3500000D03*
D11*
X42100000Y-3500000D03*
X46197056Y-1802944D03*
X44500000Y-1100000D03*
%TD*%
%TO.C,MH3*%
X1802944Y-30197056D03*
X5197056Y-30197056D03*
X1802944Y-26802944D03*
X1100000Y-28500000D03*
D12*
X3500000Y-28500000D03*
D11*
X3500000Y-26100000D03*
X3500000Y-30900000D03*
X5900000Y-28500000D03*
X5197056Y-26802944D03*
%TD*%
%TO.C,MH4*%
X46197056Y-26802944D03*
X46197056Y-30197056D03*
X44500000Y-30900000D03*
X42802944Y-26802944D03*
X42802944Y-30197056D03*
D12*
X44500000Y-28500000D03*
D11*
X46900000Y-28500000D03*
X42100000Y-28500000D03*
X44500000Y-26100000D03*
%TD*%
D13*
%TO.C,P4*%
X4700000Y-13800000D03*
X4700000Y-18200000D03*
%TD*%
M02*
