M48
; DRILL file {KiCad (6.0.1-0)} date Thursday, 28 April 2022 at 08:36:51 pm
; FORMAT={-:-/ absolute / metric / decimal}
; #@! TF.CreationDate,2022-04-28T20:36:51+12:00
; #@! TF.GenerationSoftware,Kicad,Pcbnew,(6.0.1-0)
; #@! TF.FileFunction,MixedPlating,1,2
FMAT,2
METRIC
; #@! TA.AperFunction,Plated,PTH,ViaDrill
T1C0.400
; #@! TA.AperFunction,Plated,PTH,ComponentDrill
T2C0.500
; #@! TA.AperFunction,Plated,PTH,ViaDrill
T3C0.800
; #@! TA.AperFunction,Plated,PTH,ComponentDrill
T4C3.200
; #@! TA.AperFunction,NonPlated,NPTH,ComponentDrill
T5C0.900
%
G90
G05
T1
X0.8Y-16.05
X0.9Y-9.65
X0.9Y-22.65
X4.05Y-16.0
X8.5Y-13.35
X9.5Y-17.925
X10.85Y-1.15
X12.3Y-8.05
X12.4Y-17.925
X12.4Y-30.8
X12.75Y-13.9
X15.3Y-12.825
X15.3Y-18.825
X17.25Y-1.15
X17.3Y-30.8
X18.6Y-14.8
X18.6Y-16.7
X18.6Y-18.0
X20.05Y-20.75
X20.6Y-7.8
X20.6Y-11.6
X22.5Y-3.85
X23.35Y-18.4
X23.7Y-3.3
X23.9Y-13.95
X24.6Y-18.5
X24.95Y-2.7
X25.7Y-18.0
X26.1Y-21.826
X26.748Y-17.952
X26.75Y-1.9
X27.05Y-22.75
X27.2Y-13.85
X27.5Y-10.1
X27.6Y-18.6
X28.15Y-13.25
X28.176Y-15.55
X29.8Y-21.4
X30.45Y-6.4
X30.5Y-9.1
X30.5Y-12.024
X32.1Y-1.9
X32.75Y-30.8
X32.95Y-16.2
X33.2Y-9.45
X34.1Y-0.9
X35.4Y-4.3
X35.6Y-0.8
X37.65Y-4.45
X38.65Y-16.2
X39.0Y-1.7
X39.1Y-7.8
X39.15Y-21.35
X40.2Y-12.2
X40.2Y-13.5
X40.2Y-14.8
X40.2Y-16.0
X40.2Y-17.25
X40.2Y-18.5
X40.2Y-19.75
X47.05Y-15.95
T2
X1.1Y-3.5
X1.1Y-28.5
X1.803Y-1.803
X1.803Y-5.197
X1.803Y-26.803
X1.803Y-30.197
X3.5Y-1.1
X3.5Y-5.9
X3.5Y-26.1
X3.5Y-30.9
X5.197Y-1.803
X5.197Y-5.197
X5.197Y-26.803
X5.197Y-30.197
X5.9Y-3.5
X5.9Y-28.5
X42.1Y-3.5
X42.1Y-28.5
X42.803Y-1.803
X42.803Y-5.197
X42.803Y-26.803
X42.803Y-30.197
X44.5Y-1.1
X44.5Y-5.9
X44.5Y-26.1
X44.5Y-30.9
X46.197Y-1.803
X46.197Y-5.197
X46.197Y-26.803
X46.197Y-30.197
X46.9Y-3.5
X46.9Y-28.5
T3
X12.8Y-9.75
X24.8Y-15.6
T4
X3.5Y-3.5
X3.5Y-28.5
X44.5Y-3.5
X44.5Y-28.5
T5
X4.7Y-13.8
X4.7Y-18.2
T0
M30
