%TF.GenerationSoftware,KiCad,Pcbnew,(6.0.4-0)*%
%TF.CreationDate,2022-04-28T06:59:34+12:00*%
%TF.ProjectId,gswitch18,67737769-7463-4683-9138-2e6b69636164,1.2*%
%TF.SameCoordinates,PX487ab00PY3072580*%
%TF.FileFunction,Legend,Top*%
%TF.FilePolarity,Positive*%
%FSLAX46Y46*%
G04 Gerber Fmt 4.6, Leading zero omitted, Abs format (unit mm)*
G04 Created by KiCad (PCBNEW (6.0.4-0)) date 2022-04-28 06:59:34*
%MOMM*%
%LPD*%
G01*
G04 APERTURE LIST*
G04 Aperture macros list*
%AMRoundRect*
0 Rectangle with rounded corners*
0 $1 Rounding radius*
0 $2 $3 $4 $5 $6 $7 $8 $9 X,Y pos of 4 corners*
0 Add a 4 corners polygon primitive as box body*
4,1,4,$2,$3,$4,$5,$6,$7,$8,$9,$2,$3,0*
0 Add four circle primitives for the rounded corners*
1,1,$1+$1,$2,$3*
1,1,$1+$1,$4,$5*
1,1,$1+$1,$6,$7*
1,1,$1+$1,$8,$9*
0 Add four rect primitives between the rounded corners*
20,1,$1+$1,$2,$3,$4,$5,0*
20,1,$1+$1,$4,$5,$6,$7,0*
20,1,$1+$1,$6,$7,$8,$9,0*
20,1,$1+$1,$8,$9,$2,$3,0*%
G04 Aperture macros list end*
%ADD10C,0.200660*%
%ADD11C,0.150000*%
%ADD12C,0.500000*%
%ADD13C,0.120000*%
%ADD14R,1.600000X0.550000*%
%ADD15R,0.550000X1.600000*%
%ADD16RoundRect,0.250000X0.650000X-0.325000X0.650000X0.325000X-0.650000X0.325000X-0.650000X-0.325000X0*%
%ADD17RoundRect,0.225000X-0.225000X-0.250000X0.225000X-0.250000X0.225000X0.250000X-0.225000X0.250000X0*%
%ADD18RoundRect,0.225000X0.250000X-0.225000X0.250000X0.225000X-0.250000X0.225000X-0.250000X-0.225000X0*%
%ADD19RoundRect,0.225000X-0.250000X0.225000X-0.250000X-0.225000X0.250000X-0.225000X0.250000X0.225000X0*%
%ADD20R,0.600000X0.700000*%
%ADD21RoundRect,0.200000X0.200000X0.275000X-0.200000X0.275000X-0.200000X-0.275000X0.200000X-0.275000X0*%
%ADD22RoundRect,0.200000X-0.200000X-0.275000X0.200000X-0.275000X0.200000X0.275000X-0.200000X0.275000X0*%
%ADD23R,1.700000X1.700000*%
%ADD24O,1.700000X1.700000*%
%ADD25R,1.400000X1.200000*%
%ADD26R,0.900000X1.200000*%
%ADD27RoundRect,0.150000X0.150000X0.700000X-0.150000X0.700000X-0.150000X-0.700000X0.150000X-0.700000X0*%
%ADD28RoundRect,0.250000X0.250000X1.150000X-0.250000X1.150000X-0.250000X-1.150000X0.250000X-1.150000X0*%
%ADD29RoundRect,0.150000X-0.150000X-0.700000X0.150000X-0.700000X0.150000X0.700000X-0.150000X0.700000X0*%
%ADD30RoundRect,0.250000X-0.250000X-1.150000X0.250000X-1.150000X0.250000X1.150000X-0.250000X1.150000X0*%
%ADD31C,0.800000*%
%ADD32C,6.400000*%
%ADD33C,0.900000*%
%ADD34R,2.500000X0.500000*%
%ADD35R,2.500000X2.000000*%
%ADD36RoundRect,0.150000X-0.700000X0.150000X-0.700000X-0.150000X0.700000X-0.150000X0.700000X0.150000X0*%
%ADD37RoundRect,0.250000X-1.150000X0.250000X-1.150000X-0.250000X1.150000X-0.250000X1.150000X0.250000X0*%
G04 APERTURE END LIST*
D10*
X8418758Y-9471482D02*
X9181241Y-9471482D01*
X8800000Y-9852724D02*
X8800000Y-9090240D01*
D11*
%TO.C,C5*%
X12483333Y-6957142D02*
X12435714Y-7004761D01*
X12292857Y-7052380D01*
X12197619Y-7052380D01*
X12054761Y-7004761D01*
X11959523Y-6909523D01*
X11911904Y-6814285D01*
X11864285Y-6623809D01*
X11864285Y-6480952D01*
X11911904Y-6290476D01*
X11959523Y-6195238D01*
X12054761Y-6100000D01*
X12197619Y-6052380D01*
X12292857Y-6052380D01*
X12435714Y-6100000D01*
X12483333Y-6147619D01*
X13388095Y-6052380D02*
X12911904Y-6052380D01*
X12864285Y-6528571D01*
X12911904Y-6480952D01*
X13007142Y-6433333D01*
X13245238Y-6433333D01*
X13340476Y-6480952D01*
X13388095Y-6528571D01*
X13435714Y-6623809D01*
X13435714Y-6861904D01*
X13388095Y-6957142D01*
X13340476Y-7004761D01*
X13245238Y-7052380D01*
X13007142Y-7052380D01*
X12911904Y-7004761D01*
X12864285Y-6957142D01*
%TO.C,C2*%
X35433333Y-18157142D02*
X35385714Y-18204761D01*
X35242857Y-18252380D01*
X35147619Y-18252380D01*
X35004761Y-18204761D01*
X34909523Y-18109523D01*
X34861904Y-18014285D01*
X34814285Y-17823809D01*
X34814285Y-17680952D01*
X34861904Y-17490476D01*
X34909523Y-17395238D01*
X35004761Y-17300000D01*
X35147619Y-17252380D01*
X35242857Y-17252380D01*
X35385714Y-17300000D01*
X35433333Y-17347619D01*
X35814285Y-17347619D02*
X35861904Y-17300000D01*
X35957142Y-17252380D01*
X36195238Y-17252380D01*
X36290476Y-17300000D01*
X36338095Y-17347619D01*
X36385714Y-17442857D01*
X36385714Y-17538095D01*
X36338095Y-17680952D01*
X35766666Y-18252380D01*
X36385714Y-18252380D01*
%TO.C,C4*%
X30233333Y-10657142D02*
X30185714Y-10704761D01*
X30042857Y-10752380D01*
X29947619Y-10752380D01*
X29804761Y-10704761D01*
X29709523Y-10609523D01*
X29661904Y-10514285D01*
X29614285Y-10323809D01*
X29614285Y-10180952D01*
X29661904Y-9990476D01*
X29709523Y-9895238D01*
X29804761Y-9800000D01*
X29947619Y-9752380D01*
X30042857Y-9752380D01*
X30185714Y-9800000D01*
X30233333Y-9847619D01*
X31090476Y-10085714D02*
X31090476Y-10752380D01*
X30852380Y-9704761D02*
X30614285Y-10419047D01*
X31233333Y-10419047D01*
%TO.C,C3*%
X39233333Y-10407142D02*
X39185714Y-10454761D01*
X39042857Y-10502380D01*
X38947619Y-10502380D01*
X38804761Y-10454761D01*
X38709523Y-10359523D01*
X38661904Y-10264285D01*
X38614285Y-10073809D01*
X38614285Y-9930952D01*
X38661904Y-9740476D01*
X38709523Y-9645238D01*
X38804761Y-9550000D01*
X38947619Y-9502380D01*
X39042857Y-9502380D01*
X39185714Y-9550000D01*
X39233333Y-9597619D01*
X39566666Y-9502380D02*
X40185714Y-9502380D01*
X39852380Y-9883333D01*
X39995238Y-9883333D01*
X40090476Y-9930952D01*
X40138095Y-9978571D01*
X40185714Y-10073809D01*
X40185714Y-10311904D01*
X40138095Y-10407142D01*
X40090476Y-10454761D01*
X39995238Y-10502380D01*
X39709523Y-10502380D01*
X39614285Y-10454761D01*
X39566666Y-10407142D01*
%TO.C,D2*%
X17061904Y-21552380D02*
X17061904Y-20552380D01*
X17300000Y-20552380D01*
X17442857Y-20600000D01*
X17538095Y-20695238D01*
X17585714Y-20790476D01*
X17633333Y-20980952D01*
X17633333Y-21123809D01*
X17585714Y-21314285D01*
X17538095Y-21409523D01*
X17442857Y-21504761D01*
X17300000Y-21552380D01*
X17061904Y-21552380D01*
X18014285Y-20647619D02*
X18061904Y-20600000D01*
X18157142Y-20552380D01*
X18395238Y-20552380D01*
X18490476Y-20600000D01*
X18538095Y-20647619D01*
X18585714Y-20742857D01*
X18585714Y-20838095D01*
X18538095Y-20980952D01*
X17966666Y-21552380D01*
X18585714Y-21552380D01*
%TO.C,D1*%
X17061904Y-10952380D02*
X17061904Y-9952380D01*
X17300000Y-9952380D01*
X17442857Y-10000000D01*
X17538095Y-10095238D01*
X17585714Y-10190476D01*
X17633333Y-10380952D01*
X17633333Y-10523809D01*
X17585714Y-10714285D01*
X17538095Y-10809523D01*
X17442857Y-10904761D01*
X17300000Y-10952380D01*
X17061904Y-10952380D01*
X18585714Y-10952380D02*
X18014285Y-10952380D01*
X18300000Y-10952380D02*
X18300000Y-9952380D01*
X18204761Y-10095238D01*
X18109523Y-10190476D01*
X18014285Y-10238095D01*
%TO.C,R7*%
X30733333Y-8352380D02*
X30400000Y-7876190D01*
X30161904Y-8352380D02*
X30161904Y-7352380D01*
X30542857Y-7352380D01*
X30638095Y-7400000D01*
X30685714Y-7447619D01*
X30733333Y-7542857D01*
X30733333Y-7685714D01*
X30685714Y-7780952D01*
X30638095Y-7828571D01*
X30542857Y-7876190D01*
X30161904Y-7876190D01*
X31066666Y-7352380D02*
X31733333Y-7352380D01*
X31304761Y-8352380D01*
%TO.C,R5*%
X16933333Y-15252380D02*
X16600000Y-14776190D01*
X16361904Y-15252380D02*
X16361904Y-14252380D01*
X16742857Y-14252380D01*
X16838095Y-14300000D01*
X16885714Y-14347619D01*
X16933333Y-14442857D01*
X16933333Y-14585714D01*
X16885714Y-14680952D01*
X16838095Y-14728571D01*
X16742857Y-14776190D01*
X16361904Y-14776190D01*
X17838095Y-14252380D02*
X17361904Y-14252380D01*
X17314285Y-14728571D01*
X17361904Y-14680952D01*
X17457142Y-14633333D01*
X17695238Y-14633333D01*
X17790476Y-14680952D01*
X17838095Y-14728571D01*
X17885714Y-14823809D01*
X17885714Y-15061904D01*
X17838095Y-15157142D01*
X17790476Y-15204761D01*
X17695238Y-15252380D01*
X17457142Y-15252380D01*
X17361904Y-15204761D01*
X17314285Y-15157142D01*
%TO.C,R6*%
X16933333Y-17152380D02*
X16600000Y-16676190D01*
X16361904Y-17152380D02*
X16361904Y-16152380D01*
X16742857Y-16152380D01*
X16838095Y-16200000D01*
X16885714Y-16247619D01*
X16933333Y-16342857D01*
X16933333Y-16485714D01*
X16885714Y-16580952D01*
X16838095Y-16628571D01*
X16742857Y-16676190D01*
X16361904Y-16676190D01*
X17790476Y-16152380D02*
X17600000Y-16152380D01*
X17504761Y-16200000D01*
X17457142Y-16247619D01*
X17361904Y-16390476D01*
X17314285Y-16580952D01*
X17314285Y-16961904D01*
X17361904Y-17057142D01*
X17409523Y-17104761D01*
X17504761Y-17152380D01*
X17695238Y-17152380D01*
X17790476Y-17104761D01*
X17838095Y-17057142D01*
X17885714Y-16961904D01*
X17885714Y-16723809D01*
X17838095Y-16628571D01*
X17790476Y-16580952D01*
X17695238Y-16533333D01*
X17504761Y-16533333D01*
X17409523Y-16580952D01*
X17361904Y-16628571D01*
X17314285Y-16723809D01*
%TO.C,R3*%
X10933333Y-10702380D02*
X10600000Y-10226190D01*
X10361904Y-10702380D02*
X10361904Y-9702380D01*
X10742857Y-9702380D01*
X10838095Y-9750000D01*
X10885714Y-9797619D01*
X10933333Y-9892857D01*
X10933333Y-10035714D01*
X10885714Y-10130952D01*
X10838095Y-10178571D01*
X10742857Y-10226190D01*
X10361904Y-10226190D01*
X11266666Y-9702380D02*
X11885714Y-9702380D01*
X11552380Y-10083333D01*
X11695238Y-10083333D01*
X11790476Y-10130952D01*
X11838095Y-10178571D01*
X11885714Y-10273809D01*
X11885714Y-10511904D01*
X11838095Y-10607142D01*
X11790476Y-10654761D01*
X11695238Y-10702380D01*
X11409523Y-10702380D01*
X11314285Y-10654761D01*
X11266666Y-10607142D01*
%TO.C,R1*%
X10933333Y-18602380D02*
X10600000Y-18126190D01*
X10361904Y-18602380D02*
X10361904Y-17602380D01*
X10742857Y-17602380D01*
X10838095Y-17650000D01*
X10885714Y-17697619D01*
X10933333Y-17792857D01*
X10933333Y-17935714D01*
X10885714Y-18030952D01*
X10838095Y-18078571D01*
X10742857Y-18126190D01*
X10361904Y-18126190D01*
X11885714Y-18602380D02*
X11314285Y-18602380D01*
X11600000Y-18602380D02*
X11600000Y-17602380D01*
X11504761Y-17745238D01*
X11409523Y-17840476D01*
X11314285Y-17888095D01*
%TO.C,R2*%
X10833333Y-13852380D02*
X10500000Y-13376190D01*
X10261904Y-13852380D02*
X10261904Y-12852380D01*
X10642857Y-12852380D01*
X10738095Y-12900000D01*
X10785714Y-12947619D01*
X10833333Y-13042857D01*
X10833333Y-13185714D01*
X10785714Y-13280952D01*
X10738095Y-13328571D01*
X10642857Y-13376190D01*
X10261904Y-13376190D01*
X11214285Y-12947619D02*
X11261904Y-12900000D01*
X11357142Y-12852380D01*
X11595238Y-12852380D01*
X11690476Y-12900000D01*
X11738095Y-12947619D01*
X11785714Y-13042857D01*
X11785714Y-13138095D01*
X11738095Y-13280952D01*
X11166666Y-13852380D01*
X11785714Y-13852380D01*
%TO.C,X1*%
X34265476Y-9127380D02*
X34932142Y-10127380D01*
X34932142Y-9127380D02*
X34265476Y-10127380D01*
X35836904Y-10127380D02*
X35265476Y-10127380D01*
X35551190Y-10127380D02*
X35551190Y-9127380D01*
X35455952Y-9270238D01*
X35360714Y-9365476D01*
X35265476Y-9413095D01*
%TO.C,D4*%
X18061904Y-13252380D02*
X18061904Y-12252380D01*
X18300000Y-12252380D01*
X18442857Y-12300000D01*
X18538095Y-12395238D01*
X18585714Y-12490476D01*
X18633333Y-12680952D01*
X18633333Y-12823809D01*
X18585714Y-13014285D01*
X18538095Y-13109523D01*
X18442857Y-13204761D01*
X18300000Y-13252380D01*
X18061904Y-13252380D01*
X19490476Y-12585714D02*
X19490476Y-13252380D01*
X19252380Y-12204761D02*
X19014285Y-12919047D01*
X19633333Y-12919047D01*
%TO.C,D3*%
X17961904Y-19452380D02*
X17961904Y-18452380D01*
X18200000Y-18452380D01*
X18342857Y-18500000D01*
X18438095Y-18595238D01*
X18485714Y-18690476D01*
X18533333Y-18880952D01*
X18533333Y-19023809D01*
X18485714Y-19214285D01*
X18438095Y-19309523D01*
X18342857Y-19404761D01*
X18200000Y-19452380D01*
X17961904Y-19452380D01*
X18866666Y-18452380D02*
X19485714Y-18452380D01*
X19152380Y-18833333D01*
X19295238Y-18833333D01*
X19390476Y-18880952D01*
X19438095Y-18928571D01*
X19485714Y-19023809D01*
X19485714Y-19261904D01*
X19438095Y-19357142D01*
X19390476Y-19404761D01*
X19295238Y-19452380D01*
X19009523Y-19452380D01*
X18914285Y-19404761D01*
X18866666Y-19357142D01*
%TO.C,P3*%
X16061904Y-29752380D02*
X16061904Y-28752380D01*
X16442857Y-28752380D01*
X16538095Y-28800000D01*
X16585714Y-28847619D01*
X16633333Y-28942857D01*
X16633333Y-29085714D01*
X16585714Y-29180952D01*
X16538095Y-29228571D01*
X16442857Y-29276190D01*
X16061904Y-29276190D01*
X16966666Y-28752380D02*
X17585714Y-28752380D01*
X17252380Y-29133333D01*
X17395238Y-29133333D01*
X17490476Y-29180952D01*
X17538095Y-29228571D01*
X17585714Y-29323809D01*
X17585714Y-29561904D01*
X17538095Y-29657142D01*
X17490476Y-29704761D01*
X17395238Y-29752380D01*
X17109523Y-29752380D01*
X17014285Y-29704761D01*
X16966666Y-29657142D01*
%TO.C,P1*%
X16061904Y-4152380D02*
X16061904Y-3152380D01*
X16442857Y-3152380D01*
X16538095Y-3200000D01*
X16585714Y-3247619D01*
X16633333Y-3342857D01*
X16633333Y-3485714D01*
X16585714Y-3580952D01*
X16538095Y-3628571D01*
X16442857Y-3676190D01*
X16061904Y-3676190D01*
X17585714Y-4152380D02*
X17014285Y-4152380D01*
X17300000Y-4152380D02*
X17300000Y-3152380D01*
X17204761Y-3295238D01*
X17109523Y-3390476D01*
X17014285Y-3438095D01*
%TO.C,P2*%
X43961904Y-24152380D02*
X43961904Y-23152380D01*
X44342857Y-23152380D01*
X44438095Y-23200000D01*
X44485714Y-23247619D01*
X44533333Y-23342857D01*
X44533333Y-23485714D01*
X44485714Y-23580952D01*
X44438095Y-23628571D01*
X44342857Y-23676190D01*
X43961904Y-23676190D01*
X44914285Y-23247619D02*
X44961904Y-23200000D01*
X45057142Y-23152380D01*
X45295238Y-23152380D01*
X45390476Y-23200000D01*
X45438095Y-23247619D01*
X45485714Y-23342857D01*
X45485714Y-23438095D01*
X45438095Y-23580952D01*
X44866666Y-24152380D01*
X45485714Y-24152380D01*
%TO.C,C1*%
X35433333Y-15407142D02*
X35385714Y-15454761D01*
X35242857Y-15502380D01*
X35147619Y-15502380D01*
X35004761Y-15454761D01*
X34909523Y-15359523D01*
X34861904Y-15264285D01*
X34814285Y-15073809D01*
X34814285Y-14930952D01*
X34861904Y-14740476D01*
X34909523Y-14645238D01*
X35004761Y-14550000D01*
X35147619Y-14502380D01*
X35242857Y-14502380D01*
X35385714Y-14550000D01*
X35433333Y-14597619D01*
X36385714Y-15502380D02*
X35814285Y-15502380D01*
X36100000Y-15502380D02*
X36100000Y-14502380D01*
X36004761Y-14645238D01*
X35909523Y-14740476D01*
X35814285Y-14788095D01*
%TO.C,U1*%
X29225000Y-19625000D02*
X29225000Y-19300000D01*
X21975000Y-12375000D02*
X21975000Y-12700000D01*
X29225000Y-12375000D02*
X28900000Y-12375000D01*
X21975000Y-19625000D02*
X22300000Y-19625000D01*
X29225000Y-19625000D02*
X28900000Y-19625000D01*
X21975000Y-12375000D02*
X22300000Y-12375000D01*
X21975000Y-19625000D02*
X21975000Y-19300000D01*
X29225000Y-12375000D02*
X29225000Y-12700000D01*
D12*
X30100000Y-20200000D02*
G75*
G03*
X30100000Y-20200000I-300000J0D01*
G01*
D13*
%TO.C,C5*%
X9590000Y-7311252D02*
X9590000Y-5888748D01*
X11410000Y-7311252D02*
X11410000Y-5888748D01*
%TO.C,C2*%
X32859420Y-17290000D02*
X33140580Y-17290000D01*
X32859420Y-18310000D02*
X33140580Y-18310000D01*
%TO.C,C4*%
X32410000Y-12265580D02*
X32410000Y-11984420D01*
X31390000Y-12265580D02*
X31390000Y-11984420D01*
%TO.C,C3*%
X37690000Y-11984420D02*
X37690000Y-12265580D01*
X38710000Y-11984420D02*
X38710000Y-12265580D01*
%TO.C,D2*%
X16000000Y-21625000D02*
X14150000Y-21625000D01*
X14150000Y-20425000D02*
X14150000Y-21625000D01*
X16000000Y-20425000D02*
X14150000Y-20425000D01*
%TO.C,D1*%
X16000000Y-11125000D02*
X14150000Y-11125000D01*
X14150000Y-9925000D02*
X14150000Y-11125000D01*
X16000000Y-9925000D02*
X14150000Y-9925000D01*
%TO.C,R7*%
X33437258Y-8822500D02*
X32962742Y-8822500D01*
X33437258Y-7777500D02*
X32962742Y-7777500D01*
%TO.C,R5*%
X14737258Y-15322500D02*
X14262742Y-15322500D01*
X14737258Y-14277500D02*
X14262742Y-14277500D01*
%TO.C,R6*%
X14737258Y-16177500D02*
X14262742Y-16177500D01*
X14737258Y-17222500D02*
X14262742Y-17222500D01*
%TO.C,R3*%
X10762742Y-12147500D02*
X11237258Y-12147500D01*
X10762742Y-11102500D02*
X11237258Y-11102500D01*
%TO.C,R1*%
X11237258Y-17222500D02*
X10762742Y-17222500D01*
X11237258Y-16177500D02*
X10762742Y-16177500D01*
%TO.C,R2*%
X11237258Y-15322500D02*
X10762742Y-15322500D01*
X11237258Y-14277500D02*
X10762742Y-14277500D01*
%TO.C,P5*%
X40455000Y-6895000D02*
X32715000Y-6895000D01*
X40455000Y-1695000D02*
X32715000Y-1695000D01*
X40455000Y-1695000D02*
X40455000Y-6895000D01*
X32715000Y-1695000D02*
X32715000Y-6895000D01*
%TO.C,X1*%
X33075000Y-10475000D02*
X33075000Y-13775000D01*
X33075000Y-13775000D02*
X37075000Y-13775000D01*
%TO.C,D4*%
X13050000Y-13825000D02*
X16950000Y-13825000D01*
X13050000Y-11825000D02*
X16950000Y-11825000D01*
X13050000Y-11825000D02*
X13050000Y-13825000D01*
%TO.C,D3*%
X13050000Y-17825000D02*
X16950000Y-17825000D01*
X13050000Y-17825000D02*
X13050000Y-19825000D01*
X13050000Y-19825000D02*
X16950000Y-19825000D01*
%TO.C,P3*%
X18890000Y-27740000D02*
X18890000Y-26140000D01*
X29310000Y-26140000D02*
X29310000Y-25200000D01*
X31110000Y-27740000D02*
X31110000Y-26140000D01*
X29840000Y-30610000D02*
X20160000Y-30610000D01*
X31110000Y-26140000D02*
X29310000Y-26140000D01*
X18890000Y-26140000D02*
X20690000Y-26140000D01*
%TO.C,P1*%
X31110000Y-5860000D02*
X29310000Y-5860000D01*
X18890000Y-5860000D02*
X20690000Y-5860000D01*
X20690000Y-5860000D02*
X20690000Y-6800000D01*
X31110000Y-4260000D02*
X31110000Y-5860000D01*
X20160000Y-1390000D02*
X29840000Y-1390000D01*
X18890000Y-4260000D02*
X18890000Y-5860000D01*
%TO.C,P4*%
X350000Y-12040000D02*
X100000Y-12040000D01*
X100000Y-12040000D02*
X100000Y-19960000D01*
X3250000Y-12040000D02*
X5850000Y-12040000D01*
X8160000Y-13950000D02*
X8750000Y-13950000D01*
X5850000Y-19960000D02*
X3250000Y-19960000D01*
X8750000Y-13950000D02*
X8750000Y-14650000D01*
X8160000Y-12800000D02*
X8160000Y-13950000D01*
X8160000Y-18050000D02*
X8160000Y-19200000D01*
X100000Y-19960000D02*
X350000Y-19960000D01*
%TO.C,P2*%
X42540000Y-9890000D02*
X42540000Y-11690000D01*
X44140000Y-9890000D02*
X42540000Y-9890000D01*
X42540000Y-11690000D02*
X41600000Y-11690000D01*
X42540000Y-22110000D02*
X42540000Y-20310000D01*
X44140000Y-22110000D02*
X42540000Y-22110000D01*
X47010000Y-11160000D02*
X47010000Y-20840000D01*
%TO.C,C1*%
X32859420Y-14490000D02*
X33140580Y-14490000D01*
X32859420Y-15510000D02*
X33140580Y-15510000D01*
%TD*%
%LPC*%
D14*
%TO.C,U1*%
X29850000Y-18800000D03*
X29850000Y-18000000D03*
X29850000Y-17200000D03*
X29850000Y-16400000D03*
X29850000Y-15600000D03*
X29850000Y-14800000D03*
X29850000Y-14000000D03*
X29850000Y-13200000D03*
D15*
X28400000Y-11750000D03*
X27600000Y-11750000D03*
X26800000Y-11750000D03*
X26000000Y-11750000D03*
X25200000Y-11750000D03*
X24400000Y-11750000D03*
X23600000Y-11750000D03*
X22800000Y-11750000D03*
D14*
X21350000Y-13200000D03*
X21350000Y-14000000D03*
X21350000Y-14800000D03*
X21350000Y-15600000D03*
X21350000Y-16400000D03*
X21350000Y-17200000D03*
X21350000Y-18000000D03*
X21350000Y-18800000D03*
D15*
X22800000Y-20250000D03*
X23600000Y-20250000D03*
X24400000Y-20250000D03*
X25200000Y-20250000D03*
X26000000Y-20250000D03*
X26800000Y-20250000D03*
X27600000Y-20250000D03*
X28400000Y-20250000D03*
%TD*%
D16*
%TO.C,C5*%
X10500000Y-8075000D03*
X10500000Y-5125000D03*
%TD*%
D17*
%TO.C,C2*%
X32225000Y-17800000D03*
X33775000Y-17800000D03*
%TD*%
D18*
%TO.C,C4*%
X31900000Y-12900000D03*
X31900000Y-11350000D03*
%TD*%
D19*
%TO.C,C3*%
X38200000Y-11350000D03*
X38200000Y-12900000D03*
%TD*%
D20*
%TO.C,D2*%
X14600000Y-21025000D03*
X16000000Y-21025000D03*
%TD*%
%TO.C,D1*%
X14600000Y-10525000D03*
X16000000Y-10525000D03*
%TD*%
D21*
%TO.C,R7*%
X34025000Y-8300000D03*
X32375000Y-8300000D03*
%TD*%
%TO.C,R5*%
X15325000Y-14800000D03*
X13675000Y-14800000D03*
%TD*%
%TO.C,R6*%
X15325000Y-16700000D03*
X13675000Y-16700000D03*
%TD*%
D22*
%TO.C,R3*%
X10175000Y-11625000D03*
X11825000Y-11625000D03*
%TD*%
D21*
%TO.C,R1*%
X11825000Y-16700000D03*
X10175000Y-16700000D03*
%TD*%
%TO.C,R2*%
X11825000Y-14800000D03*
X10175000Y-14800000D03*
%TD*%
D23*
%TO.C,P5*%
X39125000Y-3025000D03*
D24*
X39125000Y-5565000D03*
X36585000Y-3025000D03*
X36585000Y-5565000D03*
X34045000Y-3025000D03*
X34045000Y-5565000D03*
%TD*%
D25*
%TO.C,X1*%
X33975000Y-12975000D03*
X36175000Y-12975000D03*
X36175000Y-11275000D03*
X33975000Y-11275000D03*
%TD*%
D26*
%TO.C,D4*%
X13650000Y-12825000D03*
X16950000Y-12825000D03*
%TD*%
%TO.C,D3*%
X13650000Y-18825000D03*
X16950000Y-18825000D03*
%TD*%
D27*
%TO.C,P3*%
X28750000Y-26050000D03*
X27500000Y-26050000D03*
X26250000Y-26050000D03*
X25000000Y-26050000D03*
X23750000Y-26050000D03*
X22500000Y-26050000D03*
X21250000Y-26050000D03*
D28*
X30600000Y-29400000D03*
X19400000Y-29400000D03*
%TD*%
D29*
%TO.C,P1*%
X21250000Y-5950000D03*
X22500000Y-5950000D03*
X23750000Y-5950000D03*
X25000000Y-5950000D03*
X26250000Y-5950000D03*
X27500000Y-5950000D03*
X28750000Y-5950000D03*
D30*
X19400000Y-2600000D03*
X30600000Y-2600000D03*
%TD*%
D31*
%TO.C,MH1*%
X3500000Y-1100000D03*
X5197056Y-5197056D03*
X1802944Y-5197056D03*
X1100000Y-3500000D03*
X5197056Y-1802944D03*
X3500000Y-5900000D03*
X1802944Y-1802944D03*
X5900000Y-3500000D03*
D32*
X3500000Y-3500000D03*
%TD*%
D31*
%TO.C,MH2*%
X46197056Y-5197056D03*
X46900000Y-3500000D03*
X42802944Y-1802944D03*
X42802944Y-5197056D03*
X44500000Y-5900000D03*
D32*
X44500000Y-3500000D03*
D31*
X42100000Y-3500000D03*
X46197056Y-1802944D03*
X44500000Y-1100000D03*
%TD*%
%TO.C,MH3*%
X1802944Y-30197056D03*
X5197056Y-30197056D03*
X1802944Y-26802944D03*
X1100000Y-28500000D03*
D32*
X3500000Y-28500000D03*
D31*
X3500000Y-26100000D03*
X3500000Y-30900000D03*
X5900000Y-28500000D03*
X5197056Y-26802944D03*
%TD*%
%TO.C,MH4*%
X46197056Y-26802944D03*
X46197056Y-30197056D03*
X44500000Y-30900000D03*
X42802944Y-26802944D03*
X42802944Y-30197056D03*
D32*
X44500000Y-28500000D03*
D31*
X46900000Y-28500000D03*
X42100000Y-28500000D03*
X44500000Y-26100000D03*
%TD*%
D33*
%TO.C,P4*%
X4700000Y-13800000D03*
X4700000Y-18200000D03*
D34*
X7300000Y-14400000D03*
X7300000Y-15200000D03*
X7300000Y-16000000D03*
X7300000Y-16800000D03*
X7300000Y-17600000D03*
D35*
X7300000Y-20400000D03*
X1800000Y-20400000D03*
X1800000Y-11600000D03*
X7300000Y-11600000D03*
%TD*%
D36*
%TO.C,P2*%
X42450000Y-12250000D03*
X42450000Y-13500000D03*
X42450000Y-14750000D03*
X42450000Y-16000000D03*
X42450000Y-17250000D03*
X42450000Y-18500000D03*
X42450000Y-19750000D03*
D37*
X45800000Y-10400000D03*
X45800000Y-21600000D03*
%TD*%
D17*
%TO.C,C1*%
X32225000Y-15000000D03*
X33775000Y-15000000D03*
%TD*%
M02*
