M48
; DRILL file {KiCad (6.0.4-0)} date Monday, 25 April 2022 at 10:52:43 pm
; FORMAT={-:-/ absolute / metric / decimal}
; #@! TF.CreationDate,2022-04-25T22:52:43+12:00
; #@! TF.GenerationSoftware,Kicad,Pcbnew,(6.0.4-0)
; #@! TF.FileFunction,MixedPlating,1,2
FMAT,2
METRIC
; #@! TA.AperFunction,Plated,PTH,ComponentDrill
T1C0.800
; #@! TA.AperFunction,Plated,PTH,ComponentDrill
T2C1.200
; #@! TA.AperFunction,Plated,PTH,ComponentDrill
T3C3.000
%
G90
G05
T1
X132.32Y-58.2
X132.32Y-75.98
X134.78Y-48.94
X134.78Y-66.69
X135.03Y-84.44
X142.53Y-59.19
X142.53Y-74.44
X150.28Y-48.94
X150.28Y-66.69
X150.28Y-84.69
X157.78Y-59.19
X157.78Y-74.44
X165.53Y-48.94
X165.53Y-66.69
X165.53Y-84.44
X175.53Y-48.94
X175.53Y-74.43
X175.53Y-84.44
X185.74Y-84.44
X188.24Y-49.0
T2
X132.38Y-45.2
X132.38Y-52.82
X132.38Y-62.98
X132.38Y-70.6
X132.38Y-80.76
X132.38Y-88.38
X137.46Y-45.2
X137.46Y-52.82
X137.46Y-62.98
X137.46Y-70.6
X137.46Y-80.76
X137.46Y-88.38
X140.0Y-55.36
X140.0Y-62.98
X140.0Y-70.6
X140.0Y-78.22
X145.08Y-55.36
X145.08Y-62.98
X145.08Y-70.6
X145.08Y-78.22
X147.62Y-45.2
X147.62Y-52.82
X147.62Y-62.98
X147.62Y-70.6
X147.62Y-80.76
X147.62Y-88.38
X152.7Y-45.2
X152.7Y-52.82
X152.7Y-62.98
X152.7Y-70.6
X152.7Y-80.76
X152.7Y-88.38
X155.24Y-55.36
X155.24Y-62.98
X155.24Y-70.6
X155.24Y-78.22
X160.32Y-55.36
X160.32Y-62.98
X160.32Y-70.6
X160.32Y-78.22
X162.86Y-45.2
X162.86Y-52.82
X162.86Y-62.98
X162.86Y-70.6
X162.86Y-80.76
X162.86Y-88.38
X167.94Y-45.2
X167.94Y-52.82
X167.94Y-62.98
X167.94Y-70.6
X167.94Y-80.76
X167.94Y-88.38
X173.02Y-45.2
X173.02Y-52.82
X173.02Y-70.6
X173.02Y-78.22
X173.02Y-80.76
X173.02Y-88.38
X178.1Y-45.2
X178.1Y-52.82
X178.1Y-70.6
X178.1Y-78.22
X178.1Y-80.76
X178.1Y-88.38
X183.18Y-80.76
X183.18Y-88.38
X185.72Y-45.2
X185.72Y-52.82
X188.26Y-80.76
X188.26Y-88.38
X190.8Y-45.2
X190.8Y-52.82
T3
X128.2Y-43.6
X128.2Y-89.9
X194.2Y-43.6
X194.3Y-90.1
T0
M30
