G04 (created by PCBNEW-RS274X (2012-01-19 BZR 3256)-stable) date Wed 26 Sep 2012 03:22:15 PM NZST*
G01*
G70*
G90*
%MOIN*%
G04 Gerber Fmt 3.4, Leading zero omitted, Abs format*
%FSLAX34Y34*%
G04 APERTURE LIST*
%ADD10C,0.006000*%
%ADD11R,0.080000X0.080000*%
%ADD12C,0.080000*%
%ADD13R,0.098700X0.037700*%
%ADD14R,0.037700X0.098700*%
%ADD15R,0.051500X0.045000*%
%ADD16R,0.045000X0.051500*%
%ADD17C,0.076000*%
%ADD18R,0.100000X0.080000*%
%ADD19C,0.180000*%
%ADD20C,0.055400*%
%ADD21R,0.118400X0.098700*%
%ADD22R,0.110600X0.039700*%
G04 APERTURE END LIST*
G54D10*
G54D11*
X38272Y-21110D03*
G54D12*
X38272Y-22110D03*
X37272Y-21110D03*
X37272Y-22110D03*
X36272Y-21110D03*
X36272Y-22110D03*
G54D11*
X48296Y-28877D03*
G54D12*
X47296Y-28877D03*
X48296Y-27877D03*
X47296Y-27877D03*
X48296Y-26877D03*
X47296Y-26877D03*
X48296Y-25877D03*
X47296Y-25877D03*
X48296Y-24877D03*
X47296Y-24877D03*
X48296Y-23877D03*
X47296Y-23877D03*
G54D13*
X44770Y-25284D03*
X44770Y-25599D03*
X44770Y-25914D03*
X44770Y-26229D03*
X44770Y-26544D03*
X44770Y-26859D03*
X44770Y-27174D03*
X44770Y-27489D03*
X41004Y-27487D03*
X41004Y-25277D03*
X41004Y-25597D03*
X41004Y-25917D03*
X41004Y-26227D03*
X41004Y-26547D03*
X41004Y-26857D03*
X41004Y-27177D03*
G54D14*
X43986Y-28277D03*
X43672Y-28277D03*
X43356Y-28277D03*
X43042Y-28277D03*
X42726Y-28277D03*
X42412Y-28277D03*
X42096Y-28277D03*
X41782Y-28277D03*
X43984Y-24497D03*
X43674Y-24497D03*
X43354Y-24497D03*
X43044Y-24497D03*
X42734Y-24497D03*
X42414Y-24497D03*
X42094Y-24497D03*
X41774Y-24497D03*
G54D15*
X46051Y-26555D03*
X46051Y-25955D03*
G54D16*
X36854Y-26531D03*
X37454Y-26531D03*
X38832Y-26531D03*
X38232Y-26531D03*
G54D15*
X35264Y-30926D03*
X35264Y-30326D03*
X36169Y-30926D03*
X36169Y-30326D03*
X34949Y-22973D03*
X34949Y-22373D03*
G54D16*
X37729Y-27948D03*
X37129Y-27948D03*
X39068Y-28460D03*
X38468Y-28460D03*
X35554Y-26806D03*
X36154Y-26806D03*
G54D15*
X36169Y-29272D03*
X36169Y-28672D03*
G54D16*
X36194Y-27554D03*
X35594Y-27554D03*
G54D11*
X40571Y-31995D03*
G54D12*
X40571Y-30995D03*
X41571Y-31995D03*
X41571Y-30995D03*
X42571Y-31995D03*
X42571Y-30995D03*
X43571Y-31995D03*
X43571Y-30995D03*
X44571Y-31995D03*
X44571Y-30995D03*
X45571Y-31995D03*
X45571Y-30995D03*
G54D11*
X45571Y-20759D03*
G54D12*
X45571Y-21759D03*
X44571Y-20759D03*
X44571Y-21759D03*
X43571Y-20759D03*
X43571Y-21759D03*
X42571Y-20759D03*
X42571Y-21759D03*
X41571Y-20759D03*
X41571Y-21759D03*
X40571Y-20759D03*
X40571Y-21759D03*
G54D17*
X36823Y-24995D03*
X38823Y-24995D03*
G54D18*
X37481Y-30729D03*
X37481Y-29429D03*
X38780Y-30729D03*
X38780Y-29429D03*
G54D19*
X47508Y-31216D03*
X31366Y-21374D03*
X47508Y-21374D03*
X31366Y-31216D03*
G54D20*
X31720Y-27161D03*
X31720Y-25429D03*
G54D21*
X30539Y-28027D03*
X30539Y-24543D03*
X32704Y-28047D03*
X32704Y-24543D03*
G54D22*
X32704Y-26295D03*
X32704Y-25980D03*
X32704Y-25665D03*
X32704Y-26610D03*
X32704Y-26925D03*
G54D18*
X34752Y-23991D03*
X34752Y-25291D03*
M02*
