M48
;DRILL file {Pcbnew (2012-01-19 BZR 3256)-stable} date Fri 05 Oct 2012 12:01:04 PM NZDT
;FORMAT={-:-/ absolute / inch / decimal}
FMAT,2
INCH,TZ
T1C0.016
T2C0.026
T3C0.035
T4C0.040
T5C0.120
%
G90
G05
M72
T1
X3.078Y-2.315
X3.078Y-2.964
X3.294Y-3.181
X3.314Y-2.078
X3.361Y-2.830
X3.361Y-2.893
X3.471Y-2.126
X3.475Y-2.622
X3.530Y-2.059
X3.629Y-2.342
X3.676Y-2.877
X3.782Y-2.720
X3.782Y-2.858
X3.786Y-2.496
X3.814Y-3.197
X3.940Y-2.236
X3.944Y-2.137
X3.944Y-3.145
X3.967Y-2.342
X3.983Y-2.755
X4.030Y-2.799
X4.030Y-2.858
X4.030Y-2.913
X4.058Y-2.342
X4.058Y-2.476
X4.133Y-2.476
X4.137Y-2.342
X4.208Y-2.311
X4.274Y-2.574
X4.302Y-2.736
X4.330Y-2.531
X4.397Y-2.921
X4.471Y-2.846
T2
X3.682Y-2.500
X3.882Y-2.500
T3
X3.172Y-2.543
X3.172Y-2.716
T4
X4.057Y-2.076
X4.057Y-2.176
X4.057Y-3.100
X4.057Y-3.200
X4.157Y-2.076
X4.157Y-2.176
X4.157Y-3.100
X4.157Y-3.200
X4.257Y-2.076
X4.257Y-2.176
X4.257Y-3.100
X4.257Y-3.200
X4.357Y-2.076
X4.357Y-2.176
X4.357Y-3.100
X4.357Y-3.200
X4.457Y-2.076
X4.457Y-2.176
X4.457Y-3.100
X4.457Y-3.200
X4.557Y-2.076
X4.557Y-2.176
X4.557Y-3.100
X4.557Y-3.200
X4.730Y-2.388
X4.730Y-2.488
X4.730Y-2.588
X4.730Y-2.688
X4.730Y-2.788
X4.730Y-2.888
X4.830Y-2.388
X4.830Y-2.488
X4.830Y-2.588
X4.830Y-2.688
X4.830Y-2.788
X4.830Y-2.888
T5
X3.137Y-2.137
X3.137Y-3.122
X4.751Y-2.137
X4.751Y-3.122
T0
M30
