M48
;DRILL file {Pcbnew (2011-11-27 BZR 3249)-stable} date 10/09/2012 4:48:27 p.m.
;FORMAT={-:-/ absolute / metric / decimal}
FMAT,2
METRIC,TZ
T1C0.635
T2C0.762
T3C0.899
T4C1.016
T5C3.048
%
G90
G05
M71
T1
X78.169Y-58.791
X78.169Y-75.291
X83.670Y-80.790
X84.171Y-52.789
X85.369Y-71.890
X85.369Y-73.490
X88.270Y-66.589
X89.670Y-52.291
X92.172Y-59.489
X93.370Y-73.089
X96.070Y-69.088
X96.070Y-72.588
X96.169Y-63.391
X96.871Y-81.191
X100.170Y-79.891
X100.769Y-59.489
X101.171Y-69.987
X102.370Y-71.090
X102.370Y-72.588
X102.370Y-73.990
X103.071Y-59.489
X103.071Y-62.890
X104.971Y-62.890
X105.070Y-59.489
X106.871Y-58.689
X108.570Y-65.387
X109.271Y-69.489
X109.969Y-64.287
X111.671Y-74.188
X113.571Y-72.288
T2
X93.530Y-63.487
X98.610Y-63.487
T3
X80.670Y-64.590
X80.670Y-68.989
T4
X92.131Y-53.619
X92.131Y-56.159
X94.671Y-53.619
X94.671Y-56.159
X97.211Y-53.619
X97.211Y-56.159
X103.050Y-52.728
X103.050Y-55.268
X103.050Y-78.727
X103.050Y-81.267
X105.590Y-52.728
X105.590Y-55.268
X105.590Y-78.727
X105.590Y-81.267
X108.130Y-52.728
X108.130Y-55.268
X108.130Y-78.727
X108.130Y-81.267
X110.670Y-52.728
X110.670Y-55.268
X110.670Y-78.727
X110.670Y-81.267
X113.210Y-52.728
X113.210Y-55.268
X113.210Y-78.727
X113.210Y-81.267
X115.750Y-52.728
X115.750Y-55.268
X115.750Y-78.727
X115.750Y-81.267
X120.132Y-60.648
X120.132Y-63.188
X120.132Y-65.728
X120.132Y-68.268
X120.132Y-70.808
X120.132Y-73.348
X122.672Y-60.648
X122.672Y-63.188
X122.672Y-65.728
X122.672Y-68.268
X122.672Y-70.808
X122.672Y-73.348
T5
X79.670Y-54.290
X79.670Y-79.289
X120.670Y-54.290
X120.670Y-79.289
T0
M30
