G04 (created by PCBNEW-RS274X (2012-01-19 BZR 3256)-stable) date Wed 26 Sep 2012 03:22:15 PM NZST*
G01*
G70*
G90*
%MOIN*%
G04 Gerber Fmt 3.4, Leading zero omitted, Abs format*
%FSLAX34Y34*%
G04 APERTURE LIST*
%ADD10C,0.006000*%
%ADD11R,0.080000X0.080000*%
%ADD12C,0.080000*%
%ADD13C,0.076000*%
%ADD14C,0.180000*%
%ADD15C,0.055400*%
G04 APERTURE END LIST*
G54D10*
G54D11*
X48296Y-28877D03*
G54D12*
X47296Y-28877D03*
X48296Y-27877D03*
X47296Y-27877D03*
X48296Y-26877D03*
X47296Y-26877D03*
X48296Y-25877D03*
X47296Y-25877D03*
X48296Y-24877D03*
X47296Y-24877D03*
X48296Y-23877D03*
X47296Y-23877D03*
G54D11*
X40571Y-31995D03*
G54D12*
X40571Y-30995D03*
X41571Y-31995D03*
X41571Y-30995D03*
X42571Y-31995D03*
X42571Y-30995D03*
X43571Y-31995D03*
X43571Y-30995D03*
X44571Y-31995D03*
X44571Y-30995D03*
X45571Y-31995D03*
X45571Y-30995D03*
G54D11*
X45571Y-20759D03*
G54D12*
X45571Y-21759D03*
X44571Y-20759D03*
X44571Y-21759D03*
X43571Y-20759D03*
X43571Y-21759D03*
X42571Y-20759D03*
X42571Y-21759D03*
X41571Y-20759D03*
X41571Y-21759D03*
X40571Y-20759D03*
X40571Y-21759D03*
G54D13*
X36823Y-24995D03*
X38823Y-24995D03*
G54D14*
X47508Y-31216D03*
X31366Y-21374D03*
X47508Y-21374D03*
X31366Y-31216D03*
G54D15*
X31720Y-27161D03*
X31720Y-25429D03*
M02*
