G04 (created by PCBNEW-RS274X (2011-11-27 BZR 3249)-stable) date 10/09/2012 4:48:29 p.m.*
G01*
G70*
G90*
%MOIN*%
G04 Gerber Fmt 3.4, Leading zero omitted, Abs format*
%FSLAX34Y34*%
G04 APERTURE LIST*
%ADD10C,0.006000*%
%ADD11C,0.012000*%
%ADD12C,0.007900*%
G04 APERTURE END LIST*
G54D10*
G54D11*
X32691Y-23006D02*
X33339Y-23006D01*
X33415Y-22977D01*
X33453Y-22949D01*
X33491Y-22892D01*
X33491Y-22806D01*
X33453Y-22749D01*
X33187Y-23006D02*
X33225Y-22949D01*
X33225Y-22835D01*
X33187Y-22777D01*
X33149Y-22749D01*
X33072Y-22720D01*
X32844Y-22720D01*
X32768Y-22749D01*
X32730Y-22777D01*
X32691Y-22835D01*
X32691Y-22949D01*
X32730Y-23006D01*
X33187Y-23263D02*
X33225Y-23320D01*
X33225Y-23435D01*
X33187Y-23492D01*
X33111Y-23520D01*
X33072Y-23520D01*
X32996Y-23492D01*
X32958Y-23435D01*
X32958Y-23349D01*
X32920Y-23292D01*
X32844Y-23263D01*
X32806Y-23263D01*
X32730Y-23292D01*
X32691Y-23349D01*
X32691Y-23435D01*
X32730Y-23492D01*
X32691Y-23721D02*
X33225Y-23835D01*
X32844Y-23949D01*
X33225Y-24064D01*
X32691Y-24178D01*
X33225Y-24407D02*
X32691Y-24407D01*
X32425Y-24407D02*
X32463Y-24378D01*
X32501Y-24407D01*
X32463Y-24435D01*
X32425Y-24407D01*
X32501Y-24407D01*
X32691Y-24607D02*
X32691Y-24836D01*
X32425Y-24693D02*
X33111Y-24693D01*
X33187Y-24721D01*
X33225Y-24779D01*
X33225Y-24836D01*
X33187Y-25293D02*
X33225Y-25236D01*
X33225Y-25122D01*
X33187Y-25064D01*
X33149Y-25036D01*
X33072Y-25007D01*
X32844Y-25007D01*
X32768Y-25036D01*
X32730Y-25064D01*
X32691Y-25122D01*
X32691Y-25236D01*
X32730Y-25293D01*
X33225Y-25550D02*
X32425Y-25550D01*
X33225Y-25807D02*
X32806Y-25807D01*
X32730Y-25778D01*
X32691Y-25721D01*
X32691Y-25636D01*
X32730Y-25578D01*
X32768Y-25550D01*
X33225Y-26407D02*
X33225Y-26064D01*
X33225Y-26236D02*
X32425Y-26236D01*
X32539Y-26179D01*
X32615Y-26121D01*
X32653Y-26064D01*
X32768Y-26750D02*
X32730Y-26692D01*
X32691Y-26664D01*
X32615Y-26635D01*
X32577Y-26635D01*
X32501Y-26664D01*
X32463Y-26692D01*
X32425Y-26750D01*
X32425Y-26864D01*
X32463Y-26921D01*
X32501Y-26950D01*
X32577Y-26978D01*
X32615Y-26978D01*
X32691Y-26950D01*
X32730Y-26921D01*
X32768Y-26864D01*
X32768Y-26750D01*
X32806Y-26692D01*
X32844Y-26664D01*
X32920Y-26635D01*
X33072Y-26635D01*
X33149Y-26664D01*
X33187Y-26692D01*
X33225Y-26750D01*
X33225Y-26864D01*
X33187Y-26921D01*
X33149Y-26950D01*
X33072Y-26978D01*
X32920Y-26978D01*
X32844Y-26950D01*
X32806Y-26921D01*
X32768Y-26864D01*
X32691Y-27635D02*
X33225Y-27778D01*
X32691Y-27920D01*
X33225Y-28463D02*
X33225Y-28120D01*
X33225Y-28292D02*
X32425Y-28292D01*
X32539Y-28235D01*
X32615Y-28177D01*
X32653Y-28120D01*
X33149Y-28720D02*
X33187Y-28748D01*
X33225Y-28720D01*
X33187Y-28691D01*
X33149Y-28720D01*
X33225Y-28720D01*
X32425Y-29120D02*
X32425Y-29177D01*
X32463Y-29234D01*
X32501Y-29263D01*
X32577Y-29292D01*
X32730Y-29320D01*
X32920Y-29320D01*
X33072Y-29292D01*
X33149Y-29263D01*
X33187Y-29234D01*
X33225Y-29177D01*
X33225Y-29120D01*
X33187Y-29063D01*
X33149Y-29034D01*
X33072Y-29006D01*
X32920Y-28977D01*
X32730Y-28977D01*
X32577Y-29006D01*
X32501Y-29034D01*
X32463Y-29063D01*
X32425Y-29120D01*
G54D12*
X34301Y-20333D02*
X33758Y-20333D01*
X34301Y-20549D02*
X34017Y-20549D01*
X33965Y-20525D01*
X33939Y-20477D01*
X33939Y-20405D01*
X33965Y-20357D01*
X33991Y-20333D01*
X33939Y-20717D02*
X33939Y-20909D01*
X33758Y-20789D02*
X34224Y-20789D01*
X34275Y-20813D01*
X34301Y-20861D01*
X34301Y-20909D01*
X33939Y-21005D02*
X33939Y-21197D01*
X33758Y-21077D02*
X34224Y-21077D01*
X34275Y-21101D01*
X34301Y-21149D01*
X34301Y-21197D01*
X33939Y-21365D02*
X34482Y-21365D01*
X33965Y-21365D02*
X33939Y-21413D01*
X33939Y-21509D01*
X33965Y-21557D01*
X33991Y-21581D01*
X34043Y-21605D01*
X34198Y-21605D01*
X34250Y-21581D01*
X34275Y-21557D01*
X34301Y-21509D01*
X34301Y-21413D01*
X34275Y-21365D01*
X34250Y-21821D02*
X34275Y-21845D01*
X34301Y-21821D01*
X34275Y-21797D01*
X34250Y-21821D01*
X34301Y-21821D01*
X33965Y-21821D02*
X33991Y-21845D01*
X34017Y-21821D01*
X33991Y-21797D01*
X33965Y-21821D01*
X34017Y-21821D01*
X33732Y-22421D02*
X34431Y-21989D01*
X33732Y-22949D02*
X34431Y-22517D01*
X33939Y-23333D02*
X34379Y-23333D01*
X34431Y-23309D01*
X34456Y-23285D01*
X34482Y-23237D01*
X34482Y-23165D01*
X34456Y-23117D01*
X34275Y-23333D02*
X34301Y-23285D01*
X34301Y-23189D01*
X34275Y-23141D01*
X34250Y-23117D01*
X34198Y-23093D01*
X34043Y-23093D01*
X33991Y-23117D01*
X33965Y-23141D01*
X33939Y-23189D01*
X33939Y-23285D01*
X33965Y-23333D01*
X34275Y-23549D02*
X34301Y-23597D01*
X34301Y-23693D01*
X34275Y-23741D01*
X34224Y-23765D01*
X34198Y-23765D01*
X34146Y-23741D01*
X34120Y-23693D01*
X34120Y-23621D01*
X34094Y-23573D01*
X34043Y-23549D01*
X34017Y-23549D01*
X33965Y-23573D01*
X33939Y-23621D01*
X33939Y-23693D01*
X33965Y-23741D01*
X33939Y-23933D02*
X34301Y-24029D01*
X34043Y-24125D01*
X34301Y-24221D01*
X33939Y-24317D01*
X34301Y-24509D02*
X33939Y-24509D01*
X33758Y-24509D02*
X33784Y-24485D01*
X33810Y-24509D01*
X33784Y-24533D01*
X33758Y-24509D01*
X33810Y-24509D01*
X33939Y-24677D02*
X33939Y-24869D01*
X33758Y-24749D02*
X34224Y-24749D01*
X34275Y-24773D01*
X34301Y-24821D01*
X34301Y-24869D01*
X34275Y-25253D02*
X34301Y-25205D01*
X34301Y-25109D01*
X34275Y-25061D01*
X34250Y-25037D01*
X34198Y-25013D01*
X34043Y-25013D01*
X33991Y-25037D01*
X33965Y-25061D01*
X33939Y-25109D01*
X33939Y-25205D01*
X33965Y-25253D01*
X34301Y-25469D02*
X33758Y-25469D01*
X34301Y-25685D02*
X34017Y-25685D01*
X33965Y-25661D01*
X33939Y-25613D01*
X33939Y-25541D01*
X33965Y-25493D01*
X33991Y-25469D01*
X34250Y-25925D02*
X34275Y-25949D01*
X34301Y-25925D01*
X34275Y-25901D01*
X34250Y-25925D01*
X34301Y-25925D01*
X33939Y-26381D02*
X34379Y-26381D01*
X34431Y-26357D01*
X34456Y-26333D01*
X34482Y-26285D01*
X34482Y-26213D01*
X34456Y-26165D01*
X34275Y-26381D02*
X34301Y-26333D01*
X34301Y-26237D01*
X34275Y-26189D01*
X34250Y-26165D01*
X34198Y-26141D01*
X34043Y-26141D01*
X33991Y-26165D01*
X33965Y-26189D01*
X33939Y-26237D01*
X33939Y-26333D01*
X33965Y-26381D01*
X34301Y-26693D02*
X34275Y-26645D01*
X34250Y-26621D01*
X34198Y-26597D01*
X34043Y-26597D01*
X33991Y-26621D01*
X33965Y-26645D01*
X33939Y-26693D01*
X33939Y-26765D01*
X33965Y-26813D01*
X33991Y-26837D01*
X34043Y-26861D01*
X34198Y-26861D01*
X34250Y-26837D01*
X34275Y-26813D01*
X34301Y-26765D01*
X34301Y-26693D01*
X34301Y-27149D02*
X34275Y-27101D01*
X34250Y-27077D01*
X34198Y-27053D01*
X34043Y-27053D01*
X33991Y-27077D01*
X33965Y-27101D01*
X33939Y-27149D01*
X33939Y-27221D01*
X33965Y-27269D01*
X33991Y-27293D01*
X34043Y-27317D01*
X34198Y-27317D01*
X34250Y-27293D01*
X34275Y-27269D01*
X34301Y-27221D01*
X34301Y-27149D01*
X33939Y-27749D02*
X34379Y-27749D01*
X34431Y-27725D01*
X34456Y-27701D01*
X34482Y-27653D01*
X34482Y-27581D01*
X34456Y-27533D01*
X34275Y-27749D02*
X34301Y-27701D01*
X34301Y-27605D01*
X34275Y-27557D01*
X34250Y-27533D01*
X34198Y-27509D01*
X34043Y-27509D01*
X33991Y-27533D01*
X33965Y-27557D01*
X33939Y-27605D01*
X33939Y-27701D01*
X33965Y-27749D01*
X34301Y-28061D02*
X34275Y-28013D01*
X34224Y-27989D01*
X33758Y-27989D01*
X34275Y-28445D02*
X34301Y-28397D01*
X34301Y-28301D01*
X34275Y-28253D01*
X34224Y-28229D01*
X34017Y-28229D01*
X33965Y-28253D01*
X33939Y-28301D01*
X33939Y-28397D01*
X33965Y-28445D01*
X34017Y-28469D01*
X34069Y-28469D01*
X34120Y-28229D01*
X34275Y-28901D02*
X34301Y-28853D01*
X34301Y-28757D01*
X34275Y-28709D01*
X34250Y-28685D01*
X34198Y-28661D01*
X34043Y-28661D01*
X33991Y-28685D01*
X33965Y-28709D01*
X33939Y-28757D01*
X33939Y-28853D01*
X33965Y-28901D01*
X34301Y-29189D02*
X34275Y-29141D01*
X34250Y-29117D01*
X34198Y-29093D01*
X34043Y-29093D01*
X33991Y-29117D01*
X33965Y-29141D01*
X33939Y-29189D01*
X33939Y-29261D01*
X33965Y-29309D01*
X33991Y-29333D01*
X34043Y-29357D01*
X34198Y-29357D01*
X34250Y-29333D01*
X34275Y-29309D01*
X34301Y-29261D01*
X34301Y-29189D01*
X34301Y-29789D02*
X33758Y-29789D01*
X34275Y-29789D02*
X34301Y-29741D01*
X34301Y-29645D01*
X34275Y-29597D01*
X34250Y-29573D01*
X34198Y-29549D01*
X34043Y-29549D01*
X33991Y-29573D01*
X33965Y-29597D01*
X33939Y-29645D01*
X33939Y-29741D01*
X33965Y-29789D01*
X34275Y-30221D02*
X34301Y-30173D01*
X34301Y-30077D01*
X34275Y-30029D01*
X34224Y-30005D01*
X34017Y-30005D01*
X33965Y-30029D01*
X33939Y-30077D01*
X33939Y-30173D01*
X33965Y-30221D01*
X34017Y-30245D01*
X34069Y-30245D01*
X34120Y-30005D01*
X34250Y-30461D02*
X34275Y-30485D01*
X34301Y-30461D01*
X34275Y-30437D01*
X34250Y-30461D01*
X34301Y-30461D01*
X34275Y-30917D02*
X34301Y-30869D01*
X34301Y-30773D01*
X34275Y-30725D01*
X34250Y-30701D01*
X34198Y-30677D01*
X34043Y-30677D01*
X33991Y-30701D01*
X33965Y-30725D01*
X33939Y-30773D01*
X33939Y-30869D01*
X33965Y-30917D01*
X34301Y-31205D02*
X34275Y-31157D01*
X34250Y-31133D01*
X34198Y-31109D01*
X34043Y-31109D01*
X33991Y-31133D01*
X33965Y-31157D01*
X33939Y-31205D01*
X33939Y-31277D01*
X33965Y-31325D01*
X33991Y-31349D01*
X34043Y-31373D01*
X34198Y-31373D01*
X34250Y-31349D01*
X34275Y-31325D01*
X34301Y-31277D01*
X34301Y-31205D01*
X34301Y-31589D02*
X33939Y-31589D01*
X33991Y-31589D02*
X33965Y-31613D01*
X33939Y-31661D01*
X33939Y-31733D01*
X33965Y-31781D01*
X34017Y-31805D01*
X34301Y-31805D01*
X34017Y-31805D02*
X33965Y-31829D01*
X33939Y-31877D01*
X33939Y-31949D01*
X33965Y-31997D01*
X34017Y-32021D01*
X34301Y-32021D01*
M02*
