G04 (created by PCBNEW-RS274X (2011-11-27 BZR 3249)-stable) date 10/09/2012 4:48:29 p.m.*
G01*
G70*
G90*
%MOIN*%
G04 Gerber Fmt 3.4, Leading zero omitted, Abs format*
%FSLAX34Y34*%
G04 APERTURE LIST*
%ADD10C,0.006000*%
%ADD11R,0.098400X0.078700*%
%ADD12R,0.090600X0.019700*%
%ADD13R,0.078700X0.017700*%
%ADD14R,0.017700X0.078700*%
%ADD15R,0.080000X0.060000*%
%ADD16R,0.031500X0.025000*%
%ADD17R,0.025000X0.031500*%
G04 APERTURE END LIST*
G54D10*
G54D11*
X30579Y-28027D03*
X30579Y-24543D03*
X32744Y-28047D03*
X32744Y-24543D03*
G54D12*
X32744Y-26295D03*
X32744Y-25980D03*
X32744Y-25665D03*
X32744Y-26610D03*
X32744Y-26925D03*
G54D13*
X44770Y-25284D03*
X44770Y-25599D03*
X44770Y-25914D03*
X44770Y-26229D03*
X44770Y-26544D03*
X44770Y-26859D03*
X44770Y-27174D03*
X44770Y-27489D03*
X41004Y-27487D03*
X41004Y-25277D03*
X41004Y-25597D03*
X41004Y-25917D03*
X41004Y-26227D03*
X41004Y-26547D03*
X41004Y-26857D03*
X41004Y-27177D03*
G54D14*
X43986Y-28277D03*
X43672Y-28277D03*
X43356Y-28277D03*
X43042Y-28277D03*
X42726Y-28277D03*
X42412Y-28277D03*
X42096Y-28277D03*
X41782Y-28277D03*
X43984Y-24497D03*
X43674Y-24497D03*
X43354Y-24497D03*
X43044Y-24497D03*
X42734Y-24497D03*
X42414Y-24497D03*
X42094Y-24497D03*
X41774Y-24497D03*
G54D15*
X34752Y-23991D03*
X34752Y-25291D03*
G54D16*
X46051Y-26555D03*
X46051Y-25955D03*
G54D17*
X36854Y-26531D03*
X37454Y-26531D03*
X38832Y-26531D03*
X38232Y-26531D03*
G54D16*
X35264Y-30926D03*
X35264Y-30326D03*
X36169Y-30926D03*
X36169Y-30326D03*
X34949Y-22973D03*
X34949Y-22373D03*
G54D17*
X37729Y-27948D03*
X37129Y-27948D03*
X39068Y-28460D03*
X38468Y-28460D03*
X35554Y-26806D03*
X36154Y-26806D03*
G54D16*
X36169Y-29272D03*
X36169Y-28672D03*
G54D17*
X36194Y-27554D03*
X35594Y-27554D03*
G54D15*
X37481Y-30729D03*
X37481Y-29429D03*
X38780Y-30729D03*
X38780Y-29429D03*
M02*
