G04 (created by PCBNEW-RS274X (2012-01-19 BZR 3256)-stable) date Wed 26 Sep 2012 03:22:15 PM NZST*
G01*
G70*
G90*
%MOIN*%
G04 Gerber Fmt 3.4, Leading zero omitted, Abs format*
%FSLAX34Y34*%
G04 APERTURE LIST*
%ADD10C,0.006000*%
%ADD11C,0.012000*%
G04 APERTURE END LIST*
G54D10*
G54D11*
X27652Y-28808D02*
X27652Y-28437D01*
X27957Y-28637D01*
X27957Y-28551D01*
X27995Y-28494D01*
X28033Y-28465D01*
X28109Y-28437D01*
X28299Y-28437D01*
X28376Y-28465D01*
X28414Y-28494D01*
X28452Y-28551D01*
X28452Y-28723D01*
X28414Y-28780D01*
X28376Y-28808D01*
X27728Y-28209D02*
X27690Y-28180D01*
X27652Y-28123D01*
X27652Y-27980D01*
X27690Y-27923D01*
X27728Y-27894D01*
X27804Y-27866D01*
X27880Y-27866D01*
X27995Y-27894D01*
X28452Y-28237D01*
X28452Y-27866D01*
X28376Y-27609D02*
X28414Y-27581D01*
X28452Y-27609D01*
X28414Y-27638D01*
X28376Y-27609D01*
X28452Y-27609D01*
X27918Y-27066D02*
X28452Y-27066D01*
X27614Y-27209D02*
X28185Y-27352D01*
X28185Y-26980D01*
X27652Y-26638D02*
X27652Y-26581D01*
X27690Y-26524D01*
X27728Y-26495D01*
X27804Y-26466D01*
X27957Y-26438D01*
X28147Y-26438D01*
X28299Y-26466D01*
X28376Y-26495D01*
X28414Y-26524D01*
X28452Y-26581D01*
X28452Y-26638D01*
X28414Y-26695D01*
X28376Y-26724D01*
X28299Y-26752D01*
X28147Y-26781D01*
X27957Y-26781D01*
X27804Y-26752D01*
X27728Y-26724D01*
X27690Y-26695D01*
X27652Y-26638D01*
X27652Y-26067D02*
X27652Y-26010D01*
X27690Y-25953D01*
X27728Y-25924D01*
X27804Y-25895D01*
X27957Y-25867D01*
X28147Y-25867D01*
X28299Y-25895D01*
X28376Y-25924D01*
X28414Y-25953D01*
X28452Y-26010D01*
X28452Y-26067D01*
X28414Y-26124D01*
X28376Y-26153D01*
X28299Y-26181D01*
X28147Y-26210D01*
X27957Y-26210D01*
X27804Y-26181D01*
X27728Y-26153D01*
X27690Y-26124D01*
X27652Y-26067D01*
X28452Y-25153D02*
X27918Y-25153D01*
X27995Y-25153D02*
X27957Y-25125D01*
X27918Y-25067D01*
X27918Y-24982D01*
X27957Y-24925D01*
X28033Y-24896D01*
X28452Y-24896D01*
X28033Y-24896D02*
X27957Y-24867D01*
X27918Y-24810D01*
X27918Y-24725D01*
X27957Y-24667D01*
X28033Y-24639D01*
X28452Y-24639D01*
X28452Y-24353D02*
X27918Y-24353D01*
X27995Y-24353D02*
X27957Y-24325D01*
X27918Y-24267D01*
X27918Y-24182D01*
X27957Y-24125D01*
X28033Y-24096D01*
X28452Y-24096D01*
X28033Y-24096D02*
X27957Y-24067D01*
X27918Y-24010D01*
X27918Y-23925D01*
X27957Y-23867D01*
X28033Y-23839D01*
X28452Y-23839D01*
X28768Y-32673D02*
X28768Y-19917D01*
X29279Y-32673D02*
X27488Y-32673D01*
X29279Y-19917D02*
X27488Y-19917D01*
X28768Y-19917D02*
X28998Y-20360D01*
X28768Y-19917D02*
X28538Y-20360D01*
X28768Y-32673D02*
X28998Y-32230D01*
X28768Y-32673D02*
X28538Y-32230D01*
X37218Y-34834D02*
X37218Y-35368D01*
X37075Y-34530D02*
X36932Y-35101D01*
X37304Y-35101D01*
X37618Y-34911D02*
X37560Y-34873D01*
X37532Y-34834D01*
X37503Y-34758D01*
X37503Y-34720D01*
X37532Y-34644D01*
X37560Y-34606D01*
X37618Y-34568D01*
X37732Y-34568D01*
X37789Y-34606D01*
X37818Y-34644D01*
X37846Y-34720D01*
X37846Y-34758D01*
X37818Y-34834D01*
X37789Y-34873D01*
X37732Y-34911D01*
X37618Y-34911D01*
X37560Y-34949D01*
X37532Y-34987D01*
X37503Y-35063D01*
X37503Y-35215D01*
X37532Y-35292D01*
X37560Y-35330D01*
X37618Y-35368D01*
X37732Y-35368D01*
X37789Y-35330D01*
X37818Y-35292D01*
X37846Y-35215D01*
X37846Y-35063D01*
X37818Y-34987D01*
X37789Y-34949D01*
X37732Y-34911D01*
X38103Y-35292D02*
X38131Y-35330D01*
X38103Y-35368D01*
X38074Y-35330D01*
X38103Y-35292D01*
X38103Y-35368D01*
X38646Y-34834D02*
X38646Y-35368D01*
X38503Y-34530D02*
X38360Y-35101D01*
X38732Y-35101D01*
X38988Y-35368D02*
X39103Y-35368D01*
X39160Y-35330D01*
X39188Y-35292D01*
X39246Y-35177D01*
X39274Y-35025D01*
X39274Y-34720D01*
X39246Y-34644D01*
X39217Y-34606D01*
X39160Y-34568D01*
X39046Y-34568D01*
X38988Y-34606D01*
X38960Y-34644D01*
X38931Y-34720D01*
X38931Y-34911D01*
X38960Y-34987D01*
X38988Y-35025D01*
X39046Y-35063D01*
X39160Y-35063D01*
X39217Y-35025D01*
X39246Y-34987D01*
X39274Y-34911D01*
X39559Y-35368D02*
X39674Y-35368D01*
X39731Y-35330D01*
X39759Y-35292D01*
X39817Y-35177D01*
X39845Y-35025D01*
X39845Y-34720D01*
X39817Y-34644D01*
X39788Y-34606D01*
X39731Y-34568D01*
X39617Y-34568D01*
X39559Y-34606D01*
X39531Y-34644D01*
X39502Y-34720D01*
X39502Y-34911D01*
X39531Y-34987D01*
X39559Y-35025D01*
X39617Y-35063D01*
X39731Y-35063D01*
X39788Y-35025D01*
X39817Y-34987D01*
X39845Y-34911D01*
X40559Y-35368D02*
X40559Y-34834D01*
X40559Y-34911D02*
X40587Y-34873D01*
X40645Y-34834D01*
X40730Y-34834D01*
X40787Y-34873D01*
X40816Y-34949D01*
X40816Y-35368D01*
X40816Y-34949D02*
X40845Y-34873D01*
X40902Y-34834D01*
X40987Y-34834D01*
X41045Y-34873D01*
X41073Y-34949D01*
X41073Y-35368D01*
X41359Y-35368D02*
X41359Y-34834D01*
X41359Y-34911D02*
X41387Y-34873D01*
X41445Y-34834D01*
X41530Y-34834D01*
X41587Y-34873D01*
X41616Y-34949D01*
X41616Y-35368D01*
X41616Y-34949D02*
X41645Y-34873D01*
X41702Y-34834D01*
X41787Y-34834D01*
X41845Y-34873D01*
X41873Y-34949D01*
X41873Y-35368D01*
X29870Y-34404D02*
X48964Y-34404D01*
X29870Y-33972D02*
X29870Y-35684D01*
X48964Y-33972D02*
X48964Y-35684D01*
X48964Y-34404D02*
X48521Y-34634D01*
X48964Y-34404D02*
X48521Y-34174D01*
X29870Y-34404D02*
X30313Y-34634D01*
X29870Y-34404D02*
X30313Y-34174D01*
M02*
